<?xml version="1.0" encoding="utf-8" standalone="no"?>
<!DOCTYPE svg PUBLIC "-//W3C//DTD SVG 1.1//EN"
  "http://www.w3.org/Graphics/SVG/1.1/DTD/svg11.dtd">
<!-- Created with matplotlib (https://matplotlib.org/) -->
<svg height="360pt" version="1.1" viewBox="0 0 360 360" width="360pt" xmlns="http://www.w3.org/2000/svg" xmlns:xlink="http://www.w3.org/1999/xlink">
 <metadata>
  <rdf:RDF xmlns:cc="http://creativecommons.org/ns#" xmlns:dc="http://purl.org/dc/elements/1.1/" xmlns:rdf="http://www.w3.org/1999/02/22-rdf-syntax-ns#">
   <cc:Work>
    <dc:type rdf:resource="http://purl.org/dc/dcmitype/StillImage"/>
    <dc:date>2021-03-04T10:29:23.113169</dc:date>
    <dc:format>image/svg+xml</dc:format>
    <dc:creator>
     <cc:Agent>
      <dc:title>Matplotlib v3.3.0, https://matplotlib.org/</dc:title>
     </cc:Agent>
    </dc:creator>
   </cc:Work>
  </rdf:RDF>
 </metadata>
 <defs>
  <style type="text/css">*{stroke-linecap:butt;stroke-linejoin:round;}</style>
 </defs>
 <g id="figure_1">
  <g id="patch_1">
   <path d="M 0 360 
L 360 360 
L 360 0 
L 0 0 
z
" style="fill:none;"/>
  </g>
  <g id="axes_1">
   <g id="PathCollection_1">
    <path clip-path="url(#p6880ea3d7e)" d="M 47.818182 315 
L 50.636364 315 
L 53.454545 315 
L 56.272727 315 
L 59.090909 315 
L 61.909091 315 
L 64.727273 315 
L 67.545455 315 
L 70.363636 315 
L 73.181818 315 
L 76 315 
L 78.818182 315 
L 81.636364 315 
L 84.454545 315 
L 87.272727 315 
L 90.090909 315 
L 92.909091 315 
L 95.727273 315 
L 98.545455 315 
L 101.363636 315 
L 104.181818 315 
L 107 315 
L 109.818182 315 
L 112.636364 315 
L 115.454545 315 
L 118.272727 315 
L 121.090909 315 
L 123.909091 315 
L 126.727273 315 
L 129.545455 315 
L 132.363636 315 
L 135.181818 315 
L 138 315 
L 140.818182 315 
L 143.636364 315 
L 146.454545 315 
L 149.272727 315 
L 152.090909 315 
L 154.909091 315 
L 157.727273 315 
L 160.545455 315 
L 163.363636 315 
L 166.181818 315 
L 169 315 
L 171.818182 315 
L 174.636364 315 
L 177.454545 315 
L 180.272727 315 
L 183.090909 315 
L 185.909091 315 
L 188.727273 315 
L 191.545455 315 
L 194.363636 315 
L 197.181818 315 
L 200 315 
L 202.818182 315 
L 205.636364 315 
L 208.454545 315 
L 211.272727 315 
L 214.090909 315 
L 216.909091 315 
L 219.727273 315 
L 222.545455 315 
L 225.363636 315 
L 228.181818 315 
L 231 315 
L 233.818182 315 
L 236.636364 315 
L 239.454545 315 
L 242.272727 315 
L 245.090909 315 
L 247.909091 315 
L 250.727273 315 
L 253.545455 315 
L 256.363636 315 
L 259.181818 315 
L 262 315 
L 264.818182 315 
L 267.636364 315 
L 270.454545 315 
L 273.272727 315 
L 276.090909 315 
L 278.909091 315 
L 281.727273 315 
L 284.545455 315 
L 287.363636 315 
L 290.181818 315 
L 293 315 
L 295.818182 315 
L 298.636364 315 
L 301.454545 315 
L 304.272727 315 
L 307.090909 315 
L 309.909091 315 
L 312.727273 315 
L 315.545455 315 
L 318.363636 315 
L 321.181818 315 
L 324 315 
L 324 312.254545 
L 324 309.509091 
L 324 306.763636 
L 324 304.018182 
L 324 301.272727 
L 324 298.527273 
L 324 295.781818 
L 324 293.036364 
L 324 290.290909 
L 324 287.545455 
L 324 284.8 
L 324 282.054545 
L 324 279.309091 
L 324 276.563636 
L 324 273.818182 
L 324 271.072727 
L 324 268.327273 
L 324 265.581818 
L 324 262.836364 
L 324 260.090909 
L 324 257.345455 
L 324 254.6 
L 324 251.854545 
L 324 249.109091 
L 324 246.363636 
L 324 243.618182 
L 324 240.872727 
L 324 238.127273 
L 324 235.381818 
L 324 232.636364 
L 324 229.890909 
L 324 227.145455 
L 324 224.4 
L 324 221.654545 
L 324 218.909091 
L 324 216.163636 
L 324 213.418182 
L 324 210.672727 
L 324 207.927273 
L 324 205.181818 
L 324 202.436364 
L 324 199.690909 
L 324 196.945455 
L 324 194.2 
L 324 191.454545 
L 324 188.709091 
L 324 185.963636 
L 324 183.218182 
L 324 180.472727 
L 324 177.727273 
L 324 174.981818 
L 324 172.236364 
L 324 169.490909 
L 324 166.745455 
L 324 164 
L 324 161.254545 
L 324 158.509091 
L 324 155.763636 
L 324 153.018182 
L 324 150.272727 
L 324 147.527273 
L 324 144.781818 
L 324 142.036364 
L 324 139.290909 
L 324 136.545455 
L 324 133.8 
L 324 131.054545 
L 324 128.309091 
L 324 125.563636 
L 324 122.818182 
L 324 120.072727 
L 324 117.327273 
L 324 114.581818 
L 324 111.836364 
L 324 109.090909 
L 324 106.345455 
L 324 103.6 
L 324 100.854545 
L 324 98.109091 
L 324 95.363636 
L 324 92.618182 
L 324 89.872727 
L 324 87.127273 
L 324 84.381818 
L 324 81.636364 
L 324 78.890909 
L 324 76.145455 
L 324 73.4 
L 324 70.654545 
L 324 67.909091 
L 324 65.163636 
L 324 62.418182 
L 324 59.672727 
L 324 56.927273 
L 324 54.181818 
L 324 51.436364 
L 324 48.690909 
L 324 45.945455 
L 324 43.2 
L 321.181818 43.2 
L 318.363636 43.2 
L 315.545455 43.2 
L 312.727273 43.2 
L 309.909091 43.2 
L 307.090909 43.2 
L 304.272727 43.2 
L 301.454545 43.2 
L 298.636364 43.2 
L 295.818182 43.2 
L 293 43.2 
L 290.181818 43.2 
L 287.363636 43.2 
L 284.545455 43.2 
L 281.727273 43.2 
L 278.909091 43.2 
L 276.090909 43.2 
L 273.272727 43.2 
L 270.454545 43.2 
L 267.636364 43.2 
L 264.818182 43.2 
L 262 43.2 
L 259.181818 43.2 
L 256.363636 43.2 
L 253.545455 43.2 
L 250.727273 43.2 
L 247.909091 43.2 
L 245.090909 43.2 
L 242.272727 43.2 
L 239.454545 43.2 
L 236.636364 43.2 
L 233.818182 43.2 
L 231 43.2 
L 228.181818 43.2 
L 225.363636 43.2 
L 222.545455 43.2 
L 219.727273 43.2 
L 216.909091 43.2 
L 214.090909 43.2 
L 211.272727 43.2 
L 208.454545 43.2 
L 205.636364 43.2 
L 202.818182 43.2 
L 200 43.2 
L 197.181818 43.2 
L 194.363636 43.2 
L 191.545455 43.2 
L 188.727273 43.2 
L 185.909091 43.2 
L 183.090909 43.2 
L 180.272727 43.2 
L 177.454545 43.2 
L 174.636364 43.2 
L 171.818182 43.2 
L 169 43.2 
L 166.181818 43.2 
L 163.363636 43.2 
L 160.545455 43.2 
L 157.727273 43.2 
L 154.909091 43.2 
L 152.090909 43.2 
L 149.272727 43.2 
L 146.454545 43.2 
L 143.636364 43.2 
L 140.818182 43.2 
L 138 43.2 
L 135.181818 43.2 
L 132.363636 43.2 
L 129.545455 43.2 
L 126.727273 43.2 
L 123.909091 43.2 
L 121.090909 43.2 
L 118.272727 43.2 
L 115.454545 43.2 
L 112.636364 43.2 
L 109.818182 43.2 
L 107 43.2 
L 104.181818 43.2 
L 101.363636 43.2 
L 98.545455 43.2 
L 95.727273 43.2 
L 92.909091 43.2 
L 90.090909 43.2 
L 87.272727 43.2 
L 84.454545 43.2 
L 81.636364 43.2 
L 78.818182 43.2 
L 76 43.2 
L 73.181818 43.2 
L 70.363636 43.2 
L 67.545455 43.2 
L 64.727273 43.2 
L 61.909091 43.2 
L 59.090909 43.2 
L 56.272727 43.2 
L 53.454545 43.2 
L 50.636364 43.2 
L 47.818182 43.2 
L 45 43.2 
L 45 45.945455 
L 45 48.690909 
L 45 51.436364 
L 45 54.181818 
L 45 56.927273 
L 45 59.672727 
L 45 62.418182 
L 45 65.163636 
L 45 67.909091 
L 45 70.654545 
L 45 73.4 
L 45 76.145455 
L 45 78.890909 
L 45 81.636364 
L 45 84.381818 
L 45 87.127273 
L 45 89.872727 
L 45 92.618182 
L 45 95.363636 
L 45 98.109091 
L 45 100.854545 
L 45 103.6 
L 45 106.345455 
L 45 109.090909 
L 45 111.836364 
L 45 114.581818 
L 45 117.327273 
L 45 120.072727 
L 45 122.818182 
L 45 125.563636 
L 45 128.309091 
L 45 131.054545 
L 45 133.8 
L 45 136.545455 
L 45 139.290909 
L 45 142.036364 
L 45 144.781818 
L 45 147.527273 
L 45 150.272727 
L 45 153.018182 
L 45 155.763636 
L 45 158.509091 
L 45 161.254545 
L 45 164 
L 45 166.745455 
L 45 169.490909 
L 45 172.236364 
L 45 174.981818 
L 45 177.727273 
L 45 180.472727 
L 45 183.218182 
L 45 185.963636 
L 45 188.709091 
L 45 191.454545 
L 45 194.2 
L 45 196.945455 
L 45 199.690909 
L 45 202.436364 
L 45 205.181818 
L 45 207.927273 
L 45 210.672727 
L 45 213.418182 
L 45 216.163636 
L 45 218.909091 
L 45 221.654545 
L 45 224.4 
L 45 227.145455 
L 45 229.890909 
L 45 232.636364 
L 45 235.381818 
L 45 238.127273 
L 45 240.872727 
L 45 243.618182 
L 45 246.363636 
L 45 249.109091 
L 45 251.854545 
L 45 254.6 
L 45 257.345455 
L 45 260.090909 
L 45 262.836364 
L 45 265.581818 
L 45 268.327273 
L 45 271.072727 
L 45 273.818182 
L 45 276.563636 
L 45 279.309091 
L 45 282.054545 
L 45 284.8 
L 45 287.545455 
L 45 290.290909 
L 45 293.036364 
L 45 295.781818 
L 45 298.527273 
L 45 301.272727 
L 45 304.018182 
L 45 306.763636 
L 45 309.509091 
L 45 312.254545 
L 45 315 
z
M 127.439891 276.563636 
L 126.727273 276.343517 
L 123.909091 275.178439 
L 121.44116 273.818182 
L 121.090909 273.618135 
L 118.272727 271.656344 
L 117.567782 271.072727 
L 115.454545 269.137099 
L 114.679058 268.327273 
L 112.636364 265.847802 
L 112.434278 265.581818 
L 110.63823 262.836364 
L 109.818182 261.257434 
L 109.222714 260.090909 
L 108.104542 257.345455 
L 107.280446 254.6 
L 107 253.309703 
L 106.664491 251.854545 
L 106.240462 249.109091 
L 106.00485 246.363636 
L 105.926532 243.618182 
L 105.974708 240.872727 
L 106.115109 238.127273 
L 106.306278 235.381818 
L 106.496481 232.636364 
L 106.622491 229.890909 
L 106.611959 227.145455 
L 106.390957 224.4 
L 105.896593 221.654545 
L 105.091576 218.909091 
L 104.181818 216.684233 
L 103.946011 216.163636 
L 102.376458 213.418182 
L 101.363636 211.890448 
L 100.504077 210.672727 
L 98.545455 208.11721 
L 98.393595 207.927273 
L 96.08546 205.181818 
L 95.727273 204.760382 
L 93.726629 202.436364 
L 92.909091 201.453646 
L 91.43366 199.690909 
L 90.090909 197.965712 
L 89.291478 196.945455 
L 87.359457 194.2 
L 87.272727 194.063583 
L 85.581606 191.454545 
L 84.454545 189.355486 
L 84.094605 188.709091 
L 82.799684 185.963636 
L 81.800312 183.218182 
L 81.636364 182.633318 
L 80.979301 180.472727 
L 80.402296 177.727273 
L 80.070776 174.981818 
L 79.974405 172.236364 
L 80.113636 169.490909 
L 80.499927 166.745455 
L 81.156699 164 
L 81.636364 162.58969 
L 82.068949 161.254545 
L 83.252973 158.509091 
L 84.454545 156.363922 
L 84.792922 155.763636 
L 86.657918 153.018182 
L 87.272727 152.243206 
L 88.921294 150.272727 
L 90.090909 149.032634 
L 91.626611 147.527273 
L 92.909091 146.349801 
L 94.782653 144.781818 
L 95.727273 144.000706 
L 98.327758 142.036364 
L 98.545455 141.864814 
L 101.363636 139.755704 
L 102.020261 139.290909 
L 104.181818 137.56441 
L 105.479805 136.545455 
L 107 135.109645 
L 108.349835 133.8 
L 109.818182 131.954759 
L 110.494875 131.054545 
L 111.96125 128.309091 
L 112.636364 126.381339 
L 112.903343 125.563636 
L 113.446426 122.818182 
L 113.752901 120.072727 
L 113.94058 117.327273 
L 114.113457 114.581818 
L 114.361131 111.836364 
L 114.761436 109.090909 
L 115.385203 106.345455 
L 115.454545 106.12943 
L 116.293299 103.6 
L 117.570003 100.854545 
L 118.272727 99.694277 
L 119.328447 98.109091 
L 121.090909 96.01534 
L 121.724217 95.363636 
L 123.909091 93.470286 
L 125.102845 92.618182 
L 126.727273 91.586196 
L 129.545455 90.165653 
L 130.282548 89.872727 
L 132.363636 89.088444 
L 135.181818 88.278908 
L 138 87.67584 
L 140.818182 87.225819 
L 141.613101 87.127273 
L 143.636364 86.872521 
L 146.454545 86.577039 
L 149.272727 86.300973 
L 152.090909 86.01049 
L 154.909091 85.682741 
L 157.727273 85.308873 
L 160.545455 84.895145 
L 163.363636 84.461273 
L 163.880778 84.381818 
L 166.181818 84.016738 
L 169 83.610525 
L 171.818182 83.280402 
L 174.636364 83.055655 
L 177.454545 82.959934 
L 180.272727 83.011109 
L 183.090909 83.221898 
L 185.909091 83.600654 
L 188.727273 84.151912 
L 189.635039 84.381818 
L 191.545455 84.827965 
L 194.363636 85.623194 
L 197.181818 86.545778 
L 198.788562 87.127273 
L 200 87.525286 
L 202.818182 88.500884 
L 205.636364 89.514768 
L 206.631862 89.872727 
L 208.454545 90.454947 
L 211.272727 91.338396 
L 214.090909 92.206131 
L 215.472147 92.618182 
L 216.909091 92.998686 
L 219.727273 93.72914 
L 222.545455 94.471505 
L 225.363636 95.250162 
L 225.758089 95.363636 
L 228.181818 96.007085 
L 231 96.8467 
L 233.818182 97.824592 
L 234.546045 98.109091 
L 236.636364 98.90815 
L 239.454545 100.198211 
L 240.683054 100.854545 
L 242.272727 101.732802 
L 245.085758 103.6 
L 245.090909 103.603702 
L 247.909091 105.894822 
L 248.397435 106.345455 
L 250.727273 108.831002 
L 250.950735 109.090909 
L 252.955168 111.836364 
L 253.545455 112.855202 
L 254.520835 114.581818 
L 255.712936 117.327273 
L 256.363636 119.365208 
L 256.597497 120.072727 
L 257.264452 122.818182 
L 257.712499 125.563636 
L 257.997602 128.309091 
L 258.176647 131.054545 
L 258.313034 133.8 
L 258.481968 136.545455 
L 258.774542 139.290909 
L 259.181818 141.442039 
L 259.313095 142.036364 
L 260.287532 144.781818 
L 261.750896 147.527273 
L 262 147.872572 
L 263.894596 150.272727 
L 264.818182 151.228718 
L 266.602604 153.018182 
L 267.636364 153.945114 
L 269.618014 155.763636 
L 270.454545 156.503481 
L 272.59293 158.509091 
L 273.272727 159.16636 
L 275.286368 161.254545 
L 276.090909 162.17193 
L 277.599125 164 
L 278.909091 165.864396 
L 279.50482 166.745455 
L 281.042291 169.490909 
L 281.727273 171.07943 
L 282.230053 172.236364 
L 283.117803 174.981818 
L 283.693139 177.727273 
L 283.991014 180.472727 
L 284.035176 183.218182 
L 283.839316 185.963636 
L 283.407863 188.709091 
L 282.736338 191.454545 
L 281.811172 194.2 
L 281.727273 194.401829 
L 280.749253 196.945455 
L 279.442637 199.690909 
L 278.909091 200.655343 
L 277.985027 202.436364 
L 276.326415 205.181818 
L 276.090909 205.537065 
L 274.591823 207.927273 
L 273.272727 209.798295 
L 272.686986 210.672727 
L 270.674217 213.418182 
L 270.454545 213.700772 
L 268.617092 216.163636 
L 267.636364 217.376864 
L 266.436744 218.909091 
L 264.818182 220.829706 
L 264.13667 221.654545 
L 262 224.071511 
L 261.710921 224.4 
L 259.181818 227.104904 
L 259.143394 227.145455 
L 256.410735 229.890909 
L 256.363636 229.93635 
L 253.545455 232.555021 
L 253.453145 232.636364 
L 250.727273 234.977254 
L 250.217438 235.381818 
L 247.909091 237.196224 
L 246.594555 238.127273 
L 245.090909 239.201355 
L 242.42371 240.872727 
L 242.272727 240.970008 
L 239.454545 242.63324 
L 237.467138 243.618182 
L 236.636364 244.053988 
L 233.818182 245.342053 
L 231.052393 246.363636 
L 231 246.384771 
L 228.181818 247.361314 
L 225.363636 248.125325 
L 222.545455 248.707672 
L 219.888201 249.109091 
L 219.727273 249.137066 
L 216.909091 249.476557 
L 214.090909 249.674259 
L 211.272727 249.752922 
L 208.454545 249.738209 
L 205.636364 249.661811 
L 202.818182 249.564308 
L 200 249.496863 
L 197.181818 249.52036 
L 194.363636 249.700612 
L 191.545455 250.099231 
L 188.727273 250.76202 
L 185.909091 251.709027 
L 185.579562 251.854545 
L 183.090909 253.06556 
L 180.418078 254.6 
L 180.272727 254.690334 
L 177.454545 256.679948 
L 176.582597 257.345455 
L 174.636364 258.894773 
L 173.189516 260.090909 
L 171.818182 261.253202 
L 169.957969 262.836364 
L 169 263.66055 
L 166.701753 265.581818 
L 166.181818 266.017296 
L 163.363636 268.24305 
L 163.249445 268.327273 
L 160.545455 270.32033 
L 159.387337 271.072727 
L 157.727273 272.159316 
L 154.909091 273.723745 
L 154.71109 273.818182 
L 152.090909 275.105572 
L 149.272727 276.191415 
L 148.024195 276.563636 
L 146.454545 277.061862 
L 143.636364 277.704079 
L 140.818182 278.09618 
L 138 278.249863 
L 135.181818 278.165981 
L 132.363636 277.834264 
L 129.545455 277.232191 
z
" style="fill:#deedf7;"/>
   </g>
   <g id="PathCollection_2">
    <path clip-path="url(#p6880ea3d7e)" d="M 129.545455 277.232191 
L 132.363636 277.834264 
L 135.181818 278.165981 
L 138 278.249863 
L 140.818182 278.09618 
L 143.636364 277.704079 
L 146.454545 277.061862 
L 148.024195 276.563636 
L 149.272727 276.191415 
L 152.090909 275.105572 
L 154.71109 273.818182 
L 154.909091 273.723745 
L 157.727273 272.159316 
L 159.387337 271.072727 
L 160.545455 270.32033 
L 163.249445 268.327273 
L 163.363636 268.24305 
L 166.181818 266.017296 
L 166.701753 265.581818 
L 169 263.66055 
L 169.957969 262.836364 
L 171.818182 261.253202 
L 173.189516 260.090909 
L 174.636364 258.894773 
L 176.582597 257.345455 
L 177.454545 256.679948 
L 180.272727 254.690334 
L 180.418078 254.6 
L 183.090909 253.06556 
L 185.579562 251.854545 
L 185.909091 251.709027 
L 188.727273 250.76202 
L 191.545455 250.099231 
L 194.363636 249.700612 
L 197.181818 249.52036 
L 200 249.496863 
L 202.818182 249.564308 
L 205.636364 249.661811 
L 208.454545 249.738209 
L 211.272727 249.752922 
L 214.090909 249.674259 
L 216.909091 249.476557 
L 219.727273 249.137066 
L 219.888201 249.109091 
L 222.545455 248.707672 
L 225.363636 248.125325 
L 228.181818 247.361314 
L 231 246.384771 
L 231.052393 246.363636 
L 233.818182 245.342053 
L 236.636364 244.053988 
L 237.467138 243.618182 
L 239.454545 242.63324 
L 242.272727 240.970008 
L 242.42371 240.872727 
L 245.090909 239.201355 
L 246.594555 238.127273 
L 247.909091 237.196224 
L 250.217438 235.381818 
L 250.727273 234.977254 
L 253.453145 232.636364 
L 253.545455 232.555021 
L 256.363636 229.93635 
L 256.410735 229.890909 
L 259.143394 227.145455 
L 259.181818 227.104904 
L 261.710921 224.4 
L 262 224.071511 
L 264.13667 221.654545 
L 264.818182 220.829706 
L 266.436744 218.909091 
L 267.636364 217.376864 
L 268.617092 216.163636 
L 270.454545 213.700772 
L 270.674217 213.418182 
L 272.686986 210.672727 
L 273.272727 209.798295 
L 274.591823 207.927273 
L 276.090909 205.537065 
L 276.326415 205.181818 
L 277.985027 202.436364 
L 278.909091 200.655343 
L 279.442637 199.690909 
L 280.749253 196.945455 
L 281.727273 194.401829 
L 281.811172 194.2 
L 282.736338 191.454545 
L 283.407863 188.709091 
L 283.839316 185.963636 
L 284.035176 183.218182 
L 283.991014 180.472727 
L 283.693139 177.727273 
L 283.117803 174.981818 
L 282.230053 172.236364 
L 281.727273 171.07943 
L 281.042291 169.490909 
L 279.50482 166.745455 
L 278.909091 165.864396 
L 277.599125 164 
L 276.090909 162.17193 
L 275.286368 161.254545 
L 273.272727 159.16636 
L 272.59293 158.509091 
L 270.454545 156.503481 
L 269.618014 155.763636 
L 267.636364 153.945114 
L 266.602604 153.018182 
L 264.818182 151.228718 
L 263.894596 150.272727 
L 262 147.872572 
L 261.750896 147.527273 
L 260.287532 144.781818 
L 259.313095 142.036364 
L 259.181818 141.442039 
L 258.774542 139.290909 
L 258.481968 136.545455 
L 258.313034 133.8 
L 258.176647 131.054545 
L 257.997602 128.309091 
L 257.712499 125.563636 
L 257.264452 122.818182 
L 256.597497 120.072727 
L 256.363636 119.365208 
L 255.712936 117.327273 
L 254.520835 114.581818 
L 253.545455 112.855202 
L 252.955168 111.836364 
L 250.950735 109.090909 
L 250.727273 108.831002 
L 248.397435 106.345455 
L 247.909091 105.894822 
L 245.090909 103.603702 
L 245.085758 103.6 
L 242.272727 101.732802 
L 240.683054 100.854545 
L 239.454545 100.198211 
L 236.636364 98.90815 
L 234.546045 98.109091 
L 233.818182 97.824592 
L 231 96.8467 
L 228.181818 96.007085 
L 225.758089 95.363636 
L 225.363636 95.250162 
L 222.545455 94.471505 
L 219.727273 93.72914 
L 216.909091 92.998686 
L 215.472147 92.618182 
L 214.090909 92.206131 
L 211.272727 91.338396 
L 208.454545 90.454947 
L 206.631862 89.872727 
L 205.636364 89.514768 
L 202.818182 88.500884 
L 200 87.525286 
L 198.788562 87.127273 
L 197.181818 86.545778 
L 194.363636 85.623194 
L 191.545455 84.827965 
L 189.635039 84.381818 
L 188.727273 84.151912 
L 185.909091 83.600654 
L 183.090909 83.221898 
L 180.272727 83.011109 
L 177.454545 82.959934 
L 174.636364 83.055655 
L 171.818182 83.280402 
L 169 83.610525 
L 166.181818 84.016738 
L 163.880778 84.381818 
L 163.363636 84.461273 
L 160.545455 84.895145 
L 157.727273 85.308873 
L 154.909091 85.682741 
L 152.090909 86.01049 
L 149.272727 86.300973 
L 146.454545 86.577039 
L 143.636364 86.872521 
L 141.613101 87.127273 
L 140.818182 87.225819 
L 138 87.67584 
L 135.181818 88.278908 
L 132.363636 89.088444 
L 130.282548 89.872727 
L 129.545455 90.165653 
L 126.727273 91.586196 
L 125.102845 92.618182 
L 123.909091 93.470286 
L 121.724217 95.363636 
L 121.090909 96.01534 
L 119.328447 98.109091 
L 118.272727 99.694277 
L 117.570003 100.854545 
L 116.293299 103.6 
L 115.454545 106.12943 
L 115.385203 106.345455 
L 114.761436 109.090909 
L 114.361131 111.836364 
L 114.113457 114.581818 
L 113.94058 117.327273 
L 113.752901 120.072727 
L 113.446426 122.818182 
L 112.903343 125.563636 
L 112.636364 126.381339 
L 111.96125 128.309091 
L 110.494875 131.054545 
L 109.818182 131.954759 
L 108.349835 133.8 
L 107 135.109645 
L 105.479805 136.545455 
L 104.181818 137.56441 
L 102.020261 139.290909 
L 101.363636 139.755704 
L 98.545455 141.864814 
L 98.327758 142.036364 
L 95.727273 144.000706 
L 94.782653 144.781818 
L 92.909091 146.349801 
L 91.626611 147.527273 
L 90.090909 149.032634 
L 88.921294 150.272727 
L 87.272727 152.243206 
L 86.657918 153.018182 
L 84.792922 155.763636 
L 84.454545 156.363922 
L 83.252973 158.509091 
L 82.068949 161.254545 
L 81.636364 162.58969 
L 81.156699 164 
L 80.499927 166.745455 
L 80.113636 169.490909 
L 79.974405 172.236364 
L 80.070776 174.981818 
L 80.402296 177.727273 
L 80.979301 180.472727 
L 81.636364 182.633318 
L 81.800312 183.218182 
L 82.799684 185.963636 
L 84.094605 188.709091 
L 84.454545 189.355486 
L 85.581606 191.454545 
L 87.272727 194.063583 
L 87.359457 194.2 
L 89.291478 196.945455 
L 90.090909 197.965712 
L 91.43366 199.690909 
L 92.909091 201.453646 
L 93.726629 202.436364 
L 95.727273 204.760382 
L 96.08546 205.181818 
L 98.393595 207.927273 
L 98.545455 208.11721 
L 100.504077 210.672727 
L 101.363636 211.890448 
L 102.376458 213.418182 
L 103.946011 216.163636 
L 104.181818 216.684233 
L 105.091576 218.909091 
L 105.896593 221.654545 
L 106.390957 224.4 
L 106.611959 227.145455 
L 106.622491 229.890909 
L 106.496481 232.636364 
L 106.306278 235.381818 
L 106.115109 238.127273 
L 105.974708 240.872727 
L 105.926532 243.618182 
L 106.00485 246.363636 
L 106.240462 249.109091 
L 106.664491 251.854545 
L 107 253.309703 
L 107.280446 254.6 
L 108.104542 257.345455 
L 109.222714 260.090909 
L 109.818182 261.257434 
L 110.63823 262.836364 
L 112.434278 265.581818 
L 112.636364 265.847802 
L 114.679058 268.327273 
L 115.454545 269.137099 
L 117.567782 271.072727 
L 118.272727 271.656344 
L 121.090909 273.618135 
L 121.44116 273.818182 
L 123.909091 275.178439 
L 126.727273 276.343517 
L 127.439891 276.563636 
z
M 133.146354 265.581818 
L 132.363636 265.390682 
L 129.545455 264.28131 
L 127.032225 262.836364 
L 126.727273 262.639257 
L 123.909091 260.265011 
L 123.739633 260.090909 
L 121.509868 257.345455 
L 121.090909 256.688645 
L 119.909675 254.6 
L 118.76646 251.854545 
L 118.272727 250.159075 
L 117.980671 249.109091 
L 117.483554 246.363636 
L 117.224457 243.618182 
L 117.155361 240.872727 
L 117.228405 238.127273 
L 117.392426 235.381818 
L 117.590405 232.636364 
L 117.758442 229.890909 
L 117.827098 227.145455 
L 117.725758 224.4 
L 117.389972 221.654545 
L 116.770379 218.909091 
L 115.840594 216.163636 
L 115.454545 215.317002 
L 114.540407 213.418182 
L 112.923467 210.672727 
L 112.636364 210.255924 
L 110.968405 207.927273 
L 109.818182 206.461823 
L 108.783574 205.181818 
L 107 203.077929 
L 106.446283 202.436364 
L 104.181818 199.834864 
L 104.055595 199.690909 
L 101.694634 196.945455 
L 101.363636 196.539481 
L 99.463645 194.2 
L 98.545455 192.955653 
L 97.441892 191.454545 
L 95.727273 188.772757 
L 95.686479 188.709091 
L 94.163695 185.963636 
L 92.9637 183.218182 
L 92.909091 183.055555 
L 92.017593 180.472727 
L 91.381456 177.727273 
L 91.048848 174.981818 
L 91.020985 172.236364 
L 91.310542 169.490909 
L 91.942541 166.745455 
L 92.909091 164.119915 
L 92.954408 164 
L 94.363471 161.254545 
L 95.727273 159.242298 
L 96.265538 158.509091 
L 98.545455 155.955495 
L 98.737013 155.763636 
L 101.363636 153.444215 
L 101.915007 153.018182 
L 104.181818 151.375812 
L 105.930737 150.272727 
L 107 149.603201 
L 109.818182 148.018955 
L 110.777302 147.527273 
L 112.636364 146.510163 
L 115.454545 145.052121 
L 115.988544 144.781818 
L 118.272727 143.461783 
L 120.688508 142.036364 
L 121.090909 141.751771 
L 123.909091 139.667083 
L 124.391027 139.290909 
L 126.727273 137.012224 
L 127.185154 136.545455 
L 129.298446 133.8 
L 129.545455 133.377874 
L 130.914428 131.054545 
L 132.173443 128.309091 
L 132.363636 127.760891 
L 133.184591 125.563636 
L 134.040144 122.818182 
L 134.835138 120.072727 
L 135.181818 118.914752 
L 135.74911 117.327273 
L 136.989584 114.581818 
L 138 112.951419 
L 138.891265 111.836364 
L 140.818182 110.062348 
L 142.227594 109.090909 
L 143.636364 108.328304 
L 146.454545 107.118955 
L 148.593316 106.345455 
L 149.272727 106.136094 
L 152.090909 105.26733 
L 154.909091 104.371169 
L 157.170103 103.6 
L 157.727273 103.427458 
L 160.545455 102.448709 
L 163.363636 101.436799 
L 164.977075 100.854545 
L 166.181818 100.446733 
L 169 99.521733 
L 171.818182 98.711504 
L 174.404894 98.109091 
L 174.636364 98.056871 
L 177.454545 97.566152 
L 180.272727 97.265458 
L 183.090909 97.155903 
L 185.909091 97.228067 
L 188.727273 97.465399 
L 191.545455 97.847198 
L 192.996276 98.109091 
L 194.363636 98.328627 
L 197.181818 98.870963 
L 200 99.477841 
L 202.818182 100.134153 
L 205.636364 100.829055 
L 205.735873 100.854545 
L 208.454545 101.483389 
L 211.272727 102.164513 
L 214.090909 102.8819 
L 216.737185 103.6 
L 216.909091 103.644007 
L 219.727273 104.410739 
L 222.545455 105.271665 
L 225.363636 106.260142 
L 225.584283 106.345455 
L 228.181818 107.37148 
L 231 108.708155 
L 231.706403 109.090909 
L 233.818182 110.337959 
L 235.949496 111.836364 
L 236.636364 112.393049 
L 238.984352 114.581818 
L 239.454545 115.120919 
L 241.193938 117.327273 
L 242.272727 119.145204 
L 242.79086 120.072727 
L 243.926046 122.818182 
L 244.674571 125.563636 
L 245.090909 128.118752 
L 245.122714 128.309091 
L 245.355835 131.054545 
L 245.412914 133.8 
L 245.358539 136.545455 
L 245.262132 139.290909 
L 245.202952 142.036364 
L 245.274857 144.781818 
L 245.589879 147.527273 
L 246.278393 150.272727 
L 247.481778 153.018182 
L 247.909091 153.680138 
L 249.478973 155.763636 
L 250.727273 157.019059 
L 252.368899 158.509091 
L 253.545455 159.41548 
L 255.999035 161.254545 
L 256.363636 161.508011 
L 259.181818 163.538412 
L 259.783649 164 
L 262 165.747319 
L 263.145458 166.745455 
L 264.818182 168.358023 
L 265.878725 169.490909 
L 267.636364 171.738899 
L 267.993765 172.236364 
L 269.567673 174.981818 
L 270.454545 177.181857 
L 270.66609 177.727273 
L 271.367815 180.472727 
L 271.700814 183.218182 
L 271.705468 185.963636 
L 271.411434 188.709091 
L 270.838157 191.454545 
L 270.454545 192.711307 
L 270.030997 194.2 
L 269.018005 196.945455 
L 267.76904 199.690909 
L 267.636364 199.94271 
L 266.398263 202.436364 
L 264.818182 205.17532 
L 264.81463 205.181818 
L 263.15783 207.927273 
L 262 209.638016 
L 261.3271 210.672727 
L 259.355118 213.418182 
L 259.181818 213.643079 
L 257.277046 216.163636 
L 256.363636 217.271288 
L 255.015845 218.909091 
L 253.545455 220.559645 
L 252.552136 221.654545 
L 250.727273 223.531767 
L 249.847985 224.4 
L 247.909091 226.210016 
L 246.838938 227.145455 
L 245.090909 228.612739 
L 243.420601 229.890909 
L 242.272727 230.749582 
L 239.454545 232.618758 
L 239.4251 232.636364 
L 236.636364 234.309911 
L 234.505097 235.381818 
L 233.818182 235.736169 
L 231 236.985012 
L 228.181818 237.984352 
L 227.682944 238.127273 
L 225.363636 238.836378 
L 222.545455 239.485764 
L 219.727273 239.940042 
L 216.909091 240.218402 
L 214.090909 240.337776 
L 211.272727 240.315319 
L 208.454545 240.171209 
L 205.636364 239.931782 
L 202.818182 239.632698 
L 200 239.321428 
L 197.181818 239.057862 
L 194.363636 238.911618 
L 191.545455 238.955156 
L 188.727273 239.253404 
L 185.909091 239.852778 
L 183.090909 240.773865 
L 182.864333 240.872727 
L 180.272727 242.074852 
L 177.538236 243.618182 
L 177.454545 243.667998 
L 174.636364 245.58607 
L 173.593183 246.363636 
L 171.818182 247.731506 
L 170.120953 249.109091 
L 169 250.040495 
L 166.858202 251.854545 
L 166.181818 252.434858 
L 163.627859 254.6 
L 163.363636 254.824635 
L 160.545455 257.126404 
L 160.258884 257.345455 
L 157.727273 259.263223 
L 156.507067 260.090909 
L 154.909091 261.163738 
L 152.090909 262.781583 
L 151.976513 262.836364 
L 149.272727 264.126952 
L 146.454545 265.151438 
L 144.755186 265.581818 
L 143.636364 265.869976 
L 140.818182 266.273009 
L 138 266.341685 
L 135.181818 266.058434 
z
" style="fill:#c8dff0;"/>
   </g>
   <g id="PathCollection_3">
    <path clip-path="url(#p6880ea3d7e)" d="M 135.181818 266.058434 
L 138 266.341685 
L 140.818182 266.273009 
L 143.636364 265.869976 
L 144.755186 265.581818 
L 146.454545 265.151438 
L 149.272727 264.126952 
L 151.976513 262.836364 
L 152.090909 262.781583 
L 154.909091 261.163738 
L 156.507067 260.090909 
L 157.727273 259.263223 
L 160.258884 257.345455 
L 160.545455 257.126404 
L 163.363636 254.824635 
L 163.627859 254.6 
L 166.181818 252.434858 
L 166.858202 251.854545 
L 169 250.040495 
L 170.120953 249.109091 
L 171.818182 247.731506 
L 173.593183 246.363636 
L 174.636364 245.58607 
L 177.454545 243.667998 
L 177.538236 243.618182 
L 180.272727 242.074852 
L 182.864333 240.872727 
L 183.090909 240.773865 
L 185.909091 239.852778 
L 188.727273 239.253404 
L 191.545455 238.955156 
L 194.363636 238.911618 
L 197.181818 239.057862 
L 200 239.321428 
L 202.818182 239.632698 
L 205.636364 239.931782 
L 208.454545 240.171209 
L 211.272727 240.315319 
L 214.090909 240.337776 
L 216.909091 240.218402 
L 219.727273 239.940042 
L 222.545455 239.485764 
L 225.363636 238.836378 
L 227.682944 238.127273 
L 228.181818 237.984352 
L 231 236.985012 
L 233.818182 235.736169 
L 234.505097 235.381818 
L 236.636364 234.309911 
L 239.4251 232.636364 
L 239.454545 232.618758 
L 242.272727 230.749582 
L 243.420601 229.890909 
L 245.090909 228.612739 
L 246.838938 227.145455 
L 247.909091 226.210016 
L 249.847985 224.4 
L 250.727273 223.531767 
L 252.552136 221.654545 
L 253.545455 220.559645 
L 255.015845 218.909091 
L 256.363636 217.271288 
L 257.277046 216.163636 
L 259.181818 213.643079 
L 259.355118 213.418182 
L 261.3271 210.672727 
L 262 209.638016 
L 263.15783 207.927273 
L 264.81463 205.181818 
L 264.818182 205.17532 
L 266.398263 202.436364 
L 267.636364 199.94271 
L 267.76904 199.690909 
L 269.018005 196.945455 
L 270.030997 194.2 
L 270.454545 192.711307 
L 270.838157 191.454545 
L 271.411434 188.709091 
L 271.705468 185.963636 
L 271.700814 183.218182 
L 271.367815 180.472727 
L 270.66609 177.727273 
L 270.454545 177.181857 
L 269.567673 174.981818 
L 267.993765 172.236364 
L 267.636364 171.738899 
L 265.878725 169.490909 
L 264.818182 168.358023 
L 263.145458 166.745455 
L 262 165.747319 
L 259.783649 164 
L 259.181818 163.538412 
L 256.363636 161.508011 
L 255.999035 161.254545 
L 253.545455 159.41548 
L 252.368899 158.509091 
L 250.727273 157.019059 
L 249.478973 155.763636 
L 247.909091 153.680138 
L 247.481778 153.018182 
L 246.278393 150.272727 
L 245.589879 147.527273 
L 245.274857 144.781818 
L 245.202952 142.036364 
L 245.262132 139.290909 
L 245.358539 136.545455 
L 245.412914 133.8 
L 245.355835 131.054545 
L 245.122714 128.309091 
L 245.090909 128.118752 
L 244.674571 125.563636 
L 243.926046 122.818182 
L 242.79086 120.072727 
L 242.272727 119.145204 
L 241.193938 117.327273 
L 239.454545 115.120919 
L 238.984352 114.581818 
L 236.636364 112.393049 
L 235.949496 111.836364 
L 233.818182 110.337959 
L 231.706403 109.090909 
L 231 108.708155 
L 228.181818 107.37148 
L 225.584283 106.345455 
L 225.363636 106.260142 
L 222.545455 105.271665 
L 219.727273 104.410739 
L 216.909091 103.644007 
L 216.737185 103.6 
L 214.090909 102.8819 
L 211.272727 102.164513 
L 208.454545 101.483389 
L 205.735873 100.854545 
L 205.636364 100.829055 
L 202.818182 100.134153 
L 200 99.477841 
L 197.181818 98.870963 
L 194.363636 98.328627 
L 192.996276 98.109091 
L 191.545455 97.847198 
L 188.727273 97.465399 
L 185.909091 97.228067 
L 183.090909 97.155903 
L 180.272727 97.265458 
L 177.454545 97.566152 
L 174.636364 98.056871 
L 174.404894 98.109091 
L 171.818182 98.711504 
L 169 99.521733 
L 166.181818 100.446733 
L 164.977075 100.854545 
L 163.363636 101.436799 
L 160.545455 102.448709 
L 157.727273 103.427458 
L 157.170103 103.6 
L 154.909091 104.371169 
L 152.090909 105.26733 
L 149.272727 106.136094 
L 148.593316 106.345455 
L 146.454545 107.118955 
L 143.636364 108.328304 
L 142.227594 109.090909 
L 140.818182 110.062348 
L 138.891265 111.836364 
L 138 112.951419 
L 136.989584 114.581818 
L 135.74911 117.327273 
L 135.181818 118.914752 
L 134.835138 120.072727 
L 134.040144 122.818182 
L 133.184591 125.563636 
L 132.363636 127.760891 
L 132.173443 128.309091 
L 130.914428 131.054545 
L 129.545455 133.377874 
L 129.298446 133.8 
L 127.185154 136.545455 
L 126.727273 137.012224 
L 124.391027 139.290909 
L 123.909091 139.667083 
L 121.090909 141.751771 
L 120.688508 142.036364 
L 118.272727 143.461783 
L 115.988544 144.781818 
L 115.454545 145.052121 
L 112.636364 146.510163 
L 110.777302 147.527273 
L 109.818182 148.018955 
L 107 149.603201 
L 105.930737 150.272727 
L 104.181818 151.375812 
L 101.915007 153.018182 
L 101.363636 153.444215 
L 98.737013 155.763636 
L 98.545455 155.955495 
L 96.265538 158.509091 
L 95.727273 159.242298 
L 94.363471 161.254545 
L 92.954408 164 
L 92.909091 164.119915 
L 91.942541 166.745455 
L 91.310542 169.490909 
L 91.020985 172.236364 
L 91.048848 174.981818 
L 91.381456 177.727273 
L 92.017593 180.472727 
L 92.909091 183.055555 
L 92.9637 183.218182 
L 94.163695 185.963636 
L 95.686479 188.709091 
L 95.727273 188.772757 
L 97.441892 191.454545 
L 98.545455 192.955653 
L 99.463645 194.2 
L 101.363636 196.539481 
L 101.694634 196.945455 
L 104.055595 199.690909 
L 104.181818 199.834864 
L 106.446283 202.436364 
L 107 203.077929 
L 108.783574 205.181818 
L 109.818182 206.461823 
L 110.968405 207.927273 
L 112.636364 210.255924 
L 112.923467 210.672727 
L 114.540407 213.418182 
L 115.454545 215.317002 
L 115.840594 216.163636 
L 116.770379 218.909091 
L 117.389972 221.654545 
L 117.725758 224.4 
L 117.827098 227.145455 
L 117.758442 229.890909 
L 117.590405 232.636364 
L 117.392426 235.381818 
L 117.228405 238.127273 
L 117.155361 240.872727 
L 117.224457 243.618182 
L 117.483554 246.363636 
L 117.980671 249.109091 
L 118.272727 250.159075 
L 118.76646 251.854545 
L 119.909675 254.6 
L 121.090909 256.688645 
L 121.509868 257.345455 
L 123.739633 260.090909 
L 123.909091 260.265011 
L 126.727273 262.639257 
L 127.032225 262.836364 
L 129.545455 264.28131 
L 132.363636 265.390682 
L 133.146354 265.581818 
z
M 135.482466 254.6 
L 135.181818 254.491755 
L 132.363636 252.714579 
L 131.440405 251.854545 
L 129.545455 249.5076 
L 129.296147 249.109091 
L 128.053957 246.363636 
L 127.279578 243.618182 
L 126.860213 240.872727 
L 126.727273 238.664279 
L 126.698016 238.127273 
L 126.698769 235.381818 
L 126.727273 234.399678 
L 126.778998 232.636364 
L 126.860617 229.890909 
L 126.866691 227.145455 
L 126.727595 224.4 
L 126.727273 224.39747 
L 126.382705 221.654545 
L 125.780083 218.909091 
L 124.887332 216.163636 
L 123.909091 213.919387 
L 123.68725 213.418182 
L 122.166603 210.672727 
L 121.090909 209.023632 
L 120.360089 207.927273 
L 118.309561 205.181818 
L 118.272727 205.136288 
L 116.049348 202.436364 
L 115.454545 201.740435 
L 113.67843 199.690909 
L 112.636364 198.490153 
L 111.28562 196.945455 
L 109.818182 195.209543 
L 108.964146 194.2 
L 107 191.707615 
L 106.801518 191.454545 
L 104.859334 188.709091 
L 104.181818 187.594331 
L 103.197912 185.963636 
L 101.856212 183.218182 
L 101.363636 181.873793 
L 100.850321 180.472727 
L 100.204285 177.727273 
L 99.936076 174.981818 
L 100.06921 172.236364 
L 100.639244 169.490909 
L 101.363636 167.575905 
L 101.705433 166.745455 
L 103.367411 164 
L 104.181818 162.98446 
L 105.770736 161.254545 
L 107 160.151826 
L 109.150401 158.509091 
L 109.818182 158.054572 
L 112.636364 156.400488 
L 113.899853 155.763636 
L 115.454545 155.004397 
L 118.272727 153.774785 
L 120.150504 153.018182 
L 121.090909 152.623873 
L 123.909091 151.46448 
L 126.723907 150.272727 
L 126.727273 150.271158 
L 129.545455 148.873317 
L 132.005814 147.527273 
L 132.363636 147.304573 
L 135.181818 145.384267 
L 135.988638 144.781818 
L 138 143.081562 
L 139.157805 142.036364 
L 140.818182 140.369843 
L 141.85471 139.290909 
L 143.636364 137.298069 
L 144.302181 136.545455 
L 146.454545 134.037193 
L 146.659873 133.8 
L 149.030346 131.054545 
L 149.272727 130.776658 
L 151.509475 128.309091 
L 152.090909 127.694198 
L 154.184463 125.563636 
L 154.909091 124.863616 
L 157.100274 122.818182 
L 157.727273 122.263212 
L 160.282042 120.072727 
L 160.545455 119.857939 
L 163.363636 117.606059 
L 163.725884 117.327273 
L 166.181818 115.509645 
L 167.536224 114.581818 
L 169 113.614027 
L 171.818182 111.95021 
L 172.0324 111.836364 
L 174.636364 110.485323 
L 177.454545 109.314119 
L 178.118129 109.090909 
L 180.272727 108.371728 
L 183.090909 107.683732 
L 185.909091 107.237285 
L 188.727273 107.00009 
L 191.545455 106.941119 
L 194.363636 107.032766 
L 197.181818 107.252072 
L 200 107.581329 
L 202.818182 108.008334 
L 205.636364 108.526507 
L 208.252503 109.090909 
L 208.454545 109.132033 
L 211.272727 109.792046 
L 214.090909 110.560922 
L 216.909091 111.459826 
L 217.948005 111.836364 
L 219.727273 112.502645 
L 222.545455 113.748558 
L 224.149125 114.581818 
L 225.363636 115.282975 
L 228.181818 117.222371 
L 228.316181 117.327273 
L 231 119.868317 
L 231.189403 120.072727 
L 233.193326 122.818182 
L 233.818182 124.018561 
L 234.569416 125.563636 
L 235.472406 128.309091 
L 236.005277 131.054545 
L 236.260705 133.8 
L 236.316173 136.545455 
L 236.239241 139.290909 
L 236.092397 142.036364 
L 235.937811 144.781818 
L 235.842225 147.527273 
L 235.882142 150.272727 
L 236.14912 153.018182 
L 236.636364 155.25578 
L 236.768443 155.763636 
L 237.970636 158.509091 
L 239.454545 160.714802 
L 239.888165 161.254545 
L 242.272727 163.529129 
L 242.837591 164 
L 245.090909 165.614296 
L 246.764317 166.745455 
L 247.909091 167.473998 
L 250.727273 169.314959 
L 250.983782 169.490909 
L 253.545455 171.339304 
L 254.658569 172.236364 
L 256.363636 173.808186 
L 257.489608 174.981818 
L 259.181818 177.208379 
L 259.535569 177.727273 
L 260.921378 180.472727 
L 261.769897 183.218182 
L 262 184.773398 
L 262.16879 185.963636 
L 262.185896 188.709091 
L 262 190.293707 
L 261.872917 191.454545 
L 261.285565 194.2 
L 260.446321 196.945455 
L 259.368681 199.690909 
L 259.181818 200.084593 
L 258.122177 202.436364 
L 256.669242 205.181818 
L 256.363636 205.690096 
L 255.063312 207.927273 
L 253.545455 210.221365 
L 253.251914 210.672727 
L 251.263485 213.418182 
L 250.727273 214.089316 
L 249.049227 216.163636 
L 247.909091 217.445483 
L 246.558848 218.909091 
L 245.090909 220.375579 
L 243.727101 221.654545 
L 242.272727 222.931965 
L 240.439544 224.4 
L 239.454545 225.152668 
L 236.636364 227.060715 
L 236.494616 227.145455 
L 233.818182 228.712834 
L 231.388417 229.890909 
L 231 230.079697 
L 228.181818 231.22626 
L 225.363636 232.115471 
L 223.134925 232.636364 
L 222.545455 232.780048 
L 219.727273 233.246952 
L 216.909091 233.499263 
L 214.090909 233.552608 
L 211.272727 233.423012 
L 208.454545 233.13006 
L 205.636364 232.700511 
L 205.281842 232.636364 
L 202.818182 232.191388 
L 200 231.637682 
L 197.181818 231.100574 
L 194.363636 230.656567 
L 191.545455 230.387941 
L 188.727273 230.371982 
L 185.909091 230.668802 
L 183.090909 231.312014 
L 180.272727 232.306036 
L 179.558606 232.636364 
L 177.454545 233.645846 
L 174.636364 235.279052 
L 174.479063 235.381818 
L 171.818182 237.175787 
L 170.51684 238.127273 
L 169 239.2689 
L 166.961234 240.872727 
L 166.181818 241.501107 
L 163.590811 243.618182 
L 163.363636 243.807149 
L 160.545455 246.110032 
L 160.220893 246.363636 
L 157.727273 248.32156 
L 156.641129 249.109091 
L 154.909091 250.357549 
L 152.556549 251.854545 
L 152.090909 252.146546 
L 149.272727 253.604676 
L 146.754637 254.6 
L 146.454545 254.716094 
L 143.636364 255.397976 
L 140.818182 255.635923 
L 138 255.366317 
z
" style="fill:#b1d1e7;"/>
   </g>
   <g id="PathCollection_4">
    <path clip-path="url(#p6880ea3d7e)" d="M 138 255.366317 
L 140.818182 255.635923 
L 143.636364 255.397976 
L 146.454545 254.716094 
L 146.754637 254.6 
L 149.272727 253.604676 
L 152.090909 252.146546 
L 152.556549 251.854545 
L 154.909091 250.357549 
L 156.641129 249.109091 
L 157.727273 248.32156 
L 160.220893 246.363636 
L 160.545455 246.110032 
L 163.363636 243.807149 
L 163.590811 243.618182 
L 166.181818 241.501107 
L 166.961234 240.872727 
L 169 239.2689 
L 170.51684 238.127273 
L 171.818182 237.175787 
L 174.479063 235.381818 
L 174.636364 235.279052 
L 177.454545 233.645846 
L 179.558606 232.636364 
L 180.272727 232.306036 
L 183.090909 231.312014 
L 185.909091 230.668802 
L 188.727273 230.371982 
L 191.545455 230.387941 
L 194.363636 230.656567 
L 197.181818 231.100574 
L 200 231.637682 
L 202.818182 232.191388 
L 205.281842 232.636364 
L 205.636364 232.700511 
L 208.454545 233.13006 
L 211.272727 233.423012 
L 214.090909 233.552608 
L 216.909091 233.499263 
L 219.727273 233.246952 
L 222.545455 232.780048 
L 223.134925 232.636364 
L 225.363636 232.115471 
L 228.181818 231.22626 
L 231 230.079697 
L 231.388417 229.890909 
L 233.818182 228.712834 
L 236.494616 227.145455 
L 236.636364 227.060715 
L 239.454545 225.152668 
L 240.439544 224.4 
L 242.272727 222.931965 
L 243.727101 221.654545 
L 245.090909 220.375579 
L 246.558848 218.909091 
L 247.909091 217.445483 
L 249.049227 216.163636 
L 250.727273 214.089316 
L 251.263485 213.418182 
L 253.251914 210.672727 
L 253.545455 210.221365 
L 255.063312 207.927273 
L 256.363636 205.690096 
L 256.669242 205.181818 
L 258.122177 202.436364 
L 259.181818 200.084593 
L 259.368681 199.690909 
L 260.446321 196.945455 
L 261.285565 194.2 
L 261.872917 191.454545 
L 262 190.293707 
L 262.185896 188.709091 
L 262.16879 185.963636 
L 262 184.773398 
L 261.769897 183.218182 
L 260.921378 180.472727 
L 259.535569 177.727273 
L 259.181818 177.208379 
L 257.489608 174.981818 
L 256.363636 173.808186 
L 254.658569 172.236364 
L 253.545455 171.339304 
L 250.983782 169.490909 
L 250.727273 169.314959 
L 247.909091 167.473998 
L 246.764317 166.745455 
L 245.090909 165.614296 
L 242.837591 164 
L 242.272727 163.529129 
L 239.888165 161.254545 
L 239.454545 160.714802 
L 237.970636 158.509091 
L 236.768443 155.763636 
L 236.636364 155.25578 
L 236.14912 153.018182 
L 235.882142 150.272727 
L 235.842225 147.527273 
L 235.937811 144.781818 
L 236.092397 142.036364 
L 236.239241 139.290909 
L 236.316173 136.545455 
L 236.260705 133.8 
L 236.005277 131.054545 
L 235.472406 128.309091 
L 234.569416 125.563636 
L 233.818182 124.018561 
L 233.193326 122.818182 
L 231.189403 120.072727 
L 231 119.868317 
L 228.316181 117.327273 
L 228.181818 117.222371 
L 225.363636 115.282975 
L 224.149125 114.581818 
L 222.545455 113.748558 
L 219.727273 112.502645 
L 217.948005 111.836364 
L 216.909091 111.459826 
L 214.090909 110.560922 
L 211.272727 109.792046 
L 208.454545 109.132033 
L 208.252503 109.090909 
L 205.636364 108.526507 
L 202.818182 108.008334 
L 200 107.581329 
L 197.181818 107.252072 
L 194.363636 107.032766 
L 191.545455 106.941119 
L 188.727273 107.00009 
L 185.909091 107.237285 
L 183.090909 107.683732 
L 180.272727 108.371728 
L 178.118129 109.090909 
L 177.454545 109.314119 
L 174.636364 110.485323 
L 172.0324 111.836364 
L 171.818182 111.95021 
L 169 113.614027 
L 167.536224 114.581818 
L 166.181818 115.509645 
L 163.725884 117.327273 
L 163.363636 117.606059 
L 160.545455 119.857939 
L 160.282042 120.072727 
L 157.727273 122.263212 
L 157.100274 122.818182 
L 154.909091 124.863616 
L 154.184463 125.563636 
L 152.090909 127.694198 
L 151.509475 128.309091 
L 149.272727 130.776658 
L 149.030346 131.054545 
L 146.659873 133.8 
L 146.454545 134.037193 
L 144.302181 136.545455 
L 143.636364 137.298069 
L 141.85471 139.290909 
L 140.818182 140.369843 
L 139.157805 142.036364 
L 138 143.081562 
L 135.988638 144.781818 
L 135.181818 145.384267 
L 132.363636 147.304573 
L 132.005814 147.527273 
L 129.545455 148.873317 
L 126.727273 150.271158 
L 126.723907 150.272727 
L 123.909091 151.46448 
L 121.090909 152.623873 
L 120.150504 153.018182 
L 118.272727 153.774785 
L 115.454545 155.004397 
L 113.899853 155.763636 
L 112.636364 156.400488 
L 109.818182 158.054572 
L 109.150401 158.509091 
L 107 160.151826 
L 105.770736 161.254545 
L 104.181818 162.98446 
L 103.367411 164 
L 101.705433 166.745455 
L 101.363636 167.575905 
L 100.639244 169.490909 
L 100.06921 172.236364 
L 99.936076 174.981818 
L 100.204285 177.727273 
L 100.850321 180.472727 
L 101.363636 181.873793 
L 101.856212 183.218182 
L 103.197912 185.963636 
L 104.181818 187.594331 
L 104.859334 188.709091 
L 106.801518 191.454545 
L 107 191.707615 
L 108.964146 194.2 
L 109.818182 195.209543 
L 111.28562 196.945455 
L 112.636364 198.490153 
L 113.67843 199.690909 
L 115.454545 201.740435 
L 116.049348 202.436364 
L 118.272727 205.136288 
L 118.309561 205.181818 
L 120.360089 207.927273 
L 121.090909 209.023632 
L 122.166603 210.672727 
L 123.68725 213.418182 
L 123.909091 213.919387 
L 124.887332 216.163636 
L 125.780083 218.909091 
L 126.382705 221.654545 
L 126.727273 224.39747 
L 126.727595 224.4 
L 126.866691 227.145455 
L 126.860617 229.890909 
L 126.778998 232.636364 
L 126.727273 234.399678 
L 126.698769 235.381818 
L 126.698016 238.127273 
L 126.727273 238.664279 
L 126.860213 240.872727 
L 127.279578 243.618182 
L 128.053957 246.363636 
L 129.296147 249.109091 
L 129.545455 249.5076 
L 131.440405 251.854545 
L 132.363636 252.714579 
L 135.181818 254.491755 
L 135.482466 254.6 
z
M 141.806431 240.872727 
L 140.818182 240.255548 
L 139.188365 238.127273 
L 138 235.529676 
L 137.95403 235.381818 
L 137.347132 232.636364 
L 136.898481 229.890909 
L 136.47603 227.145455 
L 135.978315 224.4 
L 135.327202 221.654545 
L 135.181818 221.205537 
L 134.51062 218.909091 
L 133.454661 216.163636 
L 132.363636 213.912022 
L 132.135085 213.418182 
L 130.580469 210.672727 
L 129.545455 209.104706 
L 128.779277 207.927273 
L 126.772275 205.181818 
L 126.727273 205.12481 
L 124.599425 202.436364 
L 123.909091 201.600686 
L 122.315485 199.690909 
L 121.090909 198.236569 
L 119.990131 196.945455 
L 118.272727 194.881158 
L 117.699927 194.2 
L 115.525418 191.454545 
L 115.454545 191.35545 
L 113.552299 188.709091 
L 112.636364 187.233606 
L 111.84927 185.963636 
L 110.483954 183.218182 
L 109.818182 181.356101 
L 109.504824 180.472727 
L 108.979211 177.727273 
L 108.946704 174.981818 
L 109.478981 172.236364 
L 109.818182 171.413522 
L 110.732132 169.490909 
L 112.636364 166.992033 
L 112.860468 166.745455 
L 115.454545 164.592913 
L 116.319766 164 
L 118.272727 162.869548 
L 121.090909 161.490761 
L 121.634246 161.254545 
L 123.909091 160.330318 
L 126.727273 159.25192 
L 128.672228 158.509091 
L 129.545455 158.173267 
L 132.363636 157.018294 
L 135.124729 155.763636 
L 135.181818 155.736158 
L 138 154.211007 
L 139.935294 153.018182 
L 140.818182 152.428783 
L 143.636364 150.317207 
L 143.68981 150.272727 
L 146.454545 147.805189 
L 146.740343 147.527273 
L 149.272727 144.939177 
L 149.41694 144.781818 
L 151.876982 142.036364 
L 152.090909 141.795677 
L 154.241987 139.290909 
L 154.909091 138.532629 
L 156.618734 136.545455 
L 157.727273 135.314147 
L 159.074667 133.8 
L 160.545455 132.237591 
L 161.659538 131.054545 
L 163.363636 129.347509 
L 164.41737 128.309091 
L 166.181818 126.662481 
L 167.405516 125.563636 
L 169 124.197924 
L 170.725066 122.818182 
L 171.818182 121.976894 
L 174.57485 120.072727 
L 174.636364 120.031457 
L 177.454545 118.325728 
L 179.4687 117.327273 
L 180.272727 116.93448 
L 183.090909 115.80441 
L 185.909091 114.96885 
L 187.758097 114.581818 
L 188.727273 114.376368 
L 191.545455 113.99749 
L 194.363636 113.829382 
L 197.181818 113.847056 
L 200 114.03253 
L 202.818182 114.375022 
L 204.000078 114.581818 
L 205.636364 114.859484 
L 208.454545 115.493238 
L 211.272727 116.302446 
L 214.090909 117.31388 
L 214.123004 117.327273 
L 216.909091 118.584886 
L 219.543009 120.072727 
L 219.727273 120.192553 
L 222.545455 122.358865 
L 223.054528 122.818182 
L 225.363636 125.485175 
L 225.423528 125.563636 
L 227.017228 128.309091 
L 228.048395 131.054545 
L 228.181818 131.6222 
L 228.675133 133.8 
L 228.992392 136.545455 
L 229.080042 139.290909 
L 229.006913 142.036364 
L 228.833143 144.781818 
L 228.615481 147.527273 
L 228.412573 150.272727 
L 228.290576 153.018182 
L 228.329344 155.763636 
L 228.629086 158.509091 
L 229.316663 161.254545 
L 230.549006 164 
L 231 164.68267 
L 232.631245 166.745455 
L 233.818182 167.879734 
L 235.774339 169.490909 
L 236.636364 170.099531 
L 239.454545 171.945045 
L 239.914962 172.236364 
L 242.272727 173.698137 
L 244.240704 174.981818 
L 245.090909 175.574957 
L 247.845094 177.727273 
L 247.909091 177.78615 
L 250.456969 180.472727 
L 250.727273 180.852188 
L 252.210912 183.218182 
L 253.293483 185.963636 
L 253.545455 187.201918 
L 253.827974 188.709091 
L 253.920639 191.454545 
L 253.644198 194.2 
L 253.545455 194.642361 
L 253.057763 196.945455 
L 252.199161 199.690909 
L 251.083351 202.436364 
L 250.727273 203.148886 
L 249.734733 205.181818 
L 248.140999 207.927273 
L 247.909091 208.274401 
L 246.294828 210.672727 
L 245.090909 212.236639 
L 244.150437 213.418182 
L 242.272727 215.51295 
L 241.651684 216.163636 
L 239.454545 218.245426 
L 238.683948 218.909091 
L 236.636364 220.537379 
L 235.033566 221.654545 
L 233.818182 222.45479 
L 231 224.03082 
L 230.198705 224.4 
L 228.181818 225.304273 
L 225.363636 226.286996 
L 222.545455 226.997132 
L 221.621884 227.145455 
L 219.727273 227.453664 
L 216.909091 227.660842 
L 214.090909 227.629089 
L 211.272727 227.372526 
L 209.865981 227.145455 
L 208.454545 226.91101 
L 205.636364 226.271922 
L 202.818182 225.494667 
L 200 224.636839 
L 199.199607 224.4 
L 197.181818 223.763358 
L 194.363636 222.974511 
L 191.545455 222.371497 
L 188.727273 222.042711 
L 185.909091 222.054048 
L 183.090909 222.438763 
L 180.272727 223.194727 
L 177.454545 224.289644 
L 177.223965 224.4 
L 174.636364 225.668313 
L 172.04116 227.145455 
L 171.818182 227.276271 
L 169 229.052863 
L 167.722332 229.890909 
L 166.181818 230.943664 
L 163.728162 232.636364 
L 163.363636 232.898831 
L 160.545455 234.856501 
L 159.73721 235.381818 
L 157.727273 236.751738 
L 155.518142 238.127273 
L 154.909091 238.520795 
L 152.090909 240.033161 
L 150.052231 240.872727 
L 149.272727 241.199572 
L 146.454545 241.807184 
L 143.636364 241.666793 
z
" style="fill:#9bc3e0;"/>
   </g>
   <g id="PathCollection_5">
    <path clip-path="url(#p6880ea3d7e)" d="M 143.636364 241.666793 
L 146.454545 241.807184 
L 149.272727 241.199572 
L 150.052231 240.872727 
L 152.090909 240.033161 
L 154.909091 238.520795 
L 155.518142 238.127273 
L 157.727273 236.751738 
L 159.73721 235.381818 
L 160.545455 234.856501 
L 163.363636 232.898831 
L 163.728162 232.636364 
L 166.181818 230.943664 
L 167.722332 229.890909 
L 169 229.052863 
L 171.818182 227.276271 
L 172.04116 227.145455 
L 174.636364 225.668313 
L 177.223965 224.4 
L 177.454545 224.289644 
L 180.272727 223.194727 
L 183.090909 222.438763 
L 185.909091 222.054048 
L 188.727273 222.042711 
L 191.545455 222.371497 
L 194.363636 222.974511 
L 197.181818 223.763358 
L 199.199607 224.4 
L 200 224.636839 
L 202.818182 225.494667 
L 205.636364 226.271922 
L 208.454545 226.91101 
L 209.865981 227.145455 
L 211.272727 227.372526 
L 214.090909 227.629089 
L 216.909091 227.660842 
L 219.727273 227.453664 
L 221.621884 227.145455 
L 222.545455 226.997132 
L 225.363636 226.286996 
L 228.181818 225.304273 
L 230.198705 224.4 
L 231 224.03082 
L 233.818182 222.45479 
L 235.033566 221.654545 
L 236.636364 220.537379 
L 238.683948 218.909091 
L 239.454545 218.245426 
L 241.651684 216.163636 
L 242.272727 215.51295 
L 244.150437 213.418182 
L 245.090909 212.236639 
L 246.294828 210.672727 
L 247.909091 208.274401 
L 248.140999 207.927273 
L 249.734733 205.181818 
L 250.727273 203.148886 
L 251.083351 202.436364 
L 252.199161 199.690909 
L 253.057763 196.945455 
L 253.545455 194.642361 
L 253.644198 194.2 
L 253.920639 191.454545 
L 253.827974 188.709091 
L 253.545455 187.201918 
L 253.293483 185.963636 
L 252.210912 183.218182 
L 250.727273 180.852188 
L 250.456969 180.472727 
L 247.909091 177.78615 
L 247.845094 177.727273 
L 245.090909 175.574957 
L 244.240704 174.981818 
L 242.272727 173.698137 
L 239.914962 172.236364 
L 239.454545 171.945045 
L 236.636364 170.099531 
L 235.774339 169.490909 
L 233.818182 167.879734 
L 232.631245 166.745455 
L 231 164.68267 
L 230.549006 164 
L 229.316663 161.254545 
L 228.629086 158.509091 
L 228.329344 155.763636 
L 228.290576 153.018182 
L 228.412573 150.272727 
L 228.615481 147.527273 
L 228.833143 144.781818 
L 229.006913 142.036364 
L 229.080042 139.290909 
L 228.992392 136.545455 
L 228.675133 133.8 
L 228.181818 131.6222 
L 228.048395 131.054545 
L 227.017228 128.309091 
L 225.423528 125.563636 
L 225.363636 125.485175 
L 223.054528 122.818182 
L 222.545455 122.358865 
L 219.727273 120.192553 
L 219.543009 120.072727 
L 216.909091 118.584886 
L 214.123004 117.327273 
L 214.090909 117.31388 
L 211.272727 116.302446 
L 208.454545 115.493238 
L 205.636364 114.859484 
L 204.000078 114.581818 
L 202.818182 114.375022 
L 200 114.03253 
L 197.181818 113.847056 
L 194.363636 113.829382 
L 191.545455 113.99749 
L 188.727273 114.376368 
L 187.758097 114.581818 
L 185.909091 114.96885 
L 183.090909 115.80441 
L 180.272727 116.93448 
L 179.4687 117.327273 
L 177.454545 118.325728 
L 174.636364 120.031457 
L 174.57485 120.072727 
L 171.818182 121.976894 
L 170.725066 122.818182 
L 169 124.197924 
L 167.405516 125.563636 
L 166.181818 126.662481 
L 164.41737 128.309091 
L 163.363636 129.347509 
L 161.659538 131.054545 
L 160.545455 132.237591 
L 159.074667 133.8 
L 157.727273 135.314147 
L 156.618734 136.545455 
L 154.909091 138.532629 
L 154.241987 139.290909 
L 152.090909 141.795677 
L 151.876982 142.036364 
L 149.41694 144.781818 
L 149.272727 144.939177 
L 146.740343 147.527273 
L 146.454545 147.805189 
L 143.68981 150.272727 
L 143.636364 150.317207 
L 140.818182 152.428783 
L 139.935294 153.018182 
L 138 154.211007 
L 135.181818 155.736158 
L 135.124729 155.763636 
L 132.363636 157.018294 
L 129.545455 158.173267 
L 128.672228 158.509091 
L 126.727273 159.25192 
L 123.909091 160.330318 
L 121.634246 161.254545 
L 121.090909 161.490761 
L 118.272727 162.869548 
L 116.319766 164 
L 115.454545 164.592913 
L 112.860468 166.745455 
L 112.636364 166.992033 
L 110.732132 169.490909 
L 109.818182 171.413522 
L 109.478981 172.236364 
L 108.946704 174.981818 
L 108.979211 177.727273 
L 109.504824 180.472727 
L 109.818182 181.356101 
L 110.483954 183.218182 
L 111.84927 185.963636 
L 112.636364 187.233606 
L 113.552299 188.709091 
L 115.454545 191.35545 
L 115.525418 191.454545 
L 117.699927 194.2 
L 118.272727 194.881158 
L 119.990131 196.945455 
L 121.090909 198.236569 
L 122.315485 199.690909 
L 123.909091 201.600686 
L 124.599425 202.436364 
L 126.727273 205.12481 
L 126.772275 205.181818 
L 128.779277 207.927273 
L 129.545455 209.104706 
L 130.580469 210.672727 
L 132.135085 213.418182 
L 132.363636 213.912022 
L 133.454661 216.163636 
L 134.51062 218.909091 
L 135.181818 221.205537 
L 135.327202 221.654545 
L 135.978315 224.4 
L 136.47603 227.145455 
L 136.898481 229.890909 
L 137.347132 232.636364 
L 137.95403 235.381818 
L 138 235.529676 
L 139.188365 238.127273 
L 140.818182 240.255548 
L 141.806431 240.872727 
z
M 148.500183 221.654545 
L 146.454545 219.838608 
L 145.745248 218.909091 
L 143.636364 216.296919 
L 143.551524 216.163636 
L 141.571368 213.418182 
L 140.818182 212.47981 
L 139.5465 210.672727 
L 138 208.699321 
L 137.442185 207.927273 
L 135.268486 205.181818 
L 135.181818 205.0782 
L 133.054428 202.436364 
L 132.363636 201.601836 
L 130.804292 199.690909 
L 129.545455 198.142953 
L 128.56923 196.945455 
L 126.727273 194.603358 
L 126.405854 194.2 
L 124.385103 191.454545 
L 123.909091 190.719121 
L 122.578392 188.709091 
L 121.090909 186.034136 
L 121.050918 185.963636 
L 119.931375 183.218182 
L 119.285998 180.472727 
L 119.252677 177.727273 
L 120.006058 174.981818 
L 121.090909 173.21348 
L 121.80616 172.236364 
L 123.909091 170.376562 
L 125.091271 169.490909 
L 126.727273 168.533792 
L 129.545455 167.051312 
L 130.151059 166.745455 
L 132.363636 165.748671 
L 135.181818 164.451147 
L 136.099479 164 
L 138 163.092948 
L 140.818182 161.599303 
L 141.40075 161.254545 
L 143.636364 159.89841 
L 145.661456 158.509091 
L 146.454545 157.93684 
L 149.137164 155.763636 
L 149.272727 155.646959 
L 152.032505 153.018182 
L 152.090909 152.959426 
L 154.542937 150.272727 
L 154.909091 149.857557 
L 156.825162 147.527273 
L 157.727273 146.425482 
L 159.000258 144.781818 
L 160.545455 142.841625 
L 161.161103 142.036364 
L 163.363636 139.309906 
L 163.378616 139.290909 
L 165.686367 136.545455 
L 166.181818 135.997271 
L 168.181164 133.8 
L 169 132.964601 
L 170.934412 131.054545 
L 171.818182 130.240328 
L 174.055539 128.309091 
L 174.636364 127.836811 
L 177.454545 125.760222 
L 177.75591 125.563636 
L 180.272727 123.99648 
L 182.5763 122.818182 
L 183.090909 122.562854 
L 185.909091 121.422597 
L 188.727273 120.584234 
L 191.260009 120.072727 
L 191.545455 120.01521 
L 194.363636 119.686532 
L 197.181818 119.595769 
L 200 119.72927 
L 202.741145 120.072727 
L 202.818182 120.082427 
L 205.636364 120.662118 
L 208.454545 121.4959 
L 211.272727 122.622069 
L 211.671329 122.818182 
L 214.090909 124.177332 
L 216.039521 125.563636 
L 216.909091 126.325937 
L 218.790915 128.309091 
L 219.727273 129.650362 
L 220.585485 131.054545 
L 221.729524 133.8 
L 222.40955 136.545455 
L 222.545455 137.627149 
L 222.746638 139.290909 
L 222.828931 142.036364 
L 222.723644 144.781818 
L 222.545455 146.858298 
L 222.489595 147.527273 
L 222.18618 150.272727 
L 221.858938 153.018182 
L 221.561822 155.763636 
L 221.358862 158.509091 
L 221.331739 161.254545 
L 221.589879 164 
L 222.284505 166.745455 
L 222.545455 167.338926 
L 223.670459 169.490909 
L 225.363636 171.554353 
L 226.027798 172.236364 
L 228.181818 173.957644 
L 229.637829 174.981818 
L 231 175.828027 
L 233.818182 177.513404 
L 234.1727 177.727273 
L 236.636364 179.238001 
L 238.47789 180.472727 
L 239.454545 181.206801 
L 241.772527 183.218182 
L 242.272727 183.765806 
L 243.990693 185.963636 
L 245.090909 188.086555 
L 245.3719 188.709091 
L 246.070697 191.454545 
L 246.250906 194.2 
L 245.999297 196.945455 
L 245.37605 199.690909 
L 245.090909 200.491988 
L 244.402538 202.436364 
L 243.10375 205.181818 
L 242.272727 206.589386 
L 241.456699 207.927273 
L 239.454545 210.652281 
L 239.438502 210.672727 
L 236.918333 213.418182 
L 236.636364 213.688686 
L 233.818182 216.103979 
L 233.737688 216.163636 
L 231 217.995758 
L 229.332594 218.909091 
L 228.181818 219.495159 
L 225.363636 220.60976 
L 222.545455 221.397166 
L 220.992513 221.654545 
L 219.727273 221.857486 
L 216.909091 222.006147 
L 214.090909 221.862039 
L 212.690914 221.654545 
L 211.272727 221.428255 
L 208.454545 220.713619 
L 205.636364 219.763491 
L 203.484878 218.909091 
L 202.818182 218.613452 
L 200 217.300435 
L 197.532357 216.163636 
L 197.181818 215.98254 
L 194.363636 214.725826 
L 191.545455 213.754004 
L 189.949363 213.418182 
L 188.727273 213.141978 
L 185.909091 212.964985 
L 183.090909 213.233244 
L 182.303901 213.418182 
L 180.272727 213.883084 
L 177.454545 214.847893 
L 174.636364 216.047429 
L 174.388674 216.163636 
L 171.818182 217.390513 
L 169 218.798229 
L 168.766439 218.909091 
L 166.181818 220.198184 
L 163.363636 221.501062 
L 162.951882 221.654545 
L 160.545455 222.632686 
L 157.727273 223.473157 
L 154.909091 223.866798 
L 152.090909 223.593223 
L 149.272727 222.326672 
z
" style="fill:#84b5d7;"/>
   </g>
   <g id="PathCollection_6">
    <path clip-path="url(#p6880ea3d7e)" d="M 149.272727 222.326672 
L 152.090909 223.593223 
L 154.909091 223.866798 
L 157.727273 223.473157 
L 160.545455 222.632686 
L 162.951882 221.654545 
L 163.363636 221.501062 
L 166.181818 220.198184 
L 168.766439 218.909091 
L 169 218.798229 
L 171.818182 217.390513 
L 174.388674 216.163636 
L 174.636364 216.047429 
L 177.454545 214.847893 
L 180.272727 213.883084 
L 182.303901 213.418182 
L 183.090909 213.233244 
L 185.909091 212.964985 
L 188.727273 213.141978 
L 189.949363 213.418182 
L 191.545455 213.754004 
L 194.363636 214.725826 
L 197.181818 215.98254 
L 197.532357 216.163636 
L 200 217.300435 
L 202.818182 218.613452 
L 203.484878 218.909091 
L 205.636364 219.763491 
L 208.454545 220.713619 
L 211.272727 221.428255 
L 212.690914 221.654545 
L 214.090909 221.862039 
L 216.909091 222.006147 
L 219.727273 221.857486 
L 220.992513 221.654545 
L 222.545455 221.397166 
L 225.363636 220.60976 
L 228.181818 219.495159 
L 229.332594 218.909091 
L 231 217.995758 
L 233.737688 216.163636 
L 233.818182 216.103979 
L 236.636364 213.688686 
L 236.918333 213.418182 
L 239.438502 210.672727 
L 239.454545 210.652281 
L 241.456699 207.927273 
L 242.272727 206.589386 
L 243.10375 205.181818 
L 244.402538 202.436364 
L 245.090909 200.491988 
L 245.37605 199.690909 
L 245.999297 196.945455 
L 246.250906 194.2 
L 246.070697 191.454545 
L 245.3719 188.709091 
L 245.090909 188.086555 
L 243.990693 185.963636 
L 242.272727 183.765806 
L 241.772527 183.218182 
L 239.454545 181.206801 
L 238.47789 180.472727 
L 236.636364 179.238001 
L 234.1727 177.727273 
L 233.818182 177.513404 
L 231 175.828027 
L 229.637829 174.981818 
L 228.181818 173.957644 
L 226.027798 172.236364 
L 225.363636 171.554353 
L 223.670459 169.490909 
L 222.545455 167.338926 
L 222.284505 166.745455 
L 221.589879 164 
L 221.331739 161.254545 
L 221.358862 158.509091 
L 221.561822 155.763636 
L 221.858938 153.018182 
L 222.18618 150.272727 
L 222.489595 147.527273 
L 222.545455 146.858298 
L 222.723644 144.781818 
L 222.828931 142.036364 
L 222.746638 139.290909 
L 222.545455 137.627149 
L 222.40955 136.545455 
L 221.729524 133.8 
L 220.585485 131.054545 
L 219.727273 129.650362 
L 218.790915 128.309091 
L 216.909091 126.325937 
L 216.039521 125.563636 
L 214.090909 124.177332 
L 211.671329 122.818182 
L 211.272727 122.622069 
L 208.454545 121.4959 
L 205.636364 120.662118 
L 202.818182 120.082427 
L 202.741145 120.072727 
L 200 119.72927 
L 197.181818 119.595769 
L 194.363636 119.686532 
L 191.545455 120.01521 
L 191.260009 120.072727 
L 188.727273 120.584234 
L 185.909091 121.422597 
L 183.090909 122.562854 
L 182.5763 122.818182 
L 180.272727 123.99648 
L 177.75591 125.563636 
L 177.454545 125.760222 
L 174.636364 127.836811 
L 174.055539 128.309091 
L 171.818182 130.240328 
L 170.934412 131.054545 
L 169 132.964601 
L 168.181164 133.8 
L 166.181818 135.997271 
L 165.686367 136.545455 
L 163.378616 139.290909 
L 163.363636 139.309906 
L 161.161103 142.036364 
L 160.545455 142.841625 
L 159.000258 144.781818 
L 157.727273 146.425482 
L 156.825162 147.527273 
L 154.909091 149.857557 
L 154.542937 150.272727 
L 152.090909 152.959426 
L 152.032505 153.018182 
L 149.272727 155.646959 
L 149.137164 155.763636 
L 146.454545 157.93684 
L 145.661456 158.509091 
L 143.636364 159.89841 
L 141.40075 161.254545 
L 140.818182 161.599303 
L 138 163.092948 
L 136.099479 164 
L 135.181818 164.451147 
L 132.363636 165.748671 
L 130.151059 166.745455 
L 129.545455 167.051312 
L 126.727273 168.533792 
L 125.091271 169.490909 
L 123.909091 170.376562 
L 121.80616 172.236364 
L 121.090909 173.21348 
L 120.006058 174.981818 
L 119.252677 177.727273 
L 119.285998 180.472727 
L 119.931375 183.218182 
L 121.050918 185.963636 
L 121.090909 186.034136 
L 122.578392 188.709091 
L 123.909091 190.719121 
L 124.385103 191.454545 
L 126.405854 194.2 
L 126.727273 194.603358 
L 128.56923 196.945455 
L 129.545455 198.142953 
L 130.804292 199.690909 
L 132.363636 201.601836 
L 133.054428 202.436364 
L 135.181818 205.0782 
L 135.268486 205.181818 
L 137.442185 207.927273 
L 138 208.699321 
L 139.5465 210.672727 
L 140.818182 212.47981 
L 141.571368 213.418182 
L 143.551524 216.163636 
L 143.636364 216.296919 
L 145.745248 218.909091 
L 146.454545 219.838608 
L 148.500183 221.654545 
z
M 208.079011 213.418182 
L 205.636364 211.998144 
L 203.584985 210.672727 
L 202.818182 210.075356 
L 200.016498 207.927273 
L 200 207.912143 
L 197.181818 205.656472 
L 196.419329 205.181818 
L 194.363636 203.76557 
L 191.545455 202.585199 
L 190.700464 202.436364 
L 188.727273 202.07807 
L 185.909091 202.208161 
L 184.917345 202.436364 
L 183.090909 202.809322 
L 180.272727 203.747389 
L 177.454545 204.926555 
L 176.913944 205.181818 
L 174.636364 206.206839 
L 171.818182 207.516363 
L 170.887458 207.927273 
L 169 208.75462 
L 166.181818 209.837444 
L 163.366698 210.672727 
L 163.363636 210.673667 
L 160.545455 211.181762 
L 157.727273 211.255755 
L 154.909091 210.799377 
L 154.564434 210.672727 
L 152.090909 209.778231 
L 149.272727 208.152174 
L 148.983337 207.927273 
L 146.454545 206.018295 
L 145.547321 205.181818 
L 143.636364 203.446453 
L 142.658518 202.436364 
L 140.818182 200.519153 
L 140.083258 199.690909 
L 138 197.249449 
L 137.750973 196.945455 
L 135.682107 194.2 
L 135.181818 193.432821 
L 133.892483 191.454545 
L 132.429516 188.709091 
L 132.363636 188.523688 
L 131.422941 185.963636 
L 130.967956 183.218182 
L 131.242474 180.472727 
L 132.363636 177.931362 
L 132.464093 177.727273 
L 134.865568 174.981818 
L 135.181818 174.728364 
L 138 172.560323 
L 138.427277 172.236364 
L 140.818182 170.708556 
L 142.65814 169.490909 
L 143.636364 168.8963 
L 146.454545 167.051213 
L 146.887536 166.745455 
L 149.272727 165.077091 
L 150.669937 164 
L 152.090909 162.870494 
L 153.928137 161.254545 
L 154.909091 160.341968 
L 156.696417 158.509091 
L 157.727273 157.380291 
L 159.077778 155.763636 
L 160.545455 153.902967 
L 161.191146 153.018182 
L 163.140835 150.272727 
L 163.363636 149.961551 
L 165.01469 147.527273 
L 166.181818 145.866339 
L 166.917446 144.781818 
L 168.915287 142.036364 
L 169 141.928885 
L 171.076701 139.290909 
L 171.818182 138.433891 
L 173.498195 136.545455 
L 174.636364 135.384413 
L 176.2907 133.8 
L 177.454545 132.782046 
L 179.64968 131.054545 
L 180.272727 130.60107 
L 183.090909 128.826193 
L 184.087622 128.309091 
L 185.909091 127.419487 
L 188.727273 126.362945 
L 191.545455 125.626491 
L 191.954306 125.563636 
L 194.363636 125.204371 
L 197.181818 125.080438 
L 200 125.251205 
L 201.868854 125.563636 
L 202.818182 125.734721 
L 205.636364 126.589871 
L 208.454545 127.862811 
L 209.204508 128.309091 
L 211.272727 129.815382 
L 212.598849 131.054545 
L 214.090909 132.941456 
L 214.657608 133.8 
L 215.899554 136.545455 
L 216.616152 139.290909 
L 216.909091 141.793329 
L 216.935493 142.036364 
L 216.955734 144.781818 
L 216.909091 145.414073 
L 216.751867 147.527273 
L 216.380254 150.272727 
L 215.891113 153.018182 
L 215.329318 155.763636 
L 214.740214 158.509091 
L 214.17473 161.254545 
L 214.090909 161.774379 
L 213.690736 164 
L 213.380558 166.745455 
L 213.365015 169.490909 
L 213.834096 172.236364 
L 214.090909 172.882577 
L 215.103377 174.981818 
L 216.909091 176.983397 
L 217.736821 177.727273 
L 219.727273 179.033513 
L 222.316332 180.472727 
L 222.545455 180.582195 
L 225.363636 181.95789 
L 227.894044 183.218182 
L 228.181818 183.363822 
L 231 185.001392 
L 232.414781 185.963636 
L 233.818182 187.103959 
L 235.436681 188.709091 
L 236.636364 190.391107 
L 237.261258 191.454545 
L 238.17101 194.2 
L 238.408909 196.945455 
L 238.076247 199.690909 
L 237.246286 202.436364 
L 236.636364 203.72225 
L 235.890042 205.181818 
L 233.996544 207.927273 
L 233.818182 208.133907 
L 231.319563 210.672727 
L 231 210.945186 
L 228.181818 212.936529 
L 227.300108 213.418182 
L 225.363636 214.339607 
L 222.545455 215.261923 
L 219.727273 215.759775 
L 216.909091 215.83014 
L 214.090909 215.477946 
L 211.272727 214.722146 
L 208.454545 213.602046 
z
" style="fill:#6ea7d0;"/>
   </g>
   <g id="PathCollection_7">
    <path clip-path="url(#p6880ea3d7e)" d="M 208.454545 213.602046 
L 211.272727 214.722146 
L 214.090909 215.477946 
L 216.909091 215.83014 
L 219.727273 215.759775 
L 222.545455 215.261923 
L 225.363636 214.339607 
L 227.300108 213.418182 
L 228.181818 212.936529 
L 231 210.945186 
L 231.319563 210.672727 
L 233.818182 208.133907 
L 233.996544 207.927273 
L 235.890042 205.181818 
L 236.636364 203.72225 
L 237.246286 202.436364 
L 238.076247 199.690909 
L 238.408909 196.945455 
L 238.17101 194.2 
L 237.261258 191.454545 
L 236.636364 190.391107 
L 235.436681 188.709091 
L 233.818182 187.103959 
L 232.414781 185.963636 
L 231 185.001392 
L 228.181818 183.363822 
L 227.894044 183.218182 
L 225.363636 181.95789 
L 222.545455 180.582195 
L 222.316332 180.472727 
L 219.727273 179.033513 
L 217.736821 177.727273 
L 216.909091 176.983397 
L 215.103377 174.981818 
L 214.090909 172.882577 
L 213.834096 172.236364 
L 213.365015 169.490909 
L 213.380558 166.745455 
L 213.690736 164 
L 214.090909 161.774379 
L 214.17473 161.254545 
L 214.740214 158.509091 
L 215.329318 155.763636 
L 215.891113 153.018182 
L 216.380254 150.272727 
L 216.751867 147.527273 
L 216.909091 145.414073 
L 216.955734 144.781818 
L 216.935493 142.036364 
L 216.909091 141.793329 
L 216.616152 139.290909 
L 215.899554 136.545455 
L 214.657608 133.8 
L 214.090909 132.941456 
L 212.598849 131.054545 
L 211.272727 129.815382 
L 209.204508 128.309091 
L 208.454545 127.862811 
L 205.636364 126.589871 
L 202.818182 125.734721 
L 201.868854 125.563636 
L 200 125.251205 
L 197.181818 125.080438 
L 194.363636 125.204371 
L 191.954306 125.563636 
L 191.545455 125.626491 
L 188.727273 126.362945 
L 185.909091 127.419487 
L 184.087622 128.309091 
L 183.090909 128.826193 
L 180.272727 130.60107 
L 179.64968 131.054545 
L 177.454545 132.782046 
L 176.2907 133.8 
L 174.636364 135.384413 
L 173.498195 136.545455 
L 171.818182 138.433891 
L 171.076701 139.290909 
L 169 141.928885 
L 168.915287 142.036364 
L 166.917446 144.781818 
L 166.181818 145.866339 
L 165.01469 147.527273 
L 163.363636 149.961551 
L 163.140835 150.272727 
L 161.191146 153.018182 
L 160.545455 153.902967 
L 159.077778 155.763636 
L 157.727273 157.380291 
L 156.696417 158.509091 
L 154.909091 160.341968 
L 153.928137 161.254545 
L 152.090909 162.870494 
L 150.669937 164 
L 149.272727 165.077091 
L 146.887536 166.745455 
L 146.454545 167.051213 
L 143.636364 168.8963 
L 142.65814 169.490909 
L 140.818182 170.708556 
L 138.427277 172.236364 
L 138 172.560323 
L 135.181818 174.728364 
L 134.865568 174.981818 
L 132.464093 177.727273 
L 132.363636 177.931362 
L 131.242474 180.472727 
L 130.967956 183.218182 
L 131.422941 185.963636 
L 132.363636 188.523688 
L 132.429516 188.709091 
L 133.892483 191.454545 
L 135.181818 193.432821 
L 135.682107 194.2 
L 137.750973 196.945455 
L 138 197.249449 
L 140.083258 199.690909 
L 140.818182 200.519153 
L 142.658518 202.436364 
L 143.636364 203.446453 
L 145.547321 205.181818 
L 146.454545 206.018295 
L 148.983337 207.927273 
L 149.272727 208.152174 
L 152.090909 209.778231 
L 154.564434 210.672727 
L 154.909091 210.799377 
L 157.727273 211.255755 
L 160.545455 211.181762 
L 163.363636 210.673667 
L 163.366698 210.672727 
L 166.181818 209.837444 
L 169 208.75462 
L 170.887458 207.927273 
L 171.818182 207.516363 
L 174.636364 206.206839 
L 176.913944 205.181818 
L 177.454545 204.926555 
L 180.272727 203.747389 
L 183.090909 202.809322 
L 184.917345 202.436364 
L 185.909091 202.208161 
L 188.727273 202.07807 
L 190.700464 202.436364 
L 191.545455 202.585199 
L 194.363636 203.76557 
L 196.419329 205.181818 
L 197.181818 205.656472 
L 200 207.912143 
L 200.016498 207.927273 
L 202.818182 210.075356 
L 203.584985 210.672727 
L 205.636364 211.998144 
L 208.079011 213.418182 
z
M 212.974622 205.181818 
L 211.272727 203.555417 
L 210.337547 202.436364 
L 209.033517 199.690909 
L 208.654722 196.945455 
L 209.451281 194.2 
L 211.272727 192.324112 
L 213.002479 191.454545 
L 214.090909 191.124149 
L 216.909091 190.874411 
L 219.727273 191.151062 
L 220.828525 191.454545 
L 222.545455 192.034361 
L 225.363636 193.701654 
L 225.924325 194.2 
L 227.678794 196.945455 
L 227.996628 199.690909 
L 227.011406 202.436364 
L 225.363636 204.547332 
L 224.626302 205.181818 
L 222.545455 206.341238 
L 219.727273 207.065885 
L 216.909091 206.902764 
L 214.090909 205.878341 
z
M 154.955817 199.690909 
L 154.909091 199.67814 
L 152.090909 198.317802 
L 150.075001 196.945455 
L 149.272727 196.301918 
L 147.153755 194.2 
L 146.454545 193.309253 
L 145.173383 191.454545 
L 143.899077 188.709091 
L 143.636364 187.320025 
L 143.392524 185.963636 
L 143.636364 183.788139 
L 143.70702 183.218182 
L 144.956438 180.472727 
L 146.454545 178.542789 
L 147.116628 177.727273 
L 149.272727 175.706263 
L 150.050381 174.981818 
L 152.090909 173.329703 
L 153.400074 172.236364 
L 154.909091 171.040508 
L 156.748928 169.490909 
L 157.727273 168.655811 
L 159.791393 166.745455 
L 160.545455 166.000884 
L 162.396185 164 
L 163.363636 162.8413 
L 164.573289 161.254545 
L 166.181818 158.871707 
L 166.407201 158.509091 
L 168.036235 155.763636 
L 169 154.054174 
L 169.552686 153.018182 
L 171.06043 150.272727 
L 171.818182 148.976712 
L 172.65036 147.527273 
L 174.389344 144.781818 
L 174.636364 144.437032 
L 176.402179 142.036364 
L 177.454545 140.777007 
L 178.781569 139.290909 
L 180.272727 137.825973 
L 181.734789 136.545455 
L 183.090909 135.493472 
L 185.691545 133.8 
L 185.909091 133.672249 
L 188.727273 132.373527 
L 191.545455 131.466174 
L 193.839729 131.054545 
L 194.363636 130.967583 
L 197.181818 130.891707 
L 198.563872 131.054545 
L 200 131.249903 
L 202.818182 132.151095 
L 205.636364 133.679822 
L 205.796068 133.8 
L 208.454545 136.518787 
L 208.474543 136.545455 
L 209.878187 139.290909 
L 210.631944 142.036364 
L 210.891067 144.781818 
L 210.770022 147.527273 
L 210.353433 150.272727 
L 209.704501 153.018182 
L 208.871149 155.763636 
L 208.454545 156.960189 
L 207.842626 158.509091 
L 206.66554 161.254545 
L 205.636364 163.523957 
L 205.380224 164 
L 203.935396 166.745455 
L 202.818182 168.85968 
L 202.407238 169.490909 
L 200.724446 172.236364 
L 200 173.459565 
L 198.863594 174.981818 
L 197.181818 177.226674 
L 196.720367 177.727273 
L 194.363636 180.227332 
L 194.096872 180.472727 
L 191.545455 182.697144 
L 190.917713 183.218182 
L 188.727273 184.882938 
L 187.357009 185.963636 
L 185.909091 186.980941 
L 183.651225 188.709091 
L 183.090909 189.08575 
L 180.272727 191.171708 
L 179.913627 191.454545 
L 177.454545 193.173006 
L 176.013656 194.2 
L 174.636364 195.077856 
L 171.818182 196.815873 
L 171.584989 196.945455 
L 169 198.253995 
L 166.181818 199.423648 
L 165.248012 199.690909 
L 163.363636 200.19481 
L 160.545455 200.526651 
L 157.727273 200.370195 
z
" style="fill:#579ac8;"/>
   </g>
   <g id="PathCollection_8">
    <path clip-path="url(#p6880ea3d7e)" d="M 214.090909 205.878341 
L 216.909091 206.902764 
L 219.727273 207.065885 
L 222.545455 206.341238 
L 224.626302 205.181818 
L 225.363636 204.547332 
L 227.011406 202.436364 
L 227.996628 199.690909 
L 227.678794 196.945455 
L 225.924325 194.2 
L 225.363636 193.701654 
L 222.545455 192.034361 
L 220.828525 191.454545 
L 219.727273 191.151062 
L 216.909091 190.874411 
L 214.090909 191.124149 
L 213.002479 191.454545 
L 211.272727 192.324112 
L 209.451281 194.2 
L 208.654722 196.945455 
L 209.033517 199.690909 
L 210.337547 202.436364 
L 211.272727 203.555417 
L 212.974622 205.181818 
z
" style="fill:#408cc0;"/>
    <path clip-path="url(#p6880ea3d7e)" d="M 157.727273 200.370195 
L 160.545455 200.526651 
L 163.363636 200.19481 
L 165.248012 199.690909 
L 166.181818 199.423648 
L 169 198.253995 
L 171.584989 196.945455 
L 171.818182 196.815873 
L 174.636364 195.077856 
L 176.013656 194.2 
L 177.454545 193.173006 
L 179.913627 191.454545 
L 180.272727 191.171708 
L 183.090909 189.08575 
L 183.651225 188.709091 
L 185.909091 186.980941 
L 187.357009 185.963636 
L 188.727273 184.882938 
L 190.917713 183.218182 
L 191.545455 182.697144 
L 194.096872 180.472727 
L 194.363636 180.227332 
L 196.720367 177.727273 
L 197.181818 177.226674 
L 198.863594 174.981818 
L 200 173.459565 
L 200.724446 172.236364 
L 202.407238 169.490909 
L 202.818182 168.85968 
L 203.935396 166.745455 
L 205.380224 164 
L 205.636364 163.523957 
L 206.66554 161.254545 
L 207.842626 158.509091 
L 208.454545 156.960189 
L 208.871149 155.763636 
L 209.704501 153.018182 
L 210.353433 150.272727 
L 210.770022 147.527273 
L 210.891067 144.781818 
L 210.631944 142.036364 
L 209.878187 139.290909 
L 208.474543 136.545455 
L 208.454545 136.518787 
L 205.796068 133.8 
L 205.636364 133.679822 
L 202.818182 132.151095 
L 200 131.249903 
L 198.563872 131.054545 
L 197.181818 130.891707 
L 194.363636 130.967583 
L 193.839729 131.054545 
L 191.545455 131.466174 
L 188.727273 132.373527 
L 185.909091 133.672249 
L 185.691545 133.8 
L 183.090909 135.493472 
L 181.734789 136.545455 
L 180.272727 137.825973 
L 178.781569 139.290909 
L 177.454545 140.777007 
L 176.402179 142.036364 
L 174.636364 144.437032 
L 174.389344 144.781818 
L 172.65036 147.527273 
L 171.818182 148.976712 
L 171.06043 150.272727 
L 169.552686 153.018182 
L 169 154.054174 
L 168.036235 155.763636 
L 166.407201 158.509091 
L 166.181818 158.871707 
L 164.573289 161.254545 
L 163.363636 162.8413 
L 162.396185 164 
L 160.545455 166.000884 
L 159.791393 166.745455 
L 157.727273 168.655811 
L 156.748928 169.490909 
L 154.909091 171.040508 
L 153.400074 172.236364 
L 152.090909 173.329703 
L 150.050381 174.981818 
L 149.272727 175.706263 
L 147.116628 177.727273 
L 146.454545 178.542789 
L 144.956438 180.472727 
L 143.70702 183.218182 
L 143.636364 183.788139 
L 143.392524 185.963636 
L 143.636364 187.320025 
L 143.899077 188.709091 
L 145.173383 191.454545 
L 146.454545 193.309253 
L 147.153755 194.2 
L 149.272727 196.301918 
L 150.075001 196.945455 
L 152.090909 198.317802 
L 154.909091 199.67814 
L 154.955817 199.690909 
z
M 178.865888 166.745455 
L 177.561821 164 
L 177.454545 162.433026 
L 177.410635 161.254545 
L 177.454545 160.760401 
L 177.649296 158.509091 
L 178.162753 155.763636 
L 178.909975 153.018182 
L 179.901273 150.272727 
L 180.272727 149.512516 
L 181.313991 147.527273 
L 183.090909 144.80941 
L 183.111618 144.781818 
L 185.730281 142.036364 
L 185.909091 141.881704 
L 188.727273 139.977618 
L 190.213271 139.290909 
L 191.545455 138.779135 
L 194.363636 138.312985 
L 197.181818 138.552229 
L 199.121826 139.290909 
L 200 139.793382 
L 202.062514 142.036364 
L 202.818182 143.72545 
L 203.14685 144.781818 
L 203.316882 147.527273 
L 202.937735 150.272727 
L 202.818182 150.674302 
L 201.975129 153.018182 
L 200.604942 155.763636 
L 200 156.76267 
L 198.666462 158.509091 
L 197.181818 160.273985 
L 196.102756 161.254545 
L 194.363636 162.795976 
L 192.554827 164 
L 191.545455 164.697939 
L 188.727273 166.131712 
L 186.996708 166.745455 
L 185.909091 167.186965 
L 183.090909 167.80729 
L 180.272727 167.695727 
z
" style="fill:#408cc0;"/>
   </g>
   <g id="PathCollection_9">
    <path clip-path="url(#p6880ea3d7e)" d="M 180.272727 167.695727 
L 183.090909 167.80729 
L 185.909091 167.186965 
L 186.996708 166.745455 
L 188.727273 166.131712 
L 191.545455 164.697939 
L 192.554827 164 
L 194.363636 162.795976 
L 196.102756 161.254545 
L 197.181818 160.273985 
L 198.666462 158.509091 
L 200 156.76267 
L 200.604942 155.763636 
L 201.975129 153.018182 
L 202.818182 150.674302 
L 202.937735 150.272727 
L 203.316882 147.527273 
L 203.14685 144.781818 
L 202.818182 143.72545 
L 202.062514 142.036364 
L 200 139.793382 
L 199.121826 139.290909 
L 197.181818 138.552229 
L 194.363636 138.312985 
L 191.545455 138.779135 
L 190.213271 139.290909 
L 188.727273 139.977618 
L 185.909091 141.881704 
L 185.730281 142.036364 
L 183.111618 144.781818 
L 183.090909 144.80941 
L 181.313991 147.527273 
L 180.272727 149.512516 
L 179.901273 150.272727 
L 178.909975 153.018182 
L 178.162753 155.763636 
L 177.649296 158.509091 
L 177.454545 160.760401 
L 177.410635 161.254545 
L 177.454545 162.433026 
L 177.561821 164 
L 178.865888 166.745455 
z
" style="fill:#2a7eb8;"/>
   </g>
   <g id="patch_2">
    <path clip-path="url(#p6880ea3d7e)" d="M 196.572642 145.29755 
L 196.584581 145.108545 
L 196.624379 145.123369 
L 235.2019 55.31527 
L 235.241698 55.330094 
L 196.664177 145.138193 
L 196.703975 145.153017 
z
" style="fill:#1f77b4;stroke:#000000;stroke-linejoin:miter;"/>
   </g>
   <g id="text_1">
    <!-- $E$ -->
    <g transform="translate(187.397887 155.109458)scale(0.16 -0.16)">
     <defs>
      <path d="M 63.40625 65.296875 
L 60.296875 49.90625 
L 58.09375 50.09375 
Q 58.40625 52.59375 58.40625 54.703125 
Q 58.40625 59.203125 54.703125 60.59375 
Q 51 62 39.203125 62 
Q 35 62 33.703125 61.546875 
Q 32.40625 61.09375 31.90625 59.40625 
L 25.296875 36.09375 
L 33.09375 36.09375 
Q 39.703125 36.09375 41.890625 37.6875 
Q 44.09375 39.296875 47 45.796875 
L 48.796875 45.40625 
L 42 22.203125 
L 40 22.703125 
Q 40.703125 25.796875 40.703125 27.90625 
Q 40.703125 30.296875 40 31 
Q 38.296875 32.5 32.203125 32.5 
L 24.40625 32.5 
L 21.203125 21.296875 
Q 17.59375 8.59375 17.59375 6.703125 
Q 17.59375 3.296875 25.5 3.296875 
Q 38.40625 3.296875 45.796875 7.203125 
Q 49.59375 9.203125 55.203125 17 
L 56.796875 16.203125 
L 50.59375 0 
L -0.09375 0 
L -0.09375 1.59375 
Q 4.203125 2.40625 5.5 3.546875 
Q 6.796875 4.703125 8 9 
L 20.296875 53.203125 
Q 21.40625 56.90625 21.40625 59.59375 
Q 21.40625 61.59375 19.84375 62.4375 
Q 18.296875 63.296875 13.703125 63.703125 
L 13.703125 65.296875 
z
" id="STIXGeneral-Italic-69"/>
     </defs>
     <use transform="translate(0 0.703125)" xlink:href="#STIXGeneral-Italic-69"/>
    </g>
   </g>
   <g id="text_2">
    <!-- High Probability Region -->
    <g transform="translate(156.541799 55.322682)scale(0.16 -0.16)">
     <defs>
      <path d="M 70.296875 0 
L 42.40625 0 
L 42.40625 1.90625 
Q 48.203125 2.296875 49.703125 4.140625 
Q 51.203125 6 51.203125 12.40625 
L 51.203125 31.5 
L 20.90625 31.5 
L 20.90625 11.296875 
Q 20.90625 5.796875 22.5 4 
Q 24.09375 2.203125 29.59375 1.90625 
L 29.703125 0 
L 1.796875 0 
L 1.796875 1.90625 
Q 7.703125 2.296875 9.203125 4.046875 
Q 10.703125 5.796875 10.703125 12.203125 
L 10.703125 54.796875 
Q 10.703125 60.59375 9.140625 62.1875 
Q 7.59375 63.796875 1.796875 64.296875 
L 1.796875 66.203125 
L 29.796875 66.203125 
L 29.796875 64.296875 
Q 24.203125 63.796875 22.546875 62.140625 
Q 20.90625 60.5 20.90625 54.796875 
L 20.90625 35.90625 
L 51.203125 35.90625 
L 51.203125 54.796875 
Q 51.203125 60.59375 49.640625 62.1875 
Q 48.09375 63.796875 42.296875 64.296875 
L 42.296875 66.203125 
L 70.296875 66.203125 
L 70.296875 64.296875 
Q 64.703125 63.796875 63.046875 62.140625 
Q 61.40625 60.5 61.40625 54.796875 
L 61.40625 11.09375 
Q 61.40625 5.796875 63.046875 4.046875 
Q 64.703125 2.296875 70.296875 1.90625 
z
" id="STIXGeneral-Regular-72"/>
      <path d="M 18 63.203125 
Q 18 61 16.5 59.546875 
Q 15 58.09375 12.796875 58.09375 
Q 10.703125 58.09375 9.25 59.546875 
Q 7.796875 61 7.796875 63.203125 
Q 7.796875 65.296875 9.296875 66.796875 
Q 10.796875 68.296875 12.90625 68.296875 
Q 15.09375 68.296875 16.546875 66.796875 
Q 18 65.296875 18 63.203125 
z
M 25.296875 0 
L 1.59375 0 
L 1.59375 1.5 
Q 6.796875 1.796875 8.140625 3.296875 
Q 9.5 4.796875 9.5 10.40625 
L 9.5 33.09375 
Q 9.5 36.59375 8.796875 38 
Q 8.09375 39.40625 6.203125 39.40625 
Q 3.796875 39.40625 2 38.90625 
L 2 40.5 
L 17.5 46 
L 17.90625 45.59375 
L 17.90625 10.5 
Q 17.90625 4.90625 19.15625 3.40625 
Q 20.40625 1.90625 25.296875 1.5 
z
" id="STIXGeneral-Regular-105"/>
      <path d="M 47 38.796875 
L 38.703125 38.796875 
Q 40.59375 34.5 40.59375 30.40625 
Q 40.59375 22.703125 35.390625 18.796875 
Q 30.203125 14.90625 25 14.90625 
Q 23.90625 14.90625 21.203125 15.203125 
L 19.296875 15.40625 
Q 17.296875 14.796875 15.296875 12.6875 
Q 13.296875 10.59375 13.296875 9.09375 
Q 13.296875 6.796875 21.09375 6.40625 
L 34 5.796875 
Q 39.5 5.59375 42.796875 2.6875 
Q 46.09375 -0.203125 46.09375 -4.90625 
Q 46.09375 -10.703125 40.09375 -15.40625 
Q 31.796875 -21.796875 20.09375 -21.796875 
Q 12.90625 -21.796875 7.84375 -18.9375 
Q 2.796875 -16.09375 2.796875 -12.09375 
Q 2.796875 -9.296875 5 -6.546875 
Q 7.203125 -3.796875 12.59375 0.09375 
Q 9.40625 1.59375 8.34375 2.6875 
Q 7.296875 3.796875 7.296875 5.40625 
Q 7.296875 8.296875 11.90625 12.296875 
Q 14.203125 14.296875 16.203125 16.296875 
Q 11.203125 18.796875 9.046875 21.890625 
Q 6.90625 25 6.90625 29.703125 
Q 6.90625 36.5 11.75 41.25 
Q 16.59375 46 23.59375 46 
Q 27.59375 46 31.59375 44.5 
L 33.796875 43.703125 
Q 36.703125 42.703125 39.296875 42.703125 
L 47 42.703125 
z
M 15.203125 33.796875 
L 15.203125 33.5 
Q 15.203125 26.296875 18.046875 21.84375 
Q 20.90625 17.40625 25.5 17.40625 
Q 28.90625 17.40625 30.90625 19.84375 
Q 32.90625 22.296875 32.90625 26.40625 
Q 32.90625 33 29.90625 38.5 
Q 27.40625 43.203125 22.59375 43.203125 
Q 19.09375 43.203125 17.140625 40.703125 
Q 15.203125 38.203125 15.203125 33.796875 
z
M 43.296875 -6.40625 
Q 43.296875 -3.59375 40.546875 -2.546875 
Q 37.796875 -1.5 30.90625 -1.5 
Q 21 -1.5 14.703125 -0.203125 
Q 11.703125 -3.796875 10.75 -5.4375 
Q 9.796875 -7.09375 9.796875 -8.796875 
Q 9.796875 -12.09375 13.75 -14.09375 
Q 17.703125 -16.09375 24.296875 -16.09375 
Q 32.796875 -16.09375 38.046875 -13.4375 
Q 43.296875 -10.796875 43.296875 -6.40625 
z
" id="STIXGeneral-Regular-103"/>
      <path d="M 48.703125 0 
L 27.5 0 
L 27.5 1.5 
Q 31.90625 2 33.09375 3.5 
Q 34.296875 5 34.296875 10.203125 
L 34.296875 30 
Q 34.296875 40.59375 26.90625 40.59375 
Q 23.90625 40.59375 21.40625 39.1875 
Q 18.90625 37.796875 15.703125 34.296875 
L 15.703125 10.203125 
Q 15.703125 5 16.890625 3.5 
Q 18.09375 2 22.5 1.5 
L 22.5 0 
L 0.90625 0 
L 0.90625 1.5 
Q 5.203125 2.09375 6.25 3.5 
Q 7.296875 4.90625 7.296875 10.203125 
L 7.296875 57.296875 
Q 7.296875 60.5 6.34375 61.453125 
Q 5.40625 62.40625 2.203125 62.40625 
Q 1.296875 62.40625 1 62.296875 
L 1 63.90625 
L 3.703125 64.703125 
Q 11.40625 67 15.203125 68.296875 
L 15.703125 68 
L 15.703125 37.59375 
Q 19.203125 42.09375 22.59375 44.046875 
Q 26 46 30.40625 46 
Q 42.703125 46 42.703125 30.09375 
L 42.703125 10.203125 
Q 42.703125 5 43.640625 3.640625 
Q 44.59375 2.296875 48.703125 1.5 
z
" id="STIXGeneral-Regular-104"/>
      <path id="STIXGeneral-Regular-32"/>
      <path d="M 1.59375 66.203125 
L 27.5 66.203125 
Q 41.703125 66.203125 49.203125 59.90625 
Q 54.203125 55.703125 54.203125 48 
Q 54.203125 40 48.5 34.90625 
Q 44.296875 31.09375 39.890625 29.9375 
Q 35.5 28.796875 27.09375 28.796875 
Q 24.203125 28.796875 20.203125 29.09375 
L 20.203125 11.203125 
Q 20.203125 5.5 21.84375 3.84375 
Q 23.5 2.203125 29.59375 1.90625 
L 29.59375 0 
L 1.59375 0 
L 1.59375 1.90625 
Q 7.40625 2.296875 8.703125 4 
Q 10 5.703125 10 12.203125 
L 10 55.09375 
Q 10 60.703125 8.546875 62.296875 
Q 7.09375 63.90625 1.59375 64.296875 
z
M 20.203125 58.90625 
L 20.203125 33.09375 
Q 23.59375 32.796875 26.296875 32.796875 
Q 34.40625 32.796875 38.84375 36.75 
Q 43.296875 40.703125 43.296875 47.5 
Q 43.296875 55.59375 38.6875 59.046875 
Q 34.09375 62.5 23.703125 62.5 
Q 21.59375 62.5 20.890625 61.75 
Q 20.203125 61 20.203125 58.90625 
z
" id="STIXGeneral-Regular-80"/>
      <path d="M 16 45.796875 
L 16 36.59375 
Q 19.796875 42 22.34375 44 
Q 24.90625 46 28 46 
Q 30.59375 46 32.046875 44.59375 
Q 33.5 43.203125 33.5 40.703125 
Q 33.5 38.59375 32.453125 37.390625 
Q 31.40625 36.203125 29.59375 36.203125 
Q 27.703125 36.203125 25.59375 38.203125 
Q 24 39.703125 23 39.703125 
Q 20.90625 39.703125 18.453125 36.796875 
Q 16 33.90625 16 31.5 
L 16 9 
Q 16 4.703125 17.703125 3.203125 
Q 19.40625 1.703125 24.5 1.5 
L 24.5 0 
L 0.5 0 
L 0.5 1.5 
Q 5.296875 2.40625 6.4375 3.5 
Q 7.59375 4.59375 7.59375 8.40625 
L 7.59375 33.40625 
Q 7.59375 36.703125 6.84375 38.046875 
Q 6.09375 39.40625 4.203125 39.40625 
Q 2.59375 39.40625 0.703125 39 
L 0.703125 40.59375 
Q 7 42.59375 15.5 46 
z
" id="STIXGeneral-Regular-114"/>
      <path d="M 47 23.09375 
Q 47 12.59375 40.75 5.796875 
Q 34.5 -1 24.5 -1 
Q 15.296875 -1 9.09375 5.75 
Q 2.90625 12.5 2.90625 22.796875 
Q 2.90625 33.203125 9.09375 39.59375 
Q 15.296875 46 25.40625 46 
Q 34.703125 46 40.84375 39.640625 
Q 47 33.296875 47 23.09375 
z
M 38 20.40625 
Q 38 31.796875 33 38.203125 
Q 29 43.203125 23.5 43.203125 
Q 18.296875 43.203125 15.09375 38.953125 
Q 11.90625 34.703125 11.90625 27.296875 
Q 11.90625 14.5 17.203125 6.796875 
Q 20.59375 1.796875 26.203125 1.796875 
Q 31.703125 1.796875 34.84375 6.75 
Q 38 11.703125 38 20.40625 
z
" id="STIXGeneral-Regular-111"/>
      <path d="M 15.296875 68.09375 
L 15.296875 37.59375 
Q 16.90625 41.40625 20.546875 43.703125 
Q 24.203125 46 28.796875 46 
Q 36.703125 46 41.75 39.703125 
Q 46.796875 33.40625 46.796875 24 
Q 46.796875 13 40.09375 6 
Q 33.40625 -1 23.40625 -1 
Q 17.296875 -1 12.09375 1.046875 
Q 6.90625 3.09375 6.90625 5.59375 
L 6.90625 56.59375 
Q 6.90625 60.296875 6 61.34375 
Q 5.09375 62.40625 2 62.40625 
Q 1.296875 62.40625 0.296875 62.203125 
L 0.296875 63.90625 
L 3.296875 64.796875 
Q 13.5 67.90625 14.796875 68.296875 
z
M 15.296875 31.796875 
L 15.296875 7.40625 
Q 15.296875 5.09375 18.140625 3.640625 
Q 21 2.203125 25 2.203125 
Q 30.90625 2.203125 34.296875 6.5 
Q 38 11.09375 38 19.703125 
Q 38 29.5 34.09375 35 
Q 30.796875 39.703125 25.203125 39.703125 
Q 21.203125 39.703125 18.25 37.34375 
Q 15.296875 35 15.296875 31.796875 
z
" id="STIXGeneral-Regular-98"/>
      <path d="M 44.203125 6.59375 
L 44.203125 3.796875 
Q 40.40625 -1 35.203125 -1 
Q 29.5 -1 28.796875 6.296875 
L 28.703125 6.296875 
Q 22.296875 -1 14.203125 -1 
Q 9.5 -1 6.59375 1.75 
Q 3.703125 4.5 3.703125 9.40625 
Q 3.703125 16.40625 10.703125 21.09375 
Q 15.5 24.296875 28.703125 29.203125 
L 28.703125 34.59375 
Q 28.703125 39.09375 26.546875 41.34375 
Q 24.40625 43.59375 20.90625 43.59375 
Q 17.90625 43.59375 15.90625 42.140625 
Q 13.90625 40.703125 13.90625 38.703125 
Q 13.90625 37.796875 14.203125 36.6875 
Q 14.5 35.59375 14.5 34.5 
Q 14.5 33 13.140625 31.703125 
Q 11.796875 30.40625 9.90625 30.40625 
Q 8.203125 30.40625 6.890625 31.703125 
Q 5.59375 33 5.59375 35 
Q 5.59375 39.796875 10.703125 43 
Q 15.40625 46 22.203125 46 
Q 30.296875 46 34 41.5 
Q 35.796875 39.40625 36.296875 37.25 
Q 36.796875 35.09375 36.796875 30.40625 
L 36.796875 11.296875 
Q 36.796875 4.703125 39.90625 4.703125 
Q 41.90625 4.703125 44.203125 6.59375 
z
M 28.703125 12.703125 
L 28.703125 26.796875 
Q 19.5 23.59375 15.90625 20.203125 
Q 12.5 17.09375 12.5 12.5 
Q 12.5 8.703125 14.390625 6.75 
Q 16.296875 4.796875 19.40625 4.796875 
Q 22.703125 4.796875 25.203125 6.40625 
Q 27.296875 7.90625 28 9.203125 
Q 28.703125 10.5 28.703125 12.703125 
z
" id="STIXGeneral-Regular-97"/>
      <path d="M 25.703125 0 
L 2.09375 0 
L 2.09375 1.5 
Q 6.796875 1.90625 8.296875 3.453125 
Q 9.796875 5 9.796875 9.203125 
L 9.796875 56.09375 
Q 9.796875 59.703125 8.890625 61.09375 
Q 8 62.5 5.59375 62.5 
Q 3.5 62.5 1.90625 62.296875 
L 1.90625 63.90625 
Q 11.40625 66.203125 17.703125 68.296875 
L 18.203125 67.90625 
L 18.203125 8.703125 
Q 18.203125 4.5 19.59375 3.140625 
Q 21 1.796875 25.703125 1.5 
z
" id="STIXGeneral-Regular-108"/>
      <path d="M 26.59375 7.703125 
L 27.90625 6.59375 
Q 23.09375 -1 15.796875 -1 
Q 7 -1 7 11.703125 
L 7 41.796875 
L 1.703125 41.796875 
Q 1.296875 42.09375 1.296875 42.5 
Q 1.296875 43.296875 3 44.40625 
Q 6.796875 46.59375 12.703125 55.09375 
Q 12.90625 55.40625 13.65625 56.34375 
Q 14.40625 57.296875 14.703125 57.90625 
Q 15.40625 57.90625 15.40625 56.59375 
L 15.40625 45 
L 25.5 45 
L 25.5 41.796875 
L 15.40625 41.796875 
L 15.40625 13.203125 
Q 15.40625 8.40625 16.59375 6.296875 
Q 17.796875 4.203125 20.59375 4.203125 
Q 23.59375 4.203125 26.59375 7.703125 
z
" id="STIXGeneral-Regular-116"/>
      <path d="M 47.5 45 
L 47.5 43.5 
Q 45.703125 43.296875 44.59375 42.1875 
Q 43.5 41.09375 42.5 38.40625 
L 27.5 -2.5 
Q 23.59375 -13.09375 19.640625 -17.4375 
Q 15.703125 -21.796875 10 -21.796875 
Q 6.796875 -21.796875 4.890625 -20.140625 
Q 3 -18.5 3 -16 
Q 3 -14.09375 4.25 -12.75 
Q 5.5 -11.40625 7.296875 -11.40625 
Q 10.203125 -11.40625 12.5 -12.703125 
Q 13.796875 -13.40625 15.09375 -13.40625 
Q 17.203125 -13.40625 20.09375 -9 
Q 21.5 -7 22.796875 -3.296875 
Q 24.09375 0.40625 24.09375 1.796875 
Q 24.09375 3.09375 19.90625 11.90625 
L 6.703125 40.09375 
Q 5.40625 43 1.40625 43.59375 
L 1.40625 45 
L 21.90625 45 
L 21.90625 43.5 
Q 18.703125 43.40625 17.453125 42.796875 
Q 16.203125 42.203125 16.203125 40.796875 
Q 16.203125 39.703125 17.5 36.703125 
L 28.703125 11.703125 
L 38.40625 39.296875 
Q 38.796875 40.203125 38.796875 41.09375 
Q 38.796875 43.5 34.203125 43.5 
L 34.203125 45 
z
" id="STIXGeneral-Regular-121"/>
      <path d="M 66 0 
L 49.796875 0 
L 26 30.796875 
L 20.40625 30.59375 
L 20.40625 11.203125 
Q 20.40625 5.5 21.953125 3.890625 
Q 23.5 2.296875 29.296875 1.90625 
L 29.296875 0 
L 1.703125 0 
L 1.703125 1.90625 
Q 7.40625 2.40625 8.796875 4.09375 
Q 10.203125 5.796875 10.203125 12.40625 
L 10.203125 55.09375 
Q 10.203125 60.703125 8.796875 62.296875 
Q 7.40625 63.90625 1.703125 64.296875 
L 1.703125 66.203125 
L 28.90625 66.203125 
Q 42.59375 66.203125 49.796875 60.296875 
Q 54.703125 56.296875 54.703125 48.296875 
Q 54.703125 34.703125 36.59375 31.90625 
L 56.59375 6.59375 
Q 58.703125 4 60.59375 3.09375 
Q 62.5 2.203125 66 1.90625 
z
M 20.40625 58.296875 
L 20.40625 34.296875 
Q 27.59375 34.40625 31.09375 35.09375 
Q 34.59375 35.796875 38.09375 37.703125 
Q 43.796875 40.90625 43.796875 49.09375 
Q 43.796875 62.5 25.5 62.5 
Q 22.796875 62.5 21.59375 61.640625 
Q 20.40625 60.796875 20.40625 58.296875 
z
" id="STIXGeneral-Regular-82"/>
      <path d="M 40.796875 16.40625 
L 42.40625 15.703125 
Q 36.40625 -1 21.5 -1 
Q 12.703125 -1 7.59375 5.140625 
Q 2.5 11.296875 2.5 21.703125 
Q 2.5 32.40625 8.203125 39.203125 
Q 13.90625 46 23.203125 46 
Q 32.203125 46 37.09375 39.09375 
Q 40 35.09375 40.5 27.703125 
L 9.703125 27.703125 
Q 10.09375 21.40625 10.9375 18.09375 
Q 11.796875 14.796875 14.296875 11.40625 
Q 18.5 5.90625 25.40625 5.90625 
Q 30.296875 5.90625 33.640625 8.296875 
Q 37 10.703125 40.796875 16.40625 
z
M 9.90625 30.90625 
L 30.296875 30.90625 
Q 29.40625 37.203125 27.34375 39.796875 
Q 25.296875 42.40625 20.5 42.40625 
Q 16.296875 42.40625 13.5 39.453125 
Q 10.703125 36.5 9.90625 30.90625 
z
" id="STIXGeneral-Regular-101"/>
      <path d="M 48.5 0 
L 27.703125 0 
L 27.796875 1.5 
Q 31.5 1.796875 32.75 3.640625 
Q 34 5.5 34 10.5 
L 34 30.40625 
Q 34 40.5 26.703125 40.5 
Q 24.203125 40.5 22 39.296875 
Q 19.796875 38.09375 16.40625 34.796875 
L 16.40625 7.203125 
Q 16.40625 4.203125 17.75 3 
Q 19.09375 1.796875 22.90625 1.5 
L 22.90625 0 
L 1.796875 0 
L 1.796875 1.5 
Q 5.59375 1.796875 6.796875 3.34375 
Q 8 4.90625 8 9.40625 
L 8 33.703125 
Q 8 37.40625 7.296875 38.796875 
Q 6.59375 40.203125 4.5 40.203125 
Q 2.5 40.203125 1.59375 39.796875 
L 1.59375 41.5 
Q 8.59375 43.5 15.296875 46 
L 16.09375 45.703125 
L 16.09375 37.90625 
L 16.203125 37.90625 
Q 23.296875 46 30.59375 46 
Q 36.296875 46 39.34375 42 
Q 42.40625 38 42.40625 30.59375 
L 42.40625 8.5 
Q 42.40625 4.5 43.59375 3.203125 
Q 44.796875 1.90625 48.5 1.5 
z
" id="STIXGeneral-Regular-110"/>
     </defs>
     <use xlink:href="#STIXGeneral-Regular-72"/>
     <use x="72.199982" xlink:href="#STIXGeneral-Regular-105"/>
     <use x="99.999969" xlink:href="#STIXGeneral-Regular-103"/>
     <use x="149.999954" xlink:href="#STIXGeneral-Regular-104"/>
     <use x="199.999939" xlink:href="#STIXGeneral-Regular-32"/>
     <use x="224.999924" xlink:href="#STIXGeneral-Regular-80"/>
     <use x="280.699921" xlink:href="#STIXGeneral-Regular-114"/>
     <use x="313.999908" xlink:href="#STIXGeneral-Regular-111"/>
     <use x="363.999893" xlink:href="#STIXGeneral-Regular-98"/>
     <use x="413.999878" xlink:href="#STIXGeneral-Regular-97"/>
     <use x="458.399872" xlink:href="#STIXGeneral-Regular-98"/>
     <use x="508.399857" xlink:href="#STIXGeneral-Regular-105"/>
     <use x="536.199844" xlink:href="#STIXGeneral-Regular-108"/>
     <use x="563.999832" xlink:href="#STIXGeneral-Regular-105"/>
     <use x="591.79982" xlink:href="#STIXGeneral-Regular-116"/>
     <use x="619.599808" xlink:href="#STIXGeneral-Regular-121"/>
     <use x="669.599792" xlink:href="#STIXGeneral-Regular-32"/>
     <use x="694.599777" xlink:href="#STIXGeneral-Regular-82"/>
     <use x="761.299774" xlink:href="#STIXGeneral-Regular-101"/>
     <use x="805.699768" xlink:href="#STIXGeneral-Regular-103"/>
     <use x="855.699753" xlink:href="#STIXGeneral-Regular-105"/>
     <use x="883.499741" xlink:href="#STIXGeneral-Regular-111"/>
     <use x="933.499725" xlink:href="#STIXGeneral-Regular-110"/>
    </g>
   </g>
  </g>
 </g>
 <defs>
  <clipPath id="p6880ea3d7e">
   <rect height="271.8" width="279" x="45" y="43.2"/>
  </clipPath>
 </defs>
</svg>
