<?xml version="1.0" encoding="utf-8" standalone="no"?>
<!DOCTYPE svg PUBLIC "-//W3C//DTD SVG 1.1//EN"
  "http://www.w3.org/Graphics/SVG/1.1/DTD/svg11.dtd">
<!-- Created with matplotlib (https://matplotlib.org/) -->
<svg height="288pt" version="1.1" viewBox="0 0 432 288" width="432pt" xmlns="http://www.w3.org/2000/svg" xmlns:xlink="http://www.w3.org/1999/xlink">
 <metadata>
  <rdf:RDF xmlns:cc="http://creativecommons.org/ns#" xmlns:dc="http://purl.org/dc/elements/1.1/" xmlns:rdf="http://www.w3.org/1999/02/22-rdf-syntax-ns#">
   <cc:Work>
    <dc:type rdf:resource="http://purl.org/dc/dcmitype/StillImage"/>
    <dc:date>2021-03-04T10:51:10.797704</dc:date>
    <dc:format>image/svg+xml</dc:format>
    <dc:creator>
     <cc:Agent>
      <dc:title>Matplotlib v3.3.0, https://matplotlib.org/</dc:title>
     </cc:Agent>
    </dc:creator>
   </cc:Work>
  </rdf:RDF>
 </metadata>
 <defs>
  <style type="text/css">*{stroke-linecap:butt;stroke-linejoin:round;}</style>
 </defs>
 <g id="figure_1">
  <g id="patch_1">
   <path d="M 0 288 
L 432 288 
L 432 0 
L 0 0 
z
" style="fill:none;"/>
  </g>
  <g id="patch_2">
   <path d="M 112.68 252 
L 330.12 252 
L 330.12 34.56 
L 112.68 34.56 
z
" style="fill:#ffffff;"/>
  </g>
  <g id="pane3d_1">
   <g id="patch_3">
    <path d="M 129.09822 198.386264 
L 200.904009 138.197228 
L 199.90584 51.393878 
L 124.663773 106.302111 
" style="fill:#f2f2f2;opacity:0.5;stroke:#f2f2f2;stroke-linejoin:miter;"/>
   </g>
  </g>
  <g id="pane3d_2">
   <g id="patch_4">
    <path d="M 200.904009 138.197228 
L 316.12668 171.68791 
L 320.238571 81.894718 
L 199.90584 51.393878 
" style="fill:#e6e6e6;opacity:0.5;stroke:#e6e6e6;stroke-linejoin:miter;"/>
   </g>
  </g>
  <g id="pane3d_3">
   <g id="patch_5">
    <path d="M 129.09822 198.386264 
L 251.239879 238.27773 
L 316.12668 171.68791 
L 200.904009 138.197228 
" style="fill:#ececec;opacity:0.5;stroke:#ececec;stroke-linejoin:miter;"/>
   </g>
  </g>
  <g id="axis3d_1">
   <g id="line2d_1">
    <path d="M 129.09822 198.386264 
L 251.239879 238.27773 
" style="fill:none;stroke:#000000;stroke-linecap:square;stroke-width:0.8;"/>
   </g>
   <g id="Line3DCollection_1">
    <path d="M 150.148939 205.261429 
L 220.834933 143.990361 
L 220.684373 56.66063 
" style="fill:none;stroke:#b0b0b0;stroke-width:0.8;"/>
    <path d="M 188.559037 217.806167 
L 257.123632 154.538053 
L 258.555303 66.259807 
" style="fill:none;stroke:#b0b0b0;stroke-width:0.8;"/>
    <path d="M 228.287516 230.781488 
L 294.55203 165.41701 
L 297.668413 76.17384 
" style="fill:none;stroke:#b0b0b0;stroke-width:0.8;"/>
   </g>
   <g id="xtick_1">
    <g id="line2d_2">
     <path d="M 150.76477 204.727623 
L 148.914618 206.331347 
" style="fill:none;stroke:#000000;stroke-linecap:square;stroke-width:0.8;"/>
    </g>
    <g id="text_1">
     <!-- −2 -->
     <g transform="translate(133.150488 232.028456)scale(0.16 -0.16)">
      <defs>
       <path d="M 62.09375 22 
L 6.40625 22 
L 6.40625 28.59375 
L 62.09375 28.59375 
z
" id="STIXGeneral-Regular-8722"/>
       <path d="M 47.40625 13.703125 
L 42 0 
L 2.90625 0 
L 2.90625 1.203125 
L 20.703125 20.09375 
Q 27.703125 27.40625 30.703125 33.5 
Q 33.703125 39.59375 33.703125 46.09375 
Q 33.703125 52.796875 30 56.5 
Q 26.296875 60.203125 19.796875 60.203125 
Q 14.40625 60.203125 11.25 57.390625 
Q 8.09375 54.59375 5.09375 47.203125 
L 3 47.703125 
Q 4.703125 57 9.84375 62.296875 
Q 15 67.59375 23.796875 67.59375 
Q 32.09375 67.59375 37.1875 62.59375 
Q 42.296875 57.59375 42.296875 50 
Q 42.296875 38.703125 29.5 25.203125 
L 13 7.59375 
L 36.40625 7.59375 
Q 39.703125 7.59375 41.640625 8.890625 
Q 43.59375 10.203125 46 14.296875 
z
" id="STIXGeneral-Regular-50"/>
      </defs>
      <use xlink:href="#STIXGeneral-Regular-8722"/>
      <use x="68.499985" xlink:href="#STIXGeneral-Regular-50"/>
     </g>
    </g>
   </g>
   <g id="xtick_2">
    <g id="line2d_3">
     <path d="M 189.15721 217.254202 
L 187.360066 218.91252 
" style="fill:none;stroke:#000000;stroke-linecap:square;stroke-width:0.8;"/>
    </g>
    <g id="text_2">
     <!-- 0 -->
     <g transform="translate(177.09207 244.900127)scale(0.16 -0.16)">
      <defs>
       <path d="M 47.59375 33 
Q 47.59375 26.296875 46.296875 20.34375 
Q 45 14.40625 42.453125 9.40625 
Q 39.90625 4.40625 35.40625 1.5 
Q 30.90625 -1.40625 25 -1.40625 
Q 18.90625 -1.40625 14.296875 1.6875 
Q 9.703125 4.796875 7.203125 10 
Q 4.703125 15.203125 3.546875 21.09375 
Q 2.40625 27 2.40625 33.59375 
Q 2.40625 42.90625 4.703125 50.34375 
Q 7 57.796875 12.34375 62.6875 
Q 17.703125 67.59375 25.40625 67.59375 
Q 35.203125 67.59375 41.390625 58 
Q 47.59375 48.40625 47.59375 33 
z
M 38 32.5 
Q 38 48.296875 34.640625 56.640625 
Q 31.296875 65 24.796875 65 
Q 18.59375 65 15.296875 56.59375 
Q 12 48.203125 12 32.90625 
Q 12 17.5 15.296875 9.34375 
Q 18.59375 1.203125 25 1.203125 
Q 31.296875 1.203125 34.640625 9.34375 
Q 38 17.5 38 32.5 
z
" id="STIXGeneral-Regular-48"/>
      </defs>
      <use xlink:href="#STIXGeneral-Regular-48"/>
     </g>
    </g>
   </g>
   <g id="xtick_3">
    <g id="line2d_4">
     <path d="M 228.866445 230.210423 
L 227.127072 231.92617 
" style="fill:none;stroke:#000000;stroke-linecap:square;stroke-width:0.8;"/>
    </g>
    <g id="text_3">
     <!-- 2 -->
     <g transform="translate(216.880055 258.215696)scale(0.16 -0.16)">
      <use xlink:href="#STIXGeneral-Regular-50"/>
     </g>
    </g>
   </g>
  </g>
  <g id="axis3d_2">
   <g id="line2d_5">
    <path d="M 316.12668 171.68791 
L 251.239879 238.27773 
" style="fill:none;stroke:#000000;stroke-linecap:square;stroke-width:0.8;"/>
   </g>
   <g id="Line3DCollection_2">
    <path d="M 139.224477 95.676373 
L 142.951437 186.774223 
L 263.802909 225.38497 
" style="fill:none;stroke:#b0b0b0;stroke-width:0.8;"/>
    <path d="M 163.958537 77.626582 
L 166.530371 167.009893 
L 285.136664 203.491289 
" style="fill:none;stroke:#b0b0b0;stroke-width:0.8;"/>
    <path d="M 187.323081 60.576202 
L 188.85788 148.294532 
L 305.281218 182.818021 
" style="fill:none;stroke:#b0b0b0;stroke-width:0.8;"/>
   </g>
   <g id="xtick_4">
    <g id="line2d_6">
     <path d="M 262.785044 225.059773 
L 265.841244 226.036197 
" style="fill:none;stroke:#000000;stroke-linecap:square;stroke-width:0.8;"/>
    </g>
    <g id="text_4">
     <!-- −2 -->
     <g transform="translate(267.072752 249.587355)scale(0.16 -0.16)">
      <use xlink:href="#STIXGeneral-Regular-8722"/>
      <use x="68.499985" xlink:href="#STIXGeneral-Regular-50"/>
     </g>
    </g>
   </g>
   <g id="xtick_5">
    <g id="line2d_7">
     <path d="M 284.139145 203.184468 
L 287.134182 204.105694 
" style="fill:none;stroke:#000000;stroke-linecap:square;stroke-width:0.8;"/>
    </g>
    <g id="text_5">
     <!-- 0 -->
     <g transform="translate(293.53573 227.297391)scale(0.16 -0.16)">
      <use xlink:href="#STIXGeneral-Regular-48"/>
     </g>
    </g>
   </g>
   <g id="xtick_6">
    <g id="line2d_8">
     <path d="M 304.303389 182.528062 
L 307.239239 183.398641 
" style="fill:none;stroke:#000000;stroke-linecap:square;stroke-width:0.8;"/>
    </g>
    <g id="text_6">
     <!-- 2 -->
     <g transform="translate(313.34826 206.25078)scale(0.16 -0.16)">
      <use xlink:href="#STIXGeneral-Regular-50"/>
     </g>
    </g>
   </g>
  </g>
  <g id="axis3d_3">
   <g id="line2d_9">
    <path d="M 316.12668 171.68791 
L 320.238571 81.894718 
" style="fill:none;stroke:#000000;stroke-linecap:square;stroke-width:0.8;"/>
   </g>
   <g id="Line3DCollection_3">
    <path d="M 316.205459 169.967571 
L 200.884845 136.530725 
L 129.013401 196.624949 
" style="fill:none;stroke:#b0b0b0;stroke-width:0.8;"/>
    <path d="M 317.744684 136.35483 
L 200.510732 103.99689 
L 127.355076 162.188753 
" style="fill:none;stroke:#b0b0b0;stroke-width:0.8;"/>
    <path d="M 319.336368 101.596538 
L 200.12449 70.408321 
L 125.638031 126.533203 
" style="fill:none;stroke:#b0b0b0;stroke-width:0.8;"/>
   </g>
   <g id="xtick_7">
    <g id="line2d_10">
     <path d="M 315.237563 169.686933 
L 318.143556 170.529516 
" style="fill:none;stroke:#000000;stroke-linecap:square;stroke-width:0.8;"/>
    </g>
    <g id="text_7">
     <!-- 0.00 -->
     <g transform="translate(320.457165 178.295909)scale(0.16 -0.16)">
      <defs>
       <path d="M 18.09375 4.296875 
Q 18.09375 2.09375 16.4375 0.5 
Q 14.796875 -1.09375 12.5 -1.09375 
Q 10.203125 -1.09375 8.59375 0.5 
Q 7 2.09375 7 4.390625 
Q 7 6.703125 8.640625 8.34375 
Q 10.296875 10 12.59375 10 
Q 14.796875 10 16.4375 8.296875 
Q 18.09375 6.59375 18.09375 4.296875 
z
" id="STIXGeneral-Regular-46"/>
      </defs>
      <use xlink:href="#STIXGeneral-Regular-48"/>
      <use x="49.999985" xlink:href="#STIXGeneral-Regular-46"/>
      <use x="74.999969" xlink:href="#STIXGeneral-Regular-48"/>
      <use x="124.999954" xlink:href="#STIXGeneral-Regular-48"/>
     </g>
    </g>
   </g>
   <g id="xtick_8">
    <g id="line2d_11">
     <path d="M 316.759957 136.083034 
L 319.716522 136.89908 
" style="fill:none;stroke:#000000;stroke-linecap:square;stroke-width:0.8;"/>
    </g>
    <g id="text_8">
     <!-- 0.02 -->
     <g transform="translate(322.295311 144.765199)scale(0.16 -0.16)">
      <use xlink:href="#STIXGeneral-Regular-48"/>
      <use x="49.999985" xlink:href="#STIXGeneral-Regular-46"/>
      <use x="74.999969" xlink:href="#STIXGeneral-Regular-48"/>
      <use x="124.999954" xlink:href="#STIXGeneral-Regular-50"/>
     </g>
    </g>
   </g>
   <g id="xtick_9">
    <g id="line2d_12">
     <path d="M 318.334215 101.334354 
L 321.34314 102.121549 
" style="fill:none;stroke:#000000;stroke-linecap:square;stroke-width:0.8;"/>
    </g>
    <g id="text_9">
     <!-- 0.04 -->
     <g transform="translate(324.195866 110.096072)scale(0.16 -0.16)">
      <defs>
       <path d="M 47.296875 16.703125 
L 37 16.703125 
L 37 0 
L 29.203125 0 
L 29.203125 16.703125 
L 1.203125 16.703125 
L 1.203125 23.09375 
L 32.59375 67.59375 
L 37 67.59375 
L 37 23.09375 
L 47.296875 23.09375 
z
M 29.203125 23.09375 
L 29.203125 57.40625 
L 5.203125 23.09375 
z
" id="STIXGeneral-Regular-52"/>
      </defs>
      <use xlink:href="#STIXGeneral-Regular-48"/>
      <use x="49.999985" xlink:href="#STIXGeneral-Regular-46"/>
      <use x="74.999969" xlink:href="#STIXGeneral-Regular-48"/>
      <use x="124.999954" xlink:href="#STIXGeneral-Regular-52"/>
     </g>
    </g>
   </g>
  </g>
  <g id="axes_1">
   <g id="line2d_13">
    <path clip-path="url(#pa79e50d8b3)" d="M 247.47239 166.656344 
L 248.122561 110.181553 
" style="fill:none;stroke:#1f77b4;stroke-linecap:square;stroke-width:1.5;"/>
    <defs>
     <path d="M 0 3 
C 0.795609 3 1.55874 2.683901 2.12132 2.12132 
C 2.683901 1.55874 3 0.795609 3 0 
C 3 -0.795609 2.683901 -1.55874 2.12132 -2.12132 
C 1.55874 -2.683901 0.795609 -3 0 -3 
C -0.795609 -3 -1.55874 -2.683901 -2.12132 -2.12132 
C -2.683901 -1.55874 -3 -0.795609 -3 0 
C -3 0.795609 -2.683901 1.55874 -2.12132 2.12132 
C -1.55874 2.683901 -0.795609 3 0 3 
z
" id="me8dfc88801" style="stroke:#1f77b4;"/>
    </defs>
    <g clip-path="url(#pa79e50d8b3)">
     <use style="fill:#1f77b4;stroke:#1f77b4;" x="248.122561" xlink:href="#me8dfc88801" y="110.181553"/>
    </g>
   </g>
   <g id="line2d_14">
    <path clip-path="url(#pa79e50d8b3)" d="M 235.636918 197.519474 
L 235.968769 139.405884 
" style="fill:none;stroke:#1f77b4;stroke-linecap:square;stroke-width:1.5;"/>
    <g clip-path="url(#pa79e50d8b3)">
     <use style="fill:#1f77b4;stroke:#1f77b4;" x="235.968769" xlink:href="#me8dfc88801" y="139.405884"/>
    </g>
   </g>
   <g id="line2d_15">
    <path clip-path="url(#pa79e50d8b3)" d="M 240.781738 176.47522 
L 241.250492 119.471253 
" style="fill:none;stroke:#1f77b4;stroke-linecap:square;stroke-width:1.5;"/>
    <g clip-path="url(#pa79e50d8b3)">
     <use style="fill:#1f77b4;stroke:#1f77b4;" x="241.250492" xlink:href="#me8dfc88801" y="119.471253"/>
    </g>
   </g>
   <g id="line2d_16">
    <path clip-path="url(#pa79e50d8b3)" d="M 231.966035 179.167508 
L 232.18432 122.019715 
" style="fill:none;stroke:#1f77b4;stroke-linecap:square;stroke-width:1.5;"/>
    <g clip-path="url(#pa79e50d8b3)">
     <use style="fill:#1f77b4;stroke:#1f77b4;" x="232.18432" xlink:href="#me8dfc88801" y="122.019715"/>
    </g>
   </g>
   <g id="line2d_17">
    <path clip-path="url(#pa79e50d8b3)" d="M 246.322979 178.694169 
L 246.951699 121.571623 
" style="fill:none;stroke:#1f77b4;stroke-linecap:square;stroke-width:1.5;"/>
    <g clip-path="url(#pa79e50d8b3)">
     <use style="fill:#1f77b4;stroke:#1f77b4;" x="246.951699" xlink:href="#me8dfc88801" y="121.571623"/>
    </g>
   </g>
   <g id="line2d_18">
    <path clip-path="url(#pa79e50d8b3)" d="M 234.282758 194.112003 
L 234.573444 136.175811 
" style="fill:none;stroke:#1f77b4;stroke-linecap:square;stroke-width:1.5;"/>
    <g clip-path="url(#pa79e50d8b3)">
     <use style="fill:#1f77b4;stroke:#1f77b4;" x="234.573444" xlink:href="#me8dfc88801" y="136.175811"/>
    </g>
   </g>
   <g id="line2d_19">
    <path clip-path="url(#pa79e50d8b3)" d="M 240.199086 187.457293 
L 240.658379 129.870086 
" style="fill:none;stroke:#1f77b4;stroke-linecap:square;stroke-width:1.5;"/>
    <g clip-path="url(#pa79e50d8b3)">
     <use style="fill:#1f77b4;stroke:#1f77b4;" x="240.658379" xlink:href="#me8dfc88801" y="129.870086"/>
    </g>
   </g>
   <g id="line2d_20">
    <path clip-path="url(#pa79e50d8b3)" d="M 202.100864 193.803564 
L 201.451116 135.883472 
" style="fill:none;stroke:#1f77b4;stroke-linecap:square;stroke-width:1.5;"/>
    <g clip-path="url(#pa79e50d8b3)">
     <use style="fill:#1f77b4;stroke:#1f77b4;" x="201.451116" xlink:href="#me8dfc88801" y="135.883472"/>
    </g>
   </g>
   <g id="line2d_21">
    <path clip-path="url(#pa79e50d8b3)" d="M 244.584736 198.952525 
L 245.180589 140.764592 
" style="fill:none;stroke:#1f77b4;stroke-linecap:square;stroke-width:1.5;"/>
    <g clip-path="url(#pa79e50d8b3)">
     <use style="fill:#1f77b4;stroke:#1f77b4;" x="245.180589" xlink:href="#me8dfc88801" y="140.764592"/>
    </g>
   </g>
   <g id="line2d_22">
    <path clip-path="url(#pa79e50d8b3)" d="M 217.906561 186.491233 
L 217.720564 128.954966 
" style="fill:none;stroke:#1f77b4;stroke-linecap:square;stroke-width:1.5;"/>
    <g clip-path="url(#pa79e50d8b3)">
     <use style="fill:#1f77b4;stroke:#1f77b4;" x="217.720564" xlink:href="#me8dfc88801" y="128.954966"/>
    </g>
   </g>
   <g id="line2d_23">
    <path clip-path="url(#pa79e50d8b3)" d="M 216.680905 186.333507 
L 216.459514 128.805564 
" style="fill:none;stroke:#1f77b4;stroke-linecap:square;stroke-width:1.5;"/>
    <g clip-path="url(#pa79e50d8b3)">
     <use style="fill:#1f77b4;stroke:#1f77b4;" x="216.459514" xlink:href="#me8dfc88801" y="128.805564"/>
    </g>
   </g>
   <g id="line2d_24">
    <path clip-path="url(#pa79e50d8b3)" d="M 200.982854 174.683617 
L 200.31877 117.775664 
" style="fill:none;stroke:#1f77b4;stroke-linecap:square;stroke-width:1.5;"/>
    <g clip-path="url(#pa79e50d8b3)">
     <use style="fill:#1f77b4;stroke:#1f77b4;" x="200.31877" xlink:href="#me8dfc88801" y="117.775664"/>
    </g>
   </g>
   <g id="line2d_25">
    <path clip-path="url(#pa79e50d8b3)" d="M 226.765328 161.961779 
L 226.833069 105.742565 
" style="fill:none;stroke:#1f77b4;stroke-linecap:square;stroke-width:1.5;"/>
    <g clip-path="url(#pa79e50d8b3)">
     <use style="fill:#1f77b4;stroke:#1f77b4;" x="226.833069" xlink:href="#me8dfc88801" y="105.742565"/>
    </g>
   </g>
   <g id="line2d_26">
    <path clip-path="url(#pa79e50d8b3)" d="M 242.111002 178.497613 
L 242.619124 121.385556 
" style="fill:none;stroke:#1f77b4;stroke-linecap:square;stroke-width:1.5;"/>
    <g clip-path="url(#pa79e50d8b3)">
     <use style="fill:#1f77b4;stroke:#1f77b4;" x="242.619124" xlink:href="#me8dfc88801" y="121.385556"/>
    </g>
   </g>
   <g id="line2d_27">
    <path clip-path="url(#pa79e50d8b3)" d="M 191.663458 195.50875 
L 190.706455 137.499735 
" style="fill:none;stroke:#1f77b4;stroke-linecap:square;stroke-width:1.5;"/>
    <g clip-path="url(#pa79e50d8b3)">
     <use style="fill:#1f77b4;stroke:#1f77b4;" x="190.706455" xlink:href="#me8dfc88801" y="137.499735"/>
    </g>
   </g>
   <g id="line2d_28">
    <path clip-path="url(#pa79e50d8b3)" d="M 198.226751 173.715922 
L 197.485337 116.859929 
" style="fill:none;stroke:#1f77b4;stroke-linecap:square;stroke-width:1.5;"/>
    <g clip-path="url(#pa79e50d8b3)">
     <use style="fill:#1f77b4;stroke:#1f77b4;" x="197.485337" xlink:href="#me8dfc88801" y="116.859929"/>
    </g>
   </g>
   <g id="line2d_29">
    <path clip-path="url(#pa79e50d8b3)" d="M 227.634219 183.718475 
L 227.729154 126.328807 
" style="fill:none;stroke:#1f77b4;stroke-linecap:square;stroke-width:1.5;"/>
    <g clip-path="url(#pa79e50d8b3)">
     <use style="fill:#1f77b4;stroke:#1f77b4;" x="227.729154" xlink:href="#me8dfc88801" y="126.328807"/>
    </g>
   </g>
   <g id="line2d_30">
    <path clip-path="url(#pa79e50d8b3)" d="M 204.918869 183.402604 
L 204.359753 126.029674 
" style="fill:none;stroke:#1f77b4;stroke-linecap:square;stroke-width:1.5;"/>
    <g clip-path="url(#pa79e50d8b3)">
     <use style="fill:#1f77b4;stroke:#1f77b4;" x="204.359753" xlink:href="#me8dfc88801" y="126.029674"/>
    </g>
   </g>
   <g id="line2d_31">
    <path clip-path="url(#pa79e50d8b3)" d="M 223.444864 172.821664 
L 223.419526 116.013751 
" style="fill:none;stroke:#1f77b4;stroke-linecap:square;stroke-width:1.5;"/>
    <g clip-path="url(#pa79e50d8b3)">
     <use style="fill:#1f77b4;stroke:#1f77b4;" x="223.419526" xlink:href="#me8dfc88801" y="116.013751"/>
    </g>
   </g>
   <g id="line2d_32">
    <path clip-path="url(#pa79e50d8b3)" d="M 203.928398 180.598147 
L 203.343115 123.37415 
" style="fill:none;stroke:#1f77b4;stroke-linecap:square;stroke-width:1.5;"/>
    <g clip-path="url(#pa79e50d8b3)">
     <use style="fill:#1f77b4;stroke:#1f77b4;" x="203.343115" xlink:href="#me8dfc88801" y="123.37415"/>
    </g>
   </g>
   <g id="line2d_33">
    <path clip-path="url(#pa79e50d8b3)" d="M 186.194007 198.682428 
L 185.071838 140.508495 
" style="fill:none;stroke:#1f77b4;stroke-linecap:square;stroke-width:1.5;"/>
    <g clip-path="url(#pa79e50d8b3)">
     <use style="fill:#1f77b4;stroke:#1f77b4;" x="185.071838" xlink:href="#me8dfc88801" y="140.508495"/>
    </g>
   </g>
   <g id="line2d_34">
    <path clip-path="url(#pa79e50d8b3)" d="M 254.375856 177.290486 
L 255.233145 120.242908 
" style="fill:none;stroke:#1f77b4;stroke-linecap:square;stroke-width:1.5;"/>
    <g clip-path="url(#pa79e50d8b3)">
     <use style="fill:#1f77b4;stroke:#1f77b4;" x="255.233145" xlink:href="#me8dfc88801" y="120.242908"/>
    </g>
   </g>
   <g id="line2d_35">
    <path clip-path="url(#pa79e50d8b3)" d="M 245.228109 180.192062 
L 245.826803 122.98968 
" style="fill:none;stroke:#1f77b4;stroke-linecap:square;stroke-width:1.5;"/>
    <g clip-path="url(#pa79e50d8b3)">
     <use style="fill:#1f77b4;stroke:#1f77b4;" x="245.826803" xlink:href="#me8dfc88801" y="122.98968"/>
    </g>
   </g>
   <g id="line2d_36">
    <path clip-path="url(#pa79e50d8b3)" d="M 252.941253 195.172259 
L 253.778596 137.180774 
" style="fill:none;stroke:#1f77b4;stroke-linecap:square;stroke-width:1.5;"/>
    <g clip-path="url(#pa79e50d8b3)">
     <use style="fill:#1f77b4;stroke:#1f77b4;" x="253.778596" xlink:href="#me8dfc88801" y="137.180774"/>
    </g>
   </g>
   <g id="line2d_37">
    <path clip-path="url(#pa79e50d8b3)" d="M 241.89204 197.898017 
L 242.407886 139.764774 
" style="fill:none;stroke:#1f77b4;stroke-linecap:square;stroke-width:1.5;"/>
    <g clip-path="url(#pa79e50d8b3)">
     <use style="fill:#1f77b4;stroke:#1f77b4;" x="242.407886" xlink:href="#me8dfc88801" y="139.764774"/>
    </g>
   </g>
   <g id="line2d_38">
    <path clip-path="url(#pa79e50d8b3)" d="M 210.912837 193.910851 
L 210.520503 135.985158 
" style="fill:none;stroke:#1f77b4;stroke-linecap:square;stroke-width:1.5;"/>
    <g clip-path="url(#pa79e50d8b3)">
     <use style="fill:#1f77b4;stroke:#1f77b4;" x="210.520503" xlink:href="#me8dfc88801" y="135.985158"/>
    </g>
   </g>
   <g id="line2d_39">
    <path clip-path="url(#pa79e50d8b3)" d="M 266.155811 178.573946 
L 267.351509 121.457815 
" style="fill:none;stroke:#1f77b4;stroke-linecap:square;stroke-width:1.5;"/>
    <g clip-path="url(#pa79e50d8b3)">
     <use style="fill:#1f77b4;stroke:#1f77b4;" x="267.351509" xlink:href="#me8dfc88801" y="121.457815"/>
    </g>
   </g>
   <g id="line2d_40">
    <path clip-path="url(#pa79e50d8b3)" d="M 263.332891 196.632657 
L 264.476786 138.565152 
" style="fill:none;stroke:#1f77b4;stroke-linecap:square;stroke-width:1.5;"/>
    <g clip-path="url(#pa79e50d8b3)">
     <use style="fill:#1f77b4;stroke:#1f77b4;" x="264.476786" xlink:href="#me8dfc88801" y="138.565152"/>
    </g>
   </g>
   <g id="line2d_41">
    <path clip-path="url(#pa79e50d8b3)" d="M 229.88462 201.239187 
L 230.048367 142.932948 
" style="fill:none;stroke:#1f77b4;stroke-linecap:square;stroke-width:1.5;"/>
    <g clip-path="url(#pa79e50d8b3)">
     <use style="fill:#1f77b4;stroke:#1f77b4;" x="230.048367" xlink:href="#me8dfc88801" y="142.932948"/>
    </g>
   </g>
   <g id="line2d_42">
    <path clip-path="url(#pa79e50d8b3)" d="M 217.407173 181.942601 
L 217.208029 124.647131 
" style="fill:none;stroke:#1f77b4;stroke-linecap:square;stroke-width:1.5;"/>
    <g clip-path="url(#pa79e50d8b3)">
     <use style="fill:#1f77b4;stroke:#1f77b4;" x="217.208029" xlink:href="#me8dfc88801" y="124.647131"/>
    </g>
   </g>
  </g>
 </g>
 <defs>
  <clipPath id="pa79e50d8b3">
   <rect height="217.44" width="217.44" x="112.68" y="34.56"/>
  </clipPath>
 </defs>
</svg>
