<?xml version="1.0" encoding="utf-8" standalone="no"?>
<!DOCTYPE svg PUBLIC "-//W3C//DTD SVG 1.1//EN"
  "http://www.w3.org/Graphics/SVG/1.1/DTD/svg11.dtd">
<!-- Created with matplotlib (https://matplotlib.org/) -->
<svg height="648pt" version="1.1" viewBox="0 0 720 648" width="720pt" xmlns="http://www.w3.org/2000/svg" xmlns:xlink="http://www.w3.org/1999/xlink">
 <metadata>
  <rdf:RDF xmlns:cc="http://creativecommons.org/ns#" xmlns:dc="http://purl.org/dc/elements/1.1/" xmlns:rdf="http://www.w3.org/1999/02/22-rdf-syntax-ns#">
   <cc:Work>
    <dc:type rdf:resource="http://purl.org/dc/dcmitype/StillImage"/>
    <dc:date>2021-03-04T22:26:11.918632</dc:date>
    <dc:format>image/svg+xml</dc:format>
    <dc:creator>
     <cc:Agent>
      <dc:title>Matplotlib v3.3.0, https://matplotlib.org/</dc:title>
     </cc:Agent>
    </dc:creator>
   </cc:Work>
  </rdf:RDF>
 </metadata>
 <defs>
  <style type="text/css">*{stroke-linecap:butt;stroke-linejoin:round;}</style>
 </defs>
 <g id="figure_1">
  <g id="patch_1">
   <path d="M 0 648 
L 720 648 
L 720 0 
L 0 0 
z
" style="fill:none;"/>
  </g>
  <g id="axes_1">
   <g id="patch_2">
    <path d="M 77.78 277.61 
L 702.72 277.61 
L 702.72 36.420625 
L 77.78 36.420625 
z
" style="fill:#ffffff;"/>
   </g>
   <g id="matplotlib.axis_1">
    <g id="xtick_1">
     <g id="line2d_1">
      <defs>
       <path d="M 0 0 
L 0 3.5 
" id="mcfcb9bccb2" style="stroke:#000000;stroke-width:0.8;"/>
      </defs>
      <g>
       <use style="stroke:#000000;stroke-width:0.8;" x="106.186364" xlink:href="#mcfcb9bccb2" y="277.61"/>
      </g>
     </g>
     <g id="text_1">
      <!-- −1.00 -->
      <g transform="translate(86.706364 295.5375)scale(0.16 -0.16)">
       <defs>
        <path d="M 62.09375 22 
L 6.40625 22 
L 6.40625 28.59375 
L 62.09375 28.59375 
z
" id="STIXGeneral-Regular-8722"/>
        <path d="M 39.40625 0 
L 11.796875 0 
L 11.796875 1.5 
Q 17.296875 1.796875 19.296875 3.546875 
Q 21.296875 5.296875 21.296875 9.5 
L 21.296875 54.40625 
Q 21.296875 59.296875 18.296875 59.296875 
Q 16.90625 59.296875 13.796875 58.09375 
L 11.09375 57.09375 
L 11.09375 58.5 
L 29 67.59375 
L 29.90625 67.296875 
L 29.90625 7.59375 
Q 29.90625 4.296875 31.90625 2.890625 
Q 33.90625 1.5 39.40625 1.5 
z
" id="STIXGeneral-Regular-49"/>
        <path d="M 18.09375 4.296875 
Q 18.09375 2.09375 16.4375 0.5 
Q 14.796875 -1.09375 12.5 -1.09375 
Q 10.203125 -1.09375 8.59375 0.5 
Q 7 2.09375 7 4.390625 
Q 7 6.703125 8.640625 8.34375 
Q 10.296875 10 12.59375 10 
Q 14.796875 10 16.4375 8.296875 
Q 18.09375 6.59375 18.09375 4.296875 
z
" id="STIXGeneral-Regular-46"/>
        <path d="M 47.59375 33 
Q 47.59375 26.296875 46.296875 20.34375 
Q 45 14.40625 42.453125 9.40625 
Q 39.90625 4.40625 35.40625 1.5 
Q 30.90625 -1.40625 25 -1.40625 
Q 18.90625 -1.40625 14.296875 1.6875 
Q 9.703125 4.796875 7.203125 10 
Q 4.703125 15.203125 3.546875 21.09375 
Q 2.40625 27 2.40625 33.59375 
Q 2.40625 42.90625 4.703125 50.34375 
Q 7 57.796875 12.34375 62.6875 
Q 17.703125 67.59375 25.40625 67.59375 
Q 35.203125 67.59375 41.390625 58 
Q 47.59375 48.40625 47.59375 33 
z
M 38 32.5 
Q 38 48.296875 34.640625 56.640625 
Q 31.296875 65 24.796875 65 
Q 18.59375 65 15.296875 56.59375 
Q 12 48.203125 12 32.90625 
Q 12 17.5 15.296875 9.34375 
Q 18.59375 1.203125 25 1.203125 
Q 31.296875 1.203125 34.640625 9.34375 
Q 38 17.5 38 32.5 
z
" id="STIXGeneral-Regular-48"/>
       </defs>
       <use xlink:href="#STIXGeneral-Regular-8722"/>
       <use x="68.499985" xlink:href="#STIXGeneral-Regular-49"/>
       <use x="118.499969" xlink:href="#STIXGeneral-Regular-46"/>
       <use x="143.499954" xlink:href="#STIXGeneral-Regular-48"/>
       <use x="193.499939" xlink:href="#STIXGeneral-Regular-48"/>
      </g>
     </g>
    </g>
    <g id="xtick_2">
     <g id="line2d_2">
      <g>
       <use style="stroke:#000000;stroke-width:0.8;" x="177.202273" xlink:href="#mcfcb9bccb2" y="277.61"/>
      </g>
     </g>
     <g id="text_2">
      <!-- −0.75 -->
      <g transform="translate(157.722273 295.5375)scale(0.16 -0.16)">
       <defs>
        <path d="M 44.90625 64.59375 
L 23.703125 -0.796875 
L 17.203125 -0.796875 
L 37 58.796875 
L 15.5 58.796875 
Q 11.203125 58.796875 9.09375 57.296875 
Q 7 55.796875 3.796875 50.59375 
L 2 51.5 
L 8 66.203125 
L 44.90625 66.203125 
z
" id="STIXGeneral-Regular-55"/>
        <path d="M 43.796875 68.09375 
L 40.203125 59.59375 
Q 39.59375 58.296875 37.5 58.296875 
L 18.09375 58.296875 
L 14.09375 49.796875 
Q 25.09375 47.703125 30 45.25 
Q 34.90625 42.796875 39.09375 37 
Q 42.59375 32.203125 42.59375 24.296875 
Q 42.59375 17.09375 40.25 12.1875 
Q 37.90625 7.296875 32.796875 3.5 
Q 26 -1.40625 15.796875 -1.40625 
Q 10.09375 -1.40625 6.59375 0.296875 
Q 3.09375 2 3.09375 4.796875 
Q 3.09375 8.59375 7.59375 8.59375 
Q 11.203125 8.59375 15 5.5 
Q 18.90625 2.296875 22.09375 2.296875 
Q 27.296875 2.296875 31.4375 7.5 
Q 35.59375 12.703125 35.59375 19.203125 
Q 35.59375 28.796875 28.90625 34.203125 
Q 20.203125 41.203125 7.59375 41.203125 
Q 6.40625 41.203125 6.40625 42 
L 6.5 42.5 
L 17.40625 66.203125 
L 38.09375 66.203125 
Q 39.796875 66.203125 40.75 66.703125 
Q 41.703125 67.203125 42.90625 68.796875 
z
" id="STIXGeneral-Regular-53"/>
       </defs>
       <use xlink:href="#STIXGeneral-Regular-8722"/>
       <use x="68.499985" xlink:href="#STIXGeneral-Regular-48"/>
       <use x="118.499969" xlink:href="#STIXGeneral-Regular-46"/>
       <use x="143.499954" xlink:href="#STIXGeneral-Regular-55"/>
       <use x="193.499939" xlink:href="#STIXGeneral-Regular-53"/>
      </g>
     </g>
    </g>
    <g id="xtick_3">
     <g id="line2d_3">
      <g>
       <use style="stroke:#000000;stroke-width:0.8;" x="248.218182" xlink:href="#mcfcb9bccb2" y="277.61"/>
      </g>
     </g>
     <g id="text_3">
      <!-- −0.50 -->
      <g transform="translate(228.738182 295.5375)scale(0.16 -0.16)">
       <use xlink:href="#STIXGeneral-Regular-8722"/>
       <use x="68.499985" xlink:href="#STIXGeneral-Regular-48"/>
       <use x="118.499969" xlink:href="#STIXGeneral-Regular-46"/>
       <use x="143.499954" xlink:href="#STIXGeneral-Regular-53"/>
       <use x="193.499939" xlink:href="#STIXGeneral-Regular-48"/>
      </g>
     </g>
    </g>
    <g id="xtick_4">
     <g id="line2d_4">
      <g>
       <use style="stroke:#000000;stroke-width:0.8;" x="319.234091" xlink:href="#mcfcb9bccb2" y="277.61"/>
      </g>
     </g>
     <g id="text_4">
      <!-- −0.25 -->
      <g transform="translate(299.754091 295.5375)scale(0.16 -0.16)">
       <defs>
        <path d="M 47.40625 13.703125 
L 42 0 
L 2.90625 0 
L 2.90625 1.203125 
L 20.703125 20.09375 
Q 27.703125 27.40625 30.703125 33.5 
Q 33.703125 39.59375 33.703125 46.09375 
Q 33.703125 52.796875 30 56.5 
Q 26.296875 60.203125 19.796875 60.203125 
Q 14.40625 60.203125 11.25 57.390625 
Q 8.09375 54.59375 5.09375 47.203125 
L 3 47.703125 
Q 4.703125 57 9.84375 62.296875 
Q 15 67.59375 23.796875 67.59375 
Q 32.09375 67.59375 37.1875 62.59375 
Q 42.296875 57.59375 42.296875 50 
Q 42.296875 38.703125 29.5 25.203125 
L 13 7.59375 
L 36.40625 7.59375 
Q 39.703125 7.59375 41.640625 8.890625 
Q 43.59375 10.203125 46 14.296875 
z
" id="STIXGeneral-Regular-50"/>
       </defs>
       <use xlink:href="#STIXGeneral-Regular-8722"/>
       <use x="68.499985" xlink:href="#STIXGeneral-Regular-48"/>
       <use x="118.499969" xlink:href="#STIXGeneral-Regular-46"/>
       <use x="143.499954" xlink:href="#STIXGeneral-Regular-50"/>
       <use x="193.499939" xlink:href="#STIXGeneral-Regular-53"/>
      </g>
     </g>
    </g>
    <g id="xtick_5">
     <g id="line2d_5">
      <g>
       <use style="stroke:#000000;stroke-width:0.8;" x="390.25" xlink:href="#mcfcb9bccb2" y="277.61"/>
      </g>
     </g>
     <g id="text_5">
      <!-- 0.00 -->
      <g transform="translate(376.25 295.5375)scale(0.16 -0.16)">
       <use xlink:href="#STIXGeneral-Regular-48"/>
       <use x="49.999985" xlink:href="#STIXGeneral-Regular-46"/>
       <use x="74.999969" xlink:href="#STIXGeneral-Regular-48"/>
       <use x="124.999954" xlink:href="#STIXGeneral-Regular-48"/>
      </g>
     </g>
    </g>
    <g id="xtick_6">
     <g id="line2d_6">
      <g>
       <use style="stroke:#000000;stroke-width:0.8;" x="461.265909" xlink:href="#mcfcb9bccb2" y="277.61"/>
      </g>
     </g>
     <g id="text_6">
      <!-- 0.25 -->
      <g transform="translate(447.265909 295.5375)scale(0.16 -0.16)">
       <use xlink:href="#STIXGeneral-Regular-48"/>
       <use x="49.999985" xlink:href="#STIXGeneral-Regular-46"/>
       <use x="74.999969" xlink:href="#STIXGeneral-Regular-50"/>
       <use x="124.999954" xlink:href="#STIXGeneral-Regular-53"/>
      </g>
     </g>
    </g>
    <g id="xtick_7">
     <g id="line2d_7">
      <g>
       <use style="stroke:#000000;stroke-width:0.8;" x="532.281818" xlink:href="#mcfcb9bccb2" y="277.61"/>
      </g>
     </g>
     <g id="text_7">
      <!-- 0.50 -->
      <g transform="translate(518.281818 295.5375)scale(0.16 -0.16)">
       <use xlink:href="#STIXGeneral-Regular-48"/>
       <use x="49.999985" xlink:href="#STIXGeneral-Regular-46"/>
       <use x="74.999969" xlink:href="#STIXGeneral-Regular-53"/>
       <use x="124.999954" xlink:href="#STIXGeneral-Regular-48"/>
      </g>
     </g>
    </g>
    <g id="xtick_8">
     <g id="line2d_8">
      <g>
       <use style="stroke:#000000;stroke-width:0.8;" x="603.297727" xlink:href="#mcfcb9bccb2" y="277.61"/>
      </g>
     </g>
     <g id="text_8">
      <!-- 0.75 -->
      <g transform="translate(589.297727 295.5375)scale(0.16 -0.16)">
       <use xlink:href="#STIXGeneral-Regular-48"/>
       <use x="49.999985" xlink:href="#STIXGeneral-Regular-46"/>
       <use x="74.999969" xlink:href="#STIXGeneral-Regular-55"/>
       <use x="124.999954" xlink:href="#STIXGeneral-Regular-53"/>
      </g>
     </g>
    </g>
    <g id="xtick_9">
     <g id="line2d_9">
      <g>
       <use style="stroke:#000000;stroke-width:0.8;" x="674.313636" xlink:href="#mcfcb9bccb2" y="277.61"/>
      </g>
     </g>
     <g id="text_9">
      <!-- 1.00 -->
      <g transform="translate(660.313636 295.5375)scale(0.16 -0.16)">
       <use xlink:href="#STIXGeneral-Regular-49"/>
       <use x="49.999985" xlink:href="#STIXGeneral-Regular-46"/>
       <use x="74.999969" xlink:href="#STIXGeneral-Regular-48"/>
       <use x="124.999954" xlink:href="#STIXGeneral-Regular-48"/>
      </g>
     </g>
    </g>
    <g id="text_10">
     <!-- X -->
     <g transform="translate(384.47375 313.9375)scale(0.16 -0.16)">
      <defs>
       <path d="M 70.40625 0 
L 40.796875 0 
L 40.796875 1.90625 
L 43.40625 2.09375 
Q 48.40625 2.40625 48.40625 5 
Q 48.40625 7.203125 43.296875 14.796875 
L 33.796875 28.90625 
L 21.90625 14 
Q 16.59375 7.40625 16.59375 5.09375 
Q 16.59375 3.59375 18.25 2.890625 
Q 19.90625 2.203125 24.203125 1.90625 
L 24.203125 0 
L 1 0 
L 1 1.90625 
Q 4.90625 2.296875 7.34375 4.1875 
Q 9.796875 6.09375 15.5 13.296875 
L 31.09375 32.796875 
L 20.5 48.296875 
Q 13.5 58.5 10.390625 61.140625 
Q 7.296875 63.796875 2.203125 64.296875 
L 2.203125 66.203125 
L 32.296875 66.203125 
L 32.296875 64.296875 
L 29.40625 64.203125 
Q 27.09375 64.09375 25.9375 63.5 
Q 24.796875 62.90625 24.796875 61.296875 
Q 24.796875 60.703125 24.9375 60.046875 
Q 25.09375 59.40625 25.546875 58.5 
Q 26 57.59375 26.390625 56.84375 
Q 26.796875 56.09375 27.640625 54.796875 
Q 28.5 53.5 29.09375 52.59375 
Q 29.703125 51.703125 31 49.84375 
Q 32.296875 48 33.09375 46.796875 
L 37.5 40.40625 
L 48.703125 54.40625 
Q 52.703125 59.296875 52.703125 61.09375 
Q 52.703125 62.796875 51.296875 63.5 
Q 49.90625 64.203125 45.90625 64.296875 
L 45.90625 66.203125 
L 69.59375 66.203125 
L 69.59375 64.296875 
Q 64.796875 64 62 62.140625 
Q 59.203125 60.296875 54.40625 54.40625 
L 40.09375 36.703125 
L 59.296875 9.296875 
Q 62.203125 5.09375 64.296875 3.75 
Q 66.40625 2.40625 70.40625 1.90625 
z
" id="STIXGeneral-Regular-88"/>
      </defs>
      <use xlink:href="#STIXGeneral-Regular-88"/>
     </g>
    </g>
   </g>
   <g id="matplotlib.axis_2">
    <g id="ytick_1">
     <g id="line2d_10">
      <defs>
       <path d="M 0 0 
L -3.5 0 
" id="m14815dd076" style="stroke:#000000;stroke-width:0.8;"/>
      </defs>
      <g>
       <use style="stroke:#000000;stroke-width:0.8;" x="77.78" xlink:href="#m14815dd076" y="275.221986"/>
      </g>
     </g>
     <g id="text_11">
      <!-- 0.000 -->
      <g transform="translate(34.78 280.685736)scale(0.16 -0.16)">
       <use xlink:href="#STIXGeneral-Regular-48"/>
       <use x="49.999985" xlink:href="#STIXGeneral-Regular-46"/>
       <use x="74.999969" xlink:href="#STIXGeneral-Regular-48"/>
       <use x="124.999954" xlink:href="#STIXGeneral-Regular-48"/>
       <use x="174.999939" xlink:href="#STIXGeneral-Regular-48"/>
      </g>
     </g>
    </g>
    <g id="ytick_2">
     <g id="line2d_11">
      <g>
       <use style="stroke:#000000;stroke-width:0.8;" x="77.78" xlink:href="#m14815dd076" y="227.461714"/>
      </g>
     </g>
     <g id="text_12">
      <!-- 0.002 -->
      <g transform="translate(34.78 232.925464)scale(0.16 -0.16)">
       <use xlink:href="#STIXGeneral-Regular-48"/>
       <use x="49.999985" xlink:href="#STIXGeneral-Regular-46"/>
       <use x="74.999969" xlink:href="#STIXGeneral-Regular-48"/>
       <use x="124.999954" xlink:href="#STIXGeneral-Regular-48"/>
       <use x="174.999939" xlink:href="#STIXGeneral-Regular-50"/>
      </g>
     </g>
    </g>
    <g id="ytick_3">
     <g id="line2d_12">
      <g>
       <use style="stroke:#000000;stroke-width:0.8;" x="77.78" xlink:href="#m14815dd076" y="179.701442"/>
      </g>
     </g>
     <g id="text_13">
      <!-- 0.004 -->
      <g transform="translate(34.78 185.165192)scale(0.16 -0.16)">
       <defs>
        <path d="M 47.296875 16.703125 
L 37 16.703125 
L 37 0 
L 29.203125 0 
L 29.203125 16.703125 
L 1.203125 16.703125 
L 1.203125 23.09375 
L 32.59375 67.59375 
L 37 67.59375 
L 37 23.09375 
L 47.296875 23.09375 
z
M 29.203125 23.09375 
L 29.203125 57.40625 
L 5.203125 23.09375 
z
" id="STIXGeneral-Regular-52"/>
       </defs>
       <use xlink:href="#STIXGeneral-Regular-48"/>
       <use x="49.999985" xlink:href="#STIXGeneral-Regular-46"/>
       <use x="74.999969" xlink:href="#STIXGeneral-Regular-48"/>
       <use x="124.999954" xlink:href="#STIXGeneral-Regular-48"/>
       <use x="174.999939" xlink:href="#STIXGeneral-Regular-52"/>
      </g>
     </g>
    </g>
    <g id="ytick_4">
     <g id="line2d_13">
      <g>
       <use style="stroke:#000000;stroke-width:0.8;" x="77.78" xlink:href="#m14815dd076" y="131.94117"/>
      </g>
     </g>
     <g id="text_14">
      <!-- 0.006 -->
      <g transform="translate(34.78 137.40492)scale(0.16 -0.16)">
       <defs>
        <path d="M 44.59375 68.40625 
L 44.796875 66.796875 
Q 33 64.90625 25.09375 57.25 
Q 17.203125 49.59375 15.203125 38.296875 
Q 21 42.796875 27.90625 42.796875 
Q 36.703125 42.796875 41.75 37.1875 
Q 46.796875 31.59375 46.796875 21.90625 
Q 46.796875 12.09375 41.703125 5.90625 
Q 35.796875 -1.40625 25.796875 -1.40625 
Q 13.59375 -1.40625 8.09375 8.703125 
Q 3.40625 17.296875 3.40625 27.90625 
Q 3.40625 44.296875 14.296875 55.5 
Q 20.5 61.90625 27.046875 64.546875 
Q 33.59375 67.203125 44.59375 68.40625 
z
M 37.796875 18.796875 
Q 37.796875 38.203125 24.296875 38.203125 
Q 19.296875 38.203125 16 35.546875 
Q 12.703125 32.90625 12.703125 26.59375 
Q 12.703125 14.90625 16.34375 8.15625 
Q 20 1.40625 26.90625 1.40625 
Q 32.203125 1.40625 35 6.15625 
Q 37.796875 10.90625 37.796875 18.796875 
z
" id="STIXGeneral-Regular-54"/>
       </defs>
       <use xlink:href="#STIXGeneral-Regular-48"/>
       <use x="49.999985" xlink:href="#STIXGeneral-Regular-46"/>
       <use x="74.999969" xlink:href="#STIXGeneral-Regular-48"/>
       <use x="124.999954" xlink:href="#STIXGeneral-Regular-48"/>
       <use x="174.999939" xlink:href="#STIXGeneral-Regular-54"/>
      </g>
     </g>
    </g>
    <g id="ytick_5">
     <g id="line2d_14">
      <g>
       <use style="stroke:#000000;stroke-width:0.8;" x="77.78" xlink:href="#m14815dd076" y="84.180897"/>
      </g>
     </g>
     <g id="text_15">
      <!-- 0.008 -->
      <g transform="translate(34.78 89.644647)scale(0.16 -0.16)">
       <defs>
        <path d="M 44.5 15.5 
Q 44.5 7.796875 39.140625 3.1875 
Q 33.796875 -1.40625 24.796875 -1.40625 
Q 16.40625 -1.40625 11 3.1875 
Q 5.59375 7.796875 5.59375 14.90625 
Q 5.59375 20.203125 8.1875 23.953125 
Q 10.796875 27.703125 18.59375 33.203125 
Q 11.09375 39.40625 8.640625 43.203125 
Q 6.203125 47 6.203125 52 
Q 6.203125 59.09375 11.640625 63.34375 
Q 17.09375 67.59375 25.59375 67.59375 
Q 32.90625 67.59375 37.65625 63.4375 
Q 42.40625 59.296875 42.40625 53.296875 
Q 42.40625 47.796875 39.546875 44.5 
Q 36.703125 41.203125 29 37.09375 
Q 38 31.09375 41.25 26.390625 
Q 44.5 21.703125 44.5 15.5 
z
M 35.5 53.296875 
Q 35.5 58.5 32.59375 61.640625 
Q 29.703125 64.796875 24.59375 64.796875 
Q 19.5 64.796875 16.546875 62.140625 
Q 13.59375 59.5 13.59375 54.890625 
Q 13.59375 50.296875 16.546875 46.546875 
Q 19.5 42.796875 26.09375 38.90625 
Q 31.203125 41.90625 33.34375 45.25 
Q 35.5 48.59375 35.5 53.296875 
z
M 27.09375 27.203125 
L 21.203125 31.203125 
Q 16.796875 27.59375 15 24.140625 
Q 13.203125 20.703125 13.203125 15.796875 
Q 13.203125 9 16.640625 5.203125 
Q 20.09375 1.40625 25.90625 1.40625 
Q 30.796875 1.40625 33.84375 4.453125 
Q 36.90625 7.5 36.90625 12.40625 
Q 36.90625 16.90625 34.59375 20.296875 
Q 32.296875 23.703125 27.09375 27.203125 
z
" id="STIXGeneral-Regular-56"/>
       </defs>
       <use xlink:href="#STIXGeneral-Regular-48"/>
       <use x="49.999985" xlink:href="#STIXGeneral-Regular-46"/>
       <use x="74.999969" xlink:href="#STIXGeneral-Regular-48"/>
       <use x="124.999954" xlink:href="#STIXGeneral-Regular-48"/>
       <use x="174.999939" xlink:href="#STIXGeneral-Regular-56"/>
      </g>
     </g>
    </g>
    <g id="ytick_6">
     <g id="line2d_15">
      <g>
       <use style="stroke:#000000;stroke-width:0.8;" x="77.78" xlink:href="#m14815dd076" y="36.420625"/>
      </g>
     </g>
     <g id="text_16">
      <!-- 0.010 -->
      <g transform="translate(34.78 41.884375)scale(0.16 -0.16)">
       <use xlink:href="#STIXGeneral-Regular-48"/>
       <use x="49.999985" xlink:href="#STIXGeneral-Regular-46"/>
       <use x="74.999969" xlink:href="#STIXGeneral-Regular-48"/>
       <use x="124.999954" xlink:href="#STIXGeneral-Regular-49"/>
       <use x="174.999939" xlink:href="#STIXGeneral-Regular-48"/>
      </g>
     </g>
    </g>
    <g id="text_17">
     <!-- P(X|Y) -->
     <g transform="translate(27.3075 179.951562)rotate(-90)scale(0.16 -0.16)">
      <defs>
       <path d="M 1.59375 66.203125 
L 27.5 66.203125 
Q 41.703125 66.203125 49.203125 59.90625 
Q 54.203125 55.703125 54.203125 48 
Q 54.203125 40 48.5 34.90625 
Q 44.296875 31.09375 39.890625 29.9375 
Q 35.5 28.796875 27.09375 28.796875 
Q 24.203125 28.796875 20.203125 29.09375 
L 20.203125 11.203125 
Q 20.203125 5.5 21.84375 3.84375 
Q 23.5 2.203125 29.59375 1.90625 
L 29.59375 0 
L 1.59375 0 
L 1.59375 1.90625 
Q 7.40625 2.296875 8.703125 4 
Q 10 5.703125 10 12.203125 
L 10 55.09375 
Q 10 60.703125 8.546875 62.296875 
Q 7.09375 63.90625 1.59375 64.296875 
z
M 20.203125 58.90625 
L 20.203125 33.09375 
Q 23.59375 32.796875 26.296875 32.796875 
Q 34.40625 32.796875 38.84375 36.75 
Q 43.296875 40.703125 43.296875 47.5 
Q 43.296875 55.59375 38.6875 59.046875 
Q 34.09375 62.5 23.703125 62.5 
Q 21.59375 62.5 20.890625 61.75 
Q 20.203125 61 20.203125 58.90625 
z
" id="STIXGeneral-Regular-80"/>
       <path d="M 30.40625 -16.09375 
L 29.203125 -17.703125 
Q 17.59375 -11.09375 11.1875 0.5 
Q 4.796875 12.09375 4.796875 25.203125 
Q 4.796875 52.90625 29.5 67.59375 
L 30.40625 66 
Q 20.203125 57.296875 16.796875 48.84375 
Q 13.40625 40.40625 13.40625 25.5 
Q 13.40625 10.703125 16.90625 1.5 
Q 20.40625 -7.703125 30.40625 -16.09375 
z
" id="STIXGeneral-Regular-40"/>
       <path d="M 13.296875 -1.40625 
L 6.703125 -1.40625 
L 6.703125 67.59375 
L 13.296875 67.59375 
z
" id="STIXGeneral-Regular-124"/>
       <path d="M 70.296875 66.203125 
L 70.296875 64.296875 
Q 65.90625 63.90625 63.34375 61.796875 
Q 60.796875 59.703125 56.5 53.09375 
L 41.703125 30.296875 
L 41.703125 11.09375 
Q 41.703125 5.40625 43.59375 3.796875 
Q 45.5 2.203125 52 1.90625 
L 52 0 
L 21.40625 0 
L 21.40625 1.90625 
Q 28.203125 2.40625 29.84375 4.046875 
Q 31.5 5.703125 31.5 12.296875 
L 31.5 29.40625 
L 18.40625 48.59375 
Q 11.59375 58.59375 8.6875 61.34375 
Q 5.796875 64.09375 2.203125 64.296875 
L 2.203125 66.203125 
L 30.09375 66.203125 
L 30.09375 64.296875 
L 27.703125 64.203125 
Q 23 64.09375 23 61.59375 
Q 23 59.5 24.796875 56.90625 
L 39.40625 34.796875 
L 53.90625 57 
Q 55.296875 59.09375 55.296875 61.203125 
Q 55.203125 62.90625 53.75 63.546875 
Q 52.296875 64.203125 48.5 64.296875 
L 48.5 66.203125 
z
" id="STIXGeneral-Regular-89"/>
       <path d="M 2.90625 66 
L 4.09375 67.59375 
Q 15.5 60.796875 22 49.1875 
Q 28.5 37.59375 28.5 24.703125 
Q 28.5 -2.59375 3.796875 -17.703125 
L 2.90625 -16.09375 
Q 13.203125 -7.59375 16.546875 0.84375 
Q 19.90625 9.296875 19.90625 24.40625 
Q 19.90625 39.59375 16.546875 48.75 
Q 13.203125 57.90625 2.90625 66 
z
" id="STIXGeneral-Regular-41"/>
      </defs>
      <use xlink:href="#STIXGeneral-Regular-80"/>
      <use x="55.699997" xlink:href="#STIXGeneral-Regular-40"/>
      <use x="88.999985" xlink:href="#STIXGeneral-Regular-88"/>
      <use x="161.199966" xlink:href="#STIXGeneral-Regular-124"/>
      <use x="181.199951" xlink:href="#STIXGeneral-Regular-89"/>
      <use x="253.399933" xlink:href="#STIXGeneral-Regular-41"/>
     </g>
    </g>
   </g>
   <g id="line2d_16">
    <path clip-path="url(#p3a359656ff)" d="M 106.186364 275.221983 
L 166.468136 275.118481 
L 175.567272 274.881461 
L 181.254232 274.541592 
L 185.803799 274.071935 
L 189.784671 273.439441 
L 193.196847 272.667013 
L 196.040327 271.810938 
L 198.883807 270.713429 
L 201.15859 269.626675 
L 203.433374 268.322356 
L 205.708158 266.768374 
L 207.982942 264.930602 
L 210.257726 262.773395 
L 212.53251 260.260264 
L 214.807294 257.354729 
L 217.082078 254.021337 
L 219.356861 250.226858 
L 221.631645 245.941618 
L 223.906429 241.140962 
L 226.181213 235.80679 
L 228.455997 229.929132 
L 230.730781 223.507687 
L 233.574261 214.733829 
L 236.41774 205.176781 
L 239.829916 192.792248 
L 243.810788 177.351062 
L 257.459491 123.318058 
L 260.302971 113.517055 
L 262.577755 106.4449 
L 264.852539 100.189503 
L 266.558627 96.101672 
L 268.264715 92.578395 
L 269.970803 89.656399 
L 271.108195 88.05793 
L 272.245586 86.748097 
L 273.382978 85.73313 
L 274.52037 85.017879 
L 275.657762 84.605769 
L 276.795154 84.49878 
L 277.932546 84.697426 
L 279.069938 85.200752 
L 280.20733 86.006344 
L 281.344722 87.110343 
L 282.482114 88.507483 
L 283.619506 90.191126 
L 285.325594 93.236042 
L 287.031682 96.875346 
L 288.73777 101.071205 
L 290.443857 105.780665 
L 292.718641 112.776514 
L 294.993425 120.479046 
L 297.836905 130.903022 
L 301.817777 146.512598 
L 313.191696 191.935446 
L 316.603872 204.380597 
L 319.447352 213.99722 
L 322.290832 222.835948 
L 325.134312 230.845559 
L 327.409095 236.641422 
L 329.683879 241.894714 
L 331.958663 246.616726 
L 334.233447 250.82664 
L 336.508231 254.549961 
L 338.783015 257.816987 
L 341.057799 260.661364 
L 343.332583 263.11877 
L 345.607366 265.225747 
L 347.88215 267.018709 
L 350.156934 268.533111 
L 352.431718 269.802804 
L 355.275198 271.093954 
L 358.118678 272.108831 
L 360.962158 272.897607 
L 364.374333 273.606549 
L 368.355205 274.184417 
L 372.904773 274.61128 
L 378.591733 274.918293 
L 386.553476 275.115219 
L 400.770875 275.208407 
L 462.758736 275.221986 
L 674.313636 275.221986 
L 674.313636 275.221986 
" style="fill:none;stroke:#1f77b4;stroke-linecap:square;stroke-width:1.5;"/>
   </g>
   <g id="line2d_17">
    <path clip-path="url(#p3a359656ff)" d="M 106.186364 275.221939 
L 215.37599 275.111846 
L 236.986436 274.862434 
L 251.203836 274.486825 
L 262.577755 273.96534 
L 271.676891 273.336379 
L 279.638634 272.577454 
L 287.031682 271.652185 
L 293.856033 270.569399 
L 300.111689 269.350425 
L 305.798649 268.027991 
L 311.485608 266.478083 
L 317.172568 264.679107 
L 322.290832 262.830848 
L 327.409095 260.752826 
L 332.527359 258.435663 
L 337.645623 255.873457 
L 342.763887 253.064501 
L 347.88215 250.01197 
L 353.56911 246.34535 
L 359.25607 242.409528 
L 365.511725 237.805825 
L 372.904773 232.06847 
L 383.1413 223.806981 
L 396.221308 213.294883 
L 402.476963 208.539802 
L 408.163923 204.498661 
L 412.713491 201.516739 
L 417.263059 198.80215 
L 421.24393 196.676245 
L 425.224802 194.807677 
L 428.636978 193.426818 
L 432.049154 192.261996 
L 435.46133 191.323049 
L 438.873505 190.617976 
L 442.285681 190.152821 
L 445.697857 189.931593 
L 449.110033 189.956202 
L 452.522209 190.226436 
L 455.934384 190.739962 
L 459.34656 191.492357 
L 462.758736 192.47718 
L 466.170912 193.686052 
L 469.583088 195.108786 
L 473.563959 197.02303 
L 477.544831 199.190762 
L 482.094399 201.947955 
L 486.643967 204.966516 
L 491.76223 208.623669 
L 498.017886 213.383677 
L 506.548326 220.197974 
L 524.746597 234.838729 
L 531.570948 240.014981 
L 537.826604 244.488112 
L 543.513564 248.287117 
L 549.200523 251.804994 
L 554.318787 254.717486 
L 559.437051 257.383934 
L 564.555314 259.804066 
L 569.673578 261.982099 
L 574.791842 263.926032 
L 579.910106 265.646922 
L 585.597065 267.313789 
L 591.284025 268.742628 
L 597.539681 270.066008 
L 603.795336 271.158697 
L 610.619688 272.122876 
L 618.012735 272.94093 
L 626.543175 273.647108 
L 636.211006 274.209389 
L 647.584926 274.637335 
L 661.802325 274.940705 
L 674.313636 275.080239 
L 674.313636 275.080239 
" style="fill:none;stroke:#ff7f0e;stroke-linecap:square;stroke-width:1.5;"/>
   </g>
   <g id="line2d_18">
    <path clip-path="url(#p3a359656ff)" d="M 339.351711 275.221986 
L 339.351711 84.180897 
" style="fill:none;stroke:#000000;stroke-dasharray:5.55,2.4;stroke-dashoffset:0;stroke-width:1.5;"/>
   </g>
   <g id="patch_3">
    <path d="M 77.78 277.61 
L 77.78 36.420625 
" style="fill:none;stroke:#000000;stroke-linecap:square;stroke-linejoin:miter;stroke-width:0.8;"/>
   </g>
   <g id="patch_4">
    <path d="M 702.72 277.61 
L 702.72 36.420625 
" style="fill:none;stroke:#000000;stroke-linecap:square;stroke-linejoin:miter;stroke-width:0.8;"/>
   </g>
   <g id="patch_5">
    <path d="M 77.78 277.61 
L 702.72 277.61 
" style="fill:none;stroke:#000000;stroke-linecap:square;stroke-linejoin:miter;stroke-width:0.8;"/>
   </g>
   <g id="patch_6">
    <path d="M 77.78 36.420625 
L 702.72 36.420625 
" style="fill:none;stroke:#000000;stroke-linecap:square;stroke-linejoin:miter;stroke-width:0.8;"/>
   </g>
   <g id="text_18">
    <!-- Decision Boundary -->
    <g transform="translate(282.538984 72.240829)scale(0.16 -0.16)">
     <defs>
      <path d="M 1.59375 66.203125 
L 28.59375 66.203125 
Q 48.09375 66.203125 58.59375 57.09375 
Q 68.5 48.59375 68.5 33.40625 
Q 68.5 15.09375 54.90625 6.40625 
Q 45 0 29.703125 0 
L 1.59375 0 
L 1.59375 1.90625 
Q 7.40625 2.296875 8.90625 3.9375 
Q 10.40625 5.59375 10.40625 11.5 
L 10.40625 55 
Q 10.40625 60.796875 8.90625 62.34375 
Q 7.40625 63.90625 1.59375 64.296875 
z
M 20.59375 58.296875 
L 20.59375 8.40625 
Q 20.59375 5.703125 21.546875 4.703125 
Q 22.5 3.703125 25.40625 3.703125 
Q 33.203125 3.703125 38 4.796875 
Q 42.796875 5.90625 47.203125 8.90625 
Q 57.59375 15.90625 57.59375 32.796875 
Q 57.59375 47.296875 48.09375 55.59375 
Q 43.796875 59.40625 38.6875 60.953125 
Q 33.59375 62.5 25.90625 62.5 
Q 23 62.5 21.796875 61.59375 
Q 20.59375 60.703125 20.59375 58.296875 
z
" id="STIXGeneral-Regular-68"/>
      <path d="M 40.796875 16.40625 
L 42.40625 15.703125 
Q 36.40625 -1 21.5 -1 
Q 12.703125 -1 7.59375 5.140625 
Q 2.5 11.296875 2.5 21.703125 
Q 2.5 32.40625 8.203125 39.203125 
Q 13.90625 46 23.203125 46 
Q 32.203125 46 37.09375 39.09375 
Q 40 35.09375 40.5 27.703125 
L 9.703125 27.703125 
Q 10.09375 21.40625 10.9375 18.09375 
Q 11.796875 14.796875 14.296875 11.40625 
Q 18.5 5.90625 25.40625 5.90625 
Q 30.296875 5.90625 33.640625 8.296875 
Q 37 10.703125 40.796875 16.40625 
z
M 9.90625 30.90625 
L 30.296875 30.90625 
Q 29.40625 37.203125 27.34375 39.796875 
Q 25.296875 42.40625 20.5 42.40625 
Q 16.296875 42.40625 13.5 39.453125 
Q 10.703125 36.5 9.90625 30.90625 
z
" id="STIXGeneral-Regular-101"/>
      <path d="M 39.796875 15.59375 
L 41.203125 14.703125 
Q 36.90625 6.296875 33 3.203125 
Q 27.90625 -1 21.5 -1 
Q 13.203125 -1 7.84375 5.25 
Q 2.5 11.5 2.5 21.203125 
Q 2.5 33.90625 10.90625 40.90625 
Q 17.09375 46 24.40625 46 
Q 30.703125 46 35.25 42.953125 
Q 39.796875 39.90625 39.796875 35.703125 
Q 39.796875 34 38.390625 32.75 
Q 37 31.5 35.09375 31.5 
Q 31.59375 31.5 30.296875 36.09375 
L 29.703125 38.296875 
Q 28.90625 41.09375 27.703125 42.09375 
Q 26.5 43.09375 23.796875 43.09375 
Q 17.703125 43.09375 13.953125 38.296875 
Q 10.203125 33.5 10.203125 25.703125 
Q 10.203125 17.09375 14.5 11.640625 
Q 18.796875 6.203125 25.703125 6.203125 
Q 30 6.203125 33.09375 8.25 
Q 36.203125 10.296875 39.796875 15.59375 
z
" id="STIXGeneral-Regular-99"/>
      <path d="M 18 63.203125 
Q 18 61 16.5 59.546875 
Q 15 58.09375 12.796875 58.09375 
Q 10.703125 58.09375 9.25 59.546875 
Q 7.796875 61 7.796875 63.203125 
Q 7.796875 65.296875 9.296875 66.796875 
Q 10.796875 68.296875 12.90625 68.296875 
Q 15.09375 68.296875 16.546875 66.796875 
Q 18 65.296875 18 63.203125 
z
M 25.296875 0 
L 1.59375 0 
L 1.59375 1.5 
Q 6.796875 1.796875 8.140625 3.296875 
Q 9.5 4.796875 9.5 10.40625 
L 9.5 33.09375 
Q 9.5 36.59375 8.796875 38 
Q 8.09375 39.40625 6.203125 39.40625 
Q 3.796875 39.40625 2 38.90625 
L 2 40.5 
L 17.5 46 
L 17.90625 45.59375 
L 17.90625 10.5 
Q 17.90625 4.90625 19.15625 3.40625 
Q 20.40625 1.90625 25.296875 1.5 
z
" id="STIXGeneral-Regular-105"/>
      <path d="M 15.59375 30.09375 
L 26 23.796875 
Q 31 20.796875 32.890625 18.1875 
Q 34.796875 15.59375 34.796875 11.5 
Q 34.796875 6.5 30.640625 2.75 
Q 26.5 -1 20.796875 -1 
Q 16.09375 -1 13.5 -0.09375 
Q 10.796875 0.796875 8.90625 0.796875 
Q 7.203125 0.796875 6.5 -0.40625 
L 5.203125 -0.40625 
L 5.203125 15.296875 
L 6.796875 15.296875 
Q 8.40625 8 11.40625 4.59375 
Q 14.40625 1.203125 19.5 1.203125 
Q 23.203125 1.203125 25.5 3.296875 
Q 27.796875 5.40625 27.796875 8.59375 
Q 27.796875 13.203125 22.5 16.09375 
L 17.09375 19.09375 
Q 5.09375 25.796875 5.09375 33.59375 
Q 5.09375 39.40625 8.84375 42.65625 
Q 12.59375 45.90625 18.90625 45.90625 
Q 23.296875 45.90625 25.59375 44.796875 
Q 27.40625 44 28.40625 44 
Q 29.09375 44 30 45 
L 31.09375 45 
L 31.59375 31.40625 
L 30.09375 31.40625 
Q 28.40625 38.203125 25.84375 40.953125 
Q 23.296875 43.703125 18.796875 43.703125 
Q 15.40625 43.703125 13.34375 42 
Q 11.296875 40.296875 11.296875 36.90625 
Q 11.296875 35.203125 12.4375 33.25 
Q 13.59375 31.296875 15.59375 30.09375 
z
" id="STIXGeneral-Regular-115"/>
      <path d="M 47 23.09375 
Q 47 12.59375 40.75 5.796875 
Q 34.5 -1 24.5 -1 
Q 15.296875 -1 9.09375 5.75 
Q 2.90625 12.5 2.90625 22.796875 
Q 2.90625 33.203125 9.09375 39.59375 
Q 15.296875 46 25.40625 46 
Q 34.703125 46 40.84375 39.640625 
Q 47 33.296875 47 23.09375 
z
M 38 20.40625 
Q 38 31.796875 33 38.203125 
Q 29 43.203125 23.5 43.203125 
Q 18.296875 43.203125 15.09375 38.953125 
Q 11.90625 34.703125 11.90625 27.296875 
Q 11.90625 14.5 17.203125 6.796875 
Q 20.59375 1.796875 26.203125 1.796875 
Q 31.703125 1.796875 34.84375 6.75 
Q 38 11.703125 38 20.40625 
z
" id="STIXGeneral-Regular-111"/>
      <path d="M 48.5 0 
L 27.703125 0 
L 27.796875 1.5 
Q 31.5 1.796875 32.75 3.640625 
Q 34 5.5 34 10.5 
L 34 30.40625 
Q 34 40.5 26.703125 40.5 
Q 24.203125 40.5 22 39.296875 
Q 19.796875 38.09375 16.40625 34.796875 
L 16.40625 7.203125 
Q 16.40625 4.203125 17.75 3 
Q 19.09375 1.796875 22.90625 1.5 
L 22.90625 0 
L 1.796875 0 
L 1.796875 1.5 
Q 5.59375 1.796875 6.796875 3.34375 
Q 8 4.90625 8 9.40625 
L 8 33.703125 
Q 8 37.40625 7.296875 38.796875 
Q 6.59375 40.203125 4.5 40.203125 
Q 2.5 40.203125 1.59375 39.796875 
L 1.59375 41.5 
Q 8.59375 43.5 15.296875 46 
L 16.09375 45.703125 
L 16.09375 37.90625 
L 16.203125 37.90625 
Q 23.296875 46 30.59375 46 
Q 36.296875 46 39.34375 42 
Q 42.40625 38 42.40625 30.59375 
L 42.40625 8.5 
Q 42.40625 4.5 43.59375 3.203125 
Q 44.796875 1.90625 48.5 1.5 
z
" id="STIXGeneral-Regular-110"/>
      <path id="STIXGeneral-Regular-32"/>
      <path d="M 42.203125 34.90625 
L 42.203125 34.796875 
Q 49.703125 33.59375 54.40625 29.296875 
Q 59.296875 24.90625 59.296875 17.796875 
Q 59.296875 9.5 52.796875 4.75 
Q 46.296875 0 35.40625 0 
L 1.703125 0 
L 1.703125 1.90625 
Q 7.59375 2.09375 9.4375 3.84375 
Q 11.296875 5.59375 11.296875 11.296875 
L 11.296875 55 
Q 11.296875 60.796875 9.59375 62.34375 
Q 7.90625 63.90625 1.703125 64.296875 
L 1.703125 66.203125 
L 29.703125 66.203125 
Q 42.59375 66.203125 49.25 61.84375 
Q 55.90625 57.5 55.90625 49.5 
Q 55.90625 42.703125 51.796875 39.09375 
Q 48.90625 36.59375 42.203125 34.90625 
z
M 21.5 36.59375 
L 30.703125 36.59375 
Q 45.703125 36.59375 45.703125 49 
Q 45.703125 55.40625 41.25 58.953125 
Q 36.796875 62.5 28 62.5 
L 23.90625 62.5 
Q 21.5 62.5 21.5 59.296875 
z
M 21.5 32.59375 
L 21.5 8.203125 
Q 21.5 5.703125 22.84375 4.703125 
Q 24.203125 3.703125 27.703125 3.703125 
Q 34.5 3.703125 37.703125 4.453125 
Q 40.90625 5.203125 44 8 
Q 47.796875 11.296875 47.796875 17.90625 
Q 47.796875 25.5 43.09375 28.59375 
Q 42 29.40625 40.890625 29.953125 
Q 39.796875 30.5 38.9375 30.84375 
Q 38.09375 31.203125 36.6875 31.5 
Q 35.296875 31.796875 34.546875 31.9375 
Q 33.796875 32.09375 31.890625 32.1875 
Q 30 32.296875 29.09375 32.34375 
Q 28.203125 32.40625 25.546875 32.5 
Q 22.90625 32.59375 21.5 32.59375 
z
" id="STIXGeneral-Regular-66"/>
      <path d="M 48 5 
L 48 3.59375 
Q 40.203125 1.5 34.296875 -0.90625 
L 33.796875 -0.59375 
L 33.796875 7.59375 
L 33.59375 7.59375 
Q 27.296875 -1 19.296875 -1 
Q 13.59375 -1 10.34375 2.5 
Q 7.09375 6 7.09375 11.796875 
L 7.09375 36.90625 
Q 7.09375 40.59375 5.796875 42 
Q 4.5 43.40625 0.90625 43.59375 
L 0.90625 45 
L 15.5 45 
L 15.5 12.703125 
Q 15.5 9.296875 17.546875 7.046875 
Q 19.59375 4.796875 22.59375 4.796875 
Q 27.5 4.796875 31 7.90625 
Q 32.296875 9.09375 32.796875 10.140625 
Q 33.296875 11.203125 33.296875 13.703125 
L 33.296875 36.796875 
Q 33.296875 40.703125 31.890625 41.84375 
Q 30.5 43 25.90625 43.296875 
L 25.90625 45 
L 41.703125 45 
L 41.703125 10.703125 
Q 41.703125 7.203125 42.84375 6.09375 
Q 44 5 47.40625 5 
z
" id="STIXGeneral-Regular-117"/>
      <path d="M 49.09375 4.203125 
L 34.40625 -1 
L 34 -0.703125 
L 34 5.703125 
Q 29.203125 -1 21.203125 -1 
Q 12.90625 -1 7.796875 4.953125 
Q 2.703125 10.90625 2.703125 20.5 
Q 2.703125 31.09375 8.796875 38.546875 
Q 14.90625 46 23.5 46 
Q 28.90625 46 34 41.703125 
L 34 57.296875 
Q 34 60.40625 33.09375 61.40625 
Q 32.203125 62.40625 29.40625 62.40625 
Q 28 62.40625 27.203125 62.296875 
L 27.203125 63.90625 
Q 36.296875 66.296875 41.90625 68.296875 
L 42.40625 68.09375 
L 42.40625 11.40625 
Q 42.40625 7.90625 43.25 6.796875 
Q 44.09375 5.703125 46.796875 5.703125 
Q 47.40625 5.703125 49.09375 5.796875 
z
M 34 10.203125 
L 34 33.203125 
Q 34 37.203125 30.953125 40.203125 
Q 27.90625 43.203125 23.796875 43.203125 
Q 18.09375 43.203125 14.6875 38.09375 
Q 11.296875 33 11.296875 24.5 
Q 11.296875 15.296875 15.046875 9.75 
Q 18.796875 4.203125 25.09375 4.203125 
Q 29.796875 4.203125 32.5 7.40625 
Q 34 9.09375 34 10.203125 
z
" id="STIXGeneral-Regular-100"/>
      <path d="M 44.203125 6.59375 
L 44.203125 3.796875 
Q 40.40625 -1 35.203125 -1 
Q 29.5 -1 28.796875 6.296875 
L 28.703125 6.296875 
Q 22.296875 -1 14.203125 -1 
Q 9.5 -1 6.59375 1.75 
Q 3.703125 4.5 3.703125 9.40625 
Q 3.703125 16.40625 10.703125 21.09375 
Q 15.5 24.296875 28.703125 29.203125 
L 28.703125 34.59375 
Q 28.703125 39.09375 26.546875 41.34375 
Q 24.40625 43.59375 20.90625 43.59375 
Q 17.90625 43.59375 15.90625 42.140625 
Q 13.90625 40.703125 13.90625 38.703125 
Q 13.90625 37.796875 14.203125 36.6875 
Q 14.5 35.59375 14.5 34.5 
Q 14.5 33 13.140625 31.703125 
Q 11.796875 30.40625 9.90625 30.40625 
Q 8.203125 30.40625 6.890625 31.703125 
Q 5.59375 33 5.59375 35 
Q 5.59375 39.796875 10.703125 43 
Q 15.40625 46 22.203125 46 
Q 30.296875 46 34 41.5 
Q 35.796875 39.40625 36.296875 37.25 
Q 36.796875 35.09375 36.796875 30.40625 
L 36.796875 11.296875 
Q 36.796875 4.703125 39.90625 4.703125 
Q 41.90625 4.703125 44.203125 6.59375 
z
M 28.703125 12.703125 
L 28.703125 26.796875 
Q 19.5 23.59375 15.90625 20.203125 
Q 12.5 17.09375 12.5 12.5 
Q 12.5 8.703125 14.390625 6.75 
Q 16.296875 4.796875 19.40625 4.796875 
Q 22.703125 4.796875 25.203125 6.40625 
Q 27.296875 7.90625 28 9.203125 
Q 28.703125 10.5 28.703125 12.703125 
z
" id="STIXGeneral-Regular-97"/>
      <path d="M 16 45.796875 
L 16 36.59375 
Q 19.796875 42 22.34375 44 
Q 24.90625 46 28 46 
Q 30.59375 46 32.046875 44.59375 
Q 33.5 43.203125 33.5 40.703125 
Q 33.5 38.59375 32.453125 37.390625 
Q 31.40625 36.203125 29.59375 36.203125 
Q 27.703125 36.203125 25.59375 38.203125 
Q 24 39.703125 23 39.703125 
Q 20.90625 39.703125 18.453125 36.796875 
Q 16 33.90625 16 31.5 
L 16 9 
Q 16 4.703125 17.703125 3.203125 
Q 19.40625 1.703125 24.5 1.5 
L 24.5 0 
L 0.5 0 
L 0.5 1.5 
Q 5.296875 2.40625 6.4375 3.5 
Q 7.59375 4.59375 7.59375 8.40625 
L 7.59375 33.40625 
Q 7.59375 36.703125 6.84375 38.046875 
Q 6.09375 39.40625 4.203125 39.40625 
Q 2.59375 39.40625 0.703125 39 
L 0.703125 40.59375 
Q 7 42.59375 15.5 46 
z
" id="STIXGeneral-Regular-114"/>
      <path d="M 47.5 45 
L 47.5 43.5 
Q 45.703125 43.296875 44.59375 42.1875 
Q 43.5 41.09375 42.5 38.40625 
L 27.5 -2.5 
Q 23.59375 -13.09375 19.640625 -17.4375 
Q 15.703125 -21.796875 10 -21.796875 
Q 6.796875 -21.796875 4.890625 -20.140625 
Q 3 -18.5 3 -16 
Q 3 -14.09375 4.25 -12.75 
Q 5.5 -11.40625 7.296875 -11.40625 
Q 10.203125 -11.40625 12.5 -12.703125 
Q 13.796875 -13.40625 15.09375 -13.40625 
Q 17.203125 -13.40625 20.09375 -9 
Q 21.5 -7 22.796875 -3.296875 
Q 24.09375 0.40625 24.09375 1.796875 
Q 24.09375 3.09375 19.90625 11.90625 
L 6.703125 40.09375 
Q 5.40625 43 1.40625 43.59375 
L 1.40625 45 
L 21.90625 45 
L 21.90625 43.5 
Q 18.703125 43.40625 17.453125 42.796875 
Q 16.203125 42.203125 16.203125 40.796875 
Q 16.203125 39.703125 17.5 36.703125 
L 28.703125 11.703125 
L 38.40625 39.296875 
Q 38.796875 40.203125 38.796875 41.09375 
Q 38.796875 43.5 34.203125 43.5 
L 34.203125 45 
z
" id="STIXGeneral-Regular-121"/>
     </defs>
     <use xlink:href="#STIXGeneral-Regular-68"/>
     <use x="72.199982" xlink:href="#STIXGeneral-Regular-101"/>
     <use x="116.599976" xlink:href="#STIXGeneral-Regular-99"/>
     <use x="160.999969" xlink:href="#STIXGeneral-Regular-105"/>
     <use x="188.799957" xlink:href="#STIXGeneral-Regular-115"/>
     <use x="227.699951" xlink:href="#STIXGeneral-Regular-105"/>
     <use x="255.499939" xlink:href="#STIXGeneral-Regular-111"/>
     <use x="305.499924" xlink:href="#STIXGeneral-Regular-110"/>
     <use x="355.499908" xlink:href="#STIXGeneral-Regular-32"/>
     <use x="380.499893" xlink:href="#STIXGeneral-Regular-66"/>
     <use x="447.19989" xlink:href="#STIXGeneral-Regular-111"/>
     <use x="497.199875" xlink:href="#STIXGeneral-Regular-117"/>
     <use x="547.19986" xlink:href="#STIXGeneral-Regular-110"/>
     <use x="597.199844" xlink:href="#STIXGeneral-Regular-100"/>
     <use x="647.199829" xlink:href="#STIXGeneral-Regular-97"/>
     <use x="691.599823" xlink:href="#STIXGeneral-Regular-114"/>
     <use x="724.899811" xlink:href="#STIXGeneral-Regular-121"/>
    </g>
   </g>
   <g id="text_19">
    <!-- Train Data -->
    <g transform="translate(348.931 30.420625)scale(0.192 -0.192)">
     <defs>
      <path d="M 59.296875 49.203125 
L 56.90625 49.203125 
Q 55.296875 57.40625 52.390625 59.703125 
Q 49.5 62 41.5 62 
L 35.59375 62 
L 35.59375 11.09375 
Q 35.59375 5.40625 37.296875 3.796875 
Q 39 2.203125 45.203125 1.90625 
L 45.203125 0 
L 16 0 
L 16 1.90625 
Q 22.296875 2.296875 23.84375 4 
Q 25.40625 5.703125 25.40625 12.296875 
L 25.40625 62 
L 19.40625 62 
Q 11.296875 62 8.4375 59.640625 
Q 5.59375 57.296875 4.09375 49.203125 
L 1.703125 49.203125 
L 2.40625 66.203125 
L 58.59375 66.203125 
z
" id="STIXGeneral-Regular-84"/>
      <path d="M 26.59375 7.703125 
L 27.90625 6.59375 
Q 23.09375 -1 15.796875 -1 
Q 7 -1 7 11.703125 
L 7 41.796875 
L 1.703125 41.796875 
Q 1.296875 42.09375 1.296875 42.5 
Q 1.296875 43.296875 3 44.40625 
Q 6.796875 46.59375 12.703125 55.09375 
Q 12.90625 55.40625 13.65625 56.34375 
Q 14.40625 57.296875 14.703125 57.90625 
Q 15.40625 57.90625 15.40625 56.59375 
L 15.40625 45 
L 25.5 45 
L 25.5 41.796875 
L 15.40625 41.796875 
L 15.40625 13.203125 
Q 15.40625 8.40625 16.59375 6.296875 
Q 17.796875 4.203125 20.59375 4.203125 
Q 23.59375 4.203125 26.59375 7.703125 
z
" id="STIXGeneral-Regular-116"/>
     </defs>
     <use xlink:href="#STIXGeneral-Regular-84"/>
     <use x="61.099991" xlink:href="#STIXGeneral-Regular-114"/>
     <use x="94.399979" xlink:href="#STIXGeneral-Regular-97"/>
     <use x="138.799973" xlink:href="#STIXGeneral-Regular-105"/>
     <use x="166.59996" xlink:href="#STIXGeneral-Regular-110"/>
     <use x="216.599945" xlink:href="#STIXGeneral-Regular-32"/>
     <use x="241.59993" xlink:href="#STIXGeneral-Regular-68"/>
     <use x="313.799911" xlink:href="#STIXGeneral-Regular-97"/>
     <use x="358.199905" xlink:href="#STIXGeneral-Regular-116"/>
     <use x="385.999893" xlink:href="#STIXGeneral-Regular-97"/>
    </g>
   </g>
   <g id="legend_1">
    <g id="patch_7">
     <path d="M 575.4875 94.565625 
L 691.52 94.565625 
Q 694.72 94.565625 694.72 91.365625 
L 694.72 47.620625 
Q 694.72 44.420625 691.52 44.420625 
L 575.4875 44.420625 
Q 572.2875 44.420625 572.2875 47.620625 
L 572.2875 91.365625 
Q 572.2875 94.565625 575.4875 94.565625 
z
" style="fill:#ffffff;opacity:0.8;stroke:#cccccc;stroke-linejoin:miter;"/>
    </g>
    <g id="line2d_19">
     <path d="M 578.6875 56.420625 
L 610.6875 56.420625 
" style="fill:none;stroke:#1f77b4;stroke-linecap:square;stroke-width:1.5;"/>
    </g>
    <g id="line2d_20"/>
    <g id="text_20">
     <!-- P(X|Y=3) -->
     <g transform="translate(623.4875 62.020625)scale(0.16 -0.16)">
      <defs>
       <path d="M 63.703125 32 
L 4.796875 32 
L 4.796875 38.59375 
L 63.703125 38.59375 
z
M 63.703125 12 
L 4.796875 12 
L 4.796875 18.59375 
L 63.703125 18.59375 
z
" id="STIXGeneral-Regular-61"/>
       <path d="M 6.09375 51 
L 4.5 51.40625 
Q 6.796875 58.90625 11.6875 63.25 
Q 16.59375 67.59375 24.09375 67.59375 
Q 31.09375 67.59375 35.390625 63.796875 
Q 39.703125 60 39.703125 53.90625 
Q 39.703125 45.703125 30.40625 40.09375 
Q 35.90625 37.703125 38.703125 34.796875 
Q 43.09375 29.90625 43.09375 21.90625 
Q 43.09375 13.90625 38.5 7.90625 
Q 35.09375 3.296875 28.75 0.9375 
Q 22.40625 -1.40625 15.296875 -1.40625 
Q 4.09375 -1.40625 4.09375 4.296875 
Q 4.09375 5.90625 5.296875 6.90625 
Q 6.5 7.90625 8.203125 7.90625 
Q 10.703125 7.90625 14.296875 5.296875 
Q 18.703125 2.203125 22.90625 2.203125 
Q 28.40625 2.203125 32.15625 6.640625 
Q 35.90625 11.09375 35.90625 17.5 
Q 35.90625 29 25.5 32 
Q 22.40625 33 15.296875 33 
L 15.296875 34.40625 
Q 20.90625 36.296875 23.703125 38 
Q 31.796875 42.59375 31.796875 51.40625 
Q 31.796875 56.40625 28.9375 59 
Q 26.09375 61.59375 21 61.59375 
Q 12 61.59375 6.09375 51 
z
" id="STIXGeneral-Regular-51"/>
      </defs>
      <use xlink:href="#STIXGeneral-Regular-80"/>
      <use x="55.699997" xlink:href="#STIXGeneral-Regular-40"/>
      <use x="88.999985" xlink:href="#STIXGeneral-Regular-88"/>
      <use x="161.199966" xlink:href="#STIXGeneral-Regular-124"/>
      <use x="181.199951" xlink:href="#STIXGeneral-Regular-89"/>
      <use x="253.399933" xlink:href="#STIXGeneral-Regular-61"/>
      <use x="321.899918" xlink:href="#STIXGeneral-Regular-51"/>
      <use x="371.899902" xlink:href="#STIXGeneral-Regular-41"/>
     </g>
    </g>
    <g id="line2d_21">
     <path d="M 578.6875 79.093125 
L 610.6875 79.093125 
" style="fill:none;stroke:#ff7f0e;stroke-linecap:square;stroke-width:1.5;"/>
    </g>
    <g id="line2d_22"/>
    <g id="text_21">
     <!-- P(X|Y=5) -->
     <g transform="translate(623.4875 84.693125)scale(0.16 -0.16)">
      <use xlink:href="#STIXGeneral-Regular-80"/>
      <use x="55.699997" xlink:href="#STIXGeneral-Regular-40"/>
      <use x="88.999985" xlink:href="#STIXGeneral-Regular-88"/>
      <use x="161.199966" xlink:href="#STIXGeneral-Regular-124"/>
      <use x="181.199951" xlink:href="#STIXGeneral-Regular-89"/>
      <use x="253.399933" xlink:href="#STIXGeneral-Regular-61"/>
      <use x="321.899918" xlink:href="#STIXGeneral-Regular-53"/>
      <use x="371.899902" xlink:href="#STIXGeneral-Regular-41"/>
     </g>
    </g>
   </g>
  </g>
  <g id="axes_2">
   <g id="patch_8">
    <path d="M 77.78 592.97 
L 702.72 592.97 
L 702.72 351.780625 
L 77.78 351.780625 
z
" style="fill:#ffffff;"/>
   </g>
   <g id="matplotlib.axis_3">
    <g id="xtick_10">
     <g id="line2d_23">
      <g>
       <use style="stroke:#000000;stroke-width:0.8;" x="106.186364" xlink:href="#mcfcb9bccb2" y="592.97"/>
      </g>
     </g>
     <g id="text_22">
      <!-- −1.00 -->
      <g transform="translate(86.706364 610.8975)scale(0.16 -0.16)">
       <use xlink:href="#STIXGeneral-Regular-8722"/>
       <use x="68.499985" xlink:href="#STIXGeneral-Regular-49"/>
       <use x="118.499969" xlink:href="#STIXGeneral-Regular-46"/>
       <use x="143.499954" xlink:href="#STIXGeneral-Regular-48"/>
       <use x="193.499939" xlink:href="#STIXGeneral-Regular-48"/>
      </g>
     </g>
    </g>
    <g id="xtick_11">
     <g id="line2d_24">
      <g>
       <use style="stroke:#000000;stroke-width:0.8;" x="177.202273" xlink:href="#mcfcb9bccb2" y="592.97"/>
      </g>
     </g>
     <g id="text_23">
      <!-- −0.75 -->
      <g transform="translate(157.722273 610.8975)scale(0.16 -0.16)">
       <use xlink:href="#STIXGeneral-Regular-8722"/>
       <use x="68.499985" xlink:href="#STIXGeneral-Regular-48"/>
       <use x="118.499969" xlink:href="#STIXGeneral-Regular-46"/>
       <use x="143.499954" xlink:href="#STIXGeneral-Regular-55"/>
       <use x="193.499939" xlink:href="#STIXGeneral-Regular-53"/>
      </g>
     </g>
    </g>
    <g id="xtick_12">
     <g id="line2d_25">
      <g>
       <use style="stroke:#000000;stroke-width:0.8;" x="248.218182" xlink:href="#mcfcb9bccb2" y="592.97"/>
      </g>
     </g>
     <g id="text_24">
      <!-- −0.50 -->
      <g transform="translate(228.738182 610.8975)scale(0.16 -0.16)">
       <use xlink:href="#STIXGeneral-Regular-8722"/>
       <use x="68.499985" xlink:href="#STIXGeneral-Regular-48"/>
       <use x="118.499969" xlink:href="#STIXGeneral-Regular-46"/>
       <use x="143.499954" xlink:href="#STIXGeneral-Regular-53"/>
       <use x="193.499939" xlink:href="#STIXGeneral-Regular-48"/>
      </g>
     </g>
    </g>
    <g id="xtick_13">
     <g id="line2d_26">
      <g>
       <use style="stroke:#000000;stroke-width:0.8;" x="319.234091" xlink:href="#mcfcb9bccb2" y="592.97"/>
      </g>
     </g>
     <g id="text_25">
      <!-- −0.25 -->
      <g transform="translate(299.754091 610.8975)scale(0.16 -0.16)">
       <use xlink:href="#STIXGeneral-Regular-8722"/>
       <use x="68.499985" xlink:href="#STIXGeneral-Regular-48"/>
       <use x="118.499969" xlink:href="#STIXGeneral-Regular-46"/>
       <use x="143.499954" xlink:href="#STIXGeneral-Regular-50"/>
       <use x="193.499939" xlink:href="#STIXGeneral-Regular-53"/>
      </g>
     </g>
    </g>
    <g id="xtick_14">
     <g id="line2d_27">
      <g>
       <use style="stroke:#000000;stroke-width:0.8;" x="390.25" xlink:href="#mcfcb9bccb2" y="592.97"/>
      </g>
     </g>
     <g id="text_26">
      <!-- 0.00 -->
      <g transform="translate(376.25 610.8975)scale(0.16 -0.16)">
       <use xlink:href="#STIXGeneral-Regular-48"/>
       <use x="49.999985" xlink:href="#STIXGeneral-Regular-46"/>
       <use x="74.999969" xlink:href="#STIXGeneral-Regular-48"/>
       <use x="124.999954" xlink:href="#STIXGeneral-Regular-48"/>
      </g>
     </g>
    </g>
    <g id="xtick_15">
     <g id="line2d_28">
      <g>
       <use style="stroke:#000000;stroke-width:0.8;" x="461.265909" xlink:href="#mcfcb9bccb2" y="592.97"/>
      </g>
     </g>
     <g id="text_27">
      <!-- 0.25 -->
      <g transform="translate(447.265909 610.8975)scale(0.16 -0.16)">
       <use xlink:href="#STIXGeneral-Regular-48"/>
       <use x="49.999985" xlink:href="#STIXGeneral-Regular-46"/>
       <use x="74.999969" xlink:href="#STIXGeneral-Regular-50"/>
       <use x="124.999954" xlink:href="#STIXGeneral-Regular-53"/>
      </g>
     </g>
    </g>
    <g id="xtick_16">
     <g id="line2d_29">
      <g>
       <use style="stroke:#000000;stroke-width:0.8;" x="532.281818" xlink:href="#mcfcb9bccb2" y="592.97"/>
      </g>
     </g>
     <g id="text_28">
      <!-- 0.50 -->
      <g transform="translate(518.281818 610.8975)scale(0.16 -0.16)">
       <use xlink:href="#STIXGeneral-Regular-48"/>
       <use x="49.999985" xlink:href="#STIXGeneral-Regular-46"/>
       <use x="74.999969" xlink:href="#STIXGeneral-Regular-53"/>
       <use x="124.999954" xlink:href="#STIXGeneral-Regular-48"/>
      </g>
     </g>
    </g>
    <g id="xtick_17">
     <g id="line2d_30">
      <g>
       <use style="stroke:#000000;stroke-width:0.8;" x="603.297727" xlink:href="#mcfcb9bccb2" y="592.97"/>
      </g>
     </g>
     <g id="text_29">
      <!-- 0.75 -->
      <g transform="translate(589.297727 610.8975)scale(0.16 -0.16)">
       <use xlink:href="#STIXGeneral-Regular-48"/>
       <use x="49.999985" xlink:href="#STIXGeneral-Regular-46"/>
       <use x="74.999969" xlink:href="#STIXGeneral-Regular-55"/>
       <use x="124.999954" xlink:href="#STIXGeneral-Regular-53"/>
      </g>
     </g>
    </g>
    <g id="xtick_18">
     <g id="line2d_31">
      <g>
       <use style="stroke:#000000;stroke-width:0.8;" x="674.313636" xlink:href="#mcfcb9bccb2" y="592.97"/>
      </g>
     </g>
     <g id="text_30">
      <!-- 1.00 -->
      <g transform="translate(660.313636 610.8975)scale(0.16 -0.16)">
       <use xlink:href="#STIXGeneral-Regular-49"/>
       <use x="49.999985" xlink:href="#STIXGeneral-Regular-46"/>
       <use x="74.999969" xlink:href="#STIXGeneral-Regular-48"/>
       <use x="124.999954" xlink:href="#STIXGeneral-Regular-48"/>
      </g>
     </g>
    </g>
    <g id="text_31">
     <!-- X -->
     <g transform="translate(384.47375 629.2975)scale(0.16 -0.16)">
      <use xlink:href="#STIXGeneral-Regular-88"/>
     </g>
    </g>
   </g>
   <g id="matplotlib.axis_4">
    <g id="ytick_7">
     <g id="line2d_32">
      <g>
       <use style="stroke:#000000;stroke-width:0.8;" x="77.78" xlink:href="#m14815dd076" y="591.770053"/>
      </g>
     </g>
     <g id="text_32">
      <!-- 0.000 -->
      <g transform="translate(34.78 597.233803)scale(0.16 -0.16)">
       <use xlink:href="#STIXGeneral-Regular-48"/>
       <use x="49.999985" xlink:href="#STIXGeneral-Regular-46"/>
       <use x="74.999969" xlink:href="#STIXGeneral-Regular-48"/>
       <use x="124.999954" xlink:href="#STIXGeneral-Regular-48"/>
       <use x="174.999939" xlink:href="#STIXGeneral-Regular-48"/>
      </g>
     </g>
    </g>
    <g id="ytick_8">
     <g id="line2d_33">
      <g>
       <use style="stroke:#000000;stroke-width:0.8;" x="77.78" xlink:href="#m14815dd076" y="531.772696"/>
      </g>
     </g>
     <g id="text_33">
      <!-- 0.005 -->
      <g transform="translate(34.78 537.236446)scale(0.16 -0.16)">
       <use xlink:href="#STIXGeneral-Regular-48"/>
       <use x="49.999985" xlink:href="#STIXGeneral-Regular-46"/>
       <use x="74.999969" xlink:href="#STIXGeneral-Regular-48"/>
       <use x="124.999954" xlink:href="#STIXGeneral-Regular-48"/>
       <use x="174.999939" xlink:href="#STIXGeneral-Regular-53"/>
      </g>
     </g>
    </g>
    <g id="ytick_9">
     <g id="line2d_34">
      <g>
       <use style="stroke:#000000;stroke-width:0.8;" x="77.78" xlink:href="#m14815dd076" y="471.775339"/>
      </g>
     </g>
     <g id="text_34">
      <!-- 0.010 -->
      <g transform="translate(34.78 477.239089)scale(0.16 -0.16)">
       <use xlink:href="#STIXGeneral-Regular-48"/>
       <use x="49.999985" xlink:href="#STIXGeneral-Regular-46"/>
       <use x="74.999969" xlink:href="#STIXGeneral-Regular-48"/>
       <use x="124.999954" xlink:href="#STIXGeneral-Regular-49"/>
       <use x="174.999939" xlink:href="#STIXGeneral-Regular-48"/>
      </g>
     </g>
    </g>
    <g id="ytick_10">
     <g id="line2d_35">
      <g>
       <use style="stroke:#000000;stroke-width:0.8;" x="77.78" xlink:href="#m14815dd076" y="411.777982"/>
      </g>
     </g>
     <g id="text_35">
      <!-- 0.015 -->
      <g transform="translate(34.78 417.241732)scale(0.16 -0.16)">
       <use xlink:href="#STIXGeneral-Regular-48"/>
       <use x="49.999985" xlink:href="#STIXGeneral-Regular-46"/>
       <use x="74.999969" xlink:href="#STIXGeneral-Regular-48"/>
       <use x="124.999954" xlink:href="#STIXGeneral-Regular-49"/>
       <use x="174.999939" xlink:href="#STIXGeneral-Regular-53"/>
      </g>
     </g>
    </g>
    <g id="ytick_11">
     <g id="line2d_36">
      <g>
       <use style="stroke:#000000;stroke-width:0.8;" x="77.78" xlink:href="#m14815dd076" y="351.780625"/>
      </g>
     </g>
     <g id="text_36">
      <!-- 0.020 -->
      <g transform="translate(34.78 357.244375)scale(0.16 -0.16)">
       <use xlink:href="#STIXGeneral-Regular-48"/>
       <use x="49.999985" xlink:href="#STIXGeneral-Regular-46"/>
       <use x="74.999969" xlink:href="#STIXGeneral-Regular-48"/>
       <use x="124.999954" xlink:href="#STIXGeneral-Regular-50"/>
       <use x="174.999939" xlink:href="#STIXGeneral-Regular-48"/>
      </g>
     </g>
    </g>
    <g id="text_37">
     <!-- P(X|Y) -->
     <g transform="translate(27.3075 495.311562)rotate(-90)scale(0.16 -0.16)">
      <use xlink:href="#STIXGeneral-Regular-80"/>
      <use x="55.699997" xlink:href="#STIXGeneral-Regular-40"/>
      <use x="88.999985" xlink:href="#STIXGeneral-Regular-88"/>
      <use x="161.199966" xlink:href="#STIXGeneral-Regular-124"/>
      <use x="181.199951" xlink:href="#STIXGeneral-Regular-89"/>
      <use x="253.399933" xlink:href="#STIXGeneral-Regular-41"/>
     </g>
    </g>
   </g>
   <g id="line2d_37">
    <path clip-path="url(#p5ad2f4a5c3)" d="M 106.186364 591.770053 
L 271.676891 591.663805 
L 277.932546 591.441369 
L 282.482114 591.066955 
L 285.89429 590.567588 
L 288.73777 589.930499 
L 291.012553 589.222294 
L 293.287337 588.286407 
L 295.562121 587.067435 
L 297.268209 585.930044 
L 298.974297 584.569694 
L 300.680385 582.956285 
L 302.386473 581.058907 
L 304.092561 578.846646 
L 305.798649 576.289555 
L 307.504737 573.359804 
L 309.210824 570.032972 
L 310.916912 566.289457 
L 312.623 562.115952 
L 314.897784 555.874181 
L 317.172568 548.87234 
L 319.447352 541.158034 
L 322.290832 530.648396 
L 325.703008 517.1189 
L 333.096055 487.490622 
L 335.370839 479.302447 
L 337.645623 472.017123 
L 339.351711 467.297158 
L 341.057799 463.321195 
L 342.195191 461.124922 
L 343.332583 459.316478 
L 344.469975 457.912891 
L 345.607366 456.927484 
L 346.744758 456.36967 
L 347.88215 456.244794 
L 349.019542 456.554057 
L 350.156934 457.29449 
L 351.294326 458.459005 
L 352.431718 460.036505 
L 353.56911 462.012062 
L 354.706502 464.367155 
L 356.41259 468.562846 
L 358.118678 473.476865 
L 359.824766 479.011323 
L 362.09955 487.170397 
L 364.943029 498.246199 
L 374.610861 536.745683 
L 377.454341 546.724414 
L 379.729125 553.937598 
L 382.003908 560.400654 
L 384.278692 566.091074 
L 385.98478 569.855831 
L 387.690868 573.203078 
L 389.396956 576.152137 
L 391.103044 578.727223 
L 392.809132 580.956028 
L 394.51522 582.868418 
L 396.221308 584.495288 
L 397.927396 585.867567 
L 399.633483 587.015411 
L 401.908267 588.246173 
L 404.183051 589.19163 
L 406.457835 589.907463 
L 409.301315 590.551798 
L 412.713491 591.057208 
L 416.694363 591.402245 
L 422.381322 591.636548 
L 431.480458 591.747723 
L 461.621344 591.770039 
L 674.313636 591.770053 
L 674.313636 591.770053 
" style="fill:none;stroke:#1f77b4;stroke-linecap:square;stroke-width:1.5;"/>
   </g>
   <g id="line2d_38">
    <path clip-path="url(#p5ad2f4a5c3)" d="M 106.186364 591.770053 
L 326.840399 591.667532 
L 335.370839 591.439494 
L 341.057799 591.090697 
L 345.607366 590.602338 
L 349.588238 589.941089 
L 353.000414 589.133183 
L 355.843894 588.240272 
L 358.687374 587.101474 
L 360.962158 585.981441 
L 363.236941 584.647722 
L 365.511725 583.073888 
L 367.786509 581.233675 
L 370.061293 579.101914 
L 372.336077 576.655605 
L 374.610861 573.875137 
L 376.885645 570.745587 
L 379.160429 567.258082 
L 381.435212 563.41115 
L 384.278692 558.108926 
L 387.122172 552.292894 
L 390.534348 544.725041 
L 394.51522 535.293016 
L 404.751747 510.685451 
L 407.595227 504.561831 
L 409.870011 500.128414 
L 412.144795 496.20784 
L 413.850883 493.654471 
L 415.556971 491.467991 
L 417.263059 489.675675 
L 418.969146 488.300188 
L 420.106538 487.62367 
L 421.24393 487.144207 
L 422.381322 486.864552 
L 423.518714 486.786317 
L 424.656106 486.909952 
L 425.793498 487.234745 
L 426.93089 487.758827 
L 428.068282 488.479187 
L 429.205674 489.391709 
L 430.911762 491.109158 
L 432.61785 493.225287 
L 434.323938 495.713627 
L 436.030025 498.543553 
L 438.304809 502.788698 
L 440.579593 507.491594 
L 443.423073 513.869816 
L 447.403945 523.391969 
L 455.934384 544.003997 
L 459.34656 551.624172 
L 462.19004 557.493419 
L 465.03352 562.854376 
L 467.877 567.668413 
L 470.151784 571.115426 
L 472.426567 574.205138 
L 474.701351 576.94717 
L 476.976135 579.357039 
L 479.250919 581.454803 
L 481.525703 583.263762 
L 483.800487 584.809262 
L 486.075271 586.117626 
L 488.918751 587.459772 
L 491.76223 588.522515 
L 494.60571 589.352473 
L 498.017886 590.100193 
L 501.998758 590.709111 
L 506.548326 591.15625 
L 512.235285 591.473466 
L 520.197029 591.671236 
L 534.414428 591.759072 
L 604.364032 591.770053 
L 674.313636 591.770053 
L 674.313636 591.770053 
" style="fill:none;stroke:#ff7f0e;stroke-linecap:square;stroke-width:1.5;"/>
   </g>
   <g id="line2d_39">
    <path clip-path="url(#p5ad2f4a5c3)" d="M 339.351711 591.770053 
L 339.351711 411.777982 
" style="fill:none;stroke:#000000;stroke-dasharray:5.55,2.4;stroke-dashoffset:0;stroke-width:1.5;"/>
   </g>
   <g id="line2d_40">
    <path clip-path="url(#p5ad2f4a5c3)" d="M 381.728091 591.770053 
L 381.728091 453.776132 
" style="fill:none;stroke:#ff0000;stroke-dasharray:5.55,2.4;stroke-dashoffset:0;stroke-width:1.5;"/>
   </g>
   <g id="patch_9">
    <path d="M 77.78 592.97 
L 77.78 351.780625 
" style="fill:none;stroke:#000000;stroke-linecap:square;stroke-linejoin:miter;stroke-width:0.8;"/>
   </g>
   <g id="patch_10">
    <path d="M 702.72 592.97 
L 702.72 351.780625 
" style="fill:none;stroke:#000000;stroke-linecap:square;stroke-linejoin:miter;stroke-width:0.8;"/>
   </g>
   <g id="patch_11">
    <path d="M 77.78 592.97 
L 702.72 592.97 
" style="fill:none;stroke:#000000;stroke-linecap:square;stroke-linejoin:miter;stroke-width:0.8;"/>
   </g>
   <g id="patch_12">
    <path d="M 77.78 351.780625 
L 702.72 351.780625 
" style="fill:none;stroke:#000000;stroke-linecap:square;stroke-linejoin:miter;stroke-width:0.8;"/>
   </g>
   <g id="text_38">
    <!-- Old -->
    <g transform="translate(327.351711 383.193011)scale(0.16 -0.16)">
     <defs>
      <path d="M 68.796875 33.09375 
Q 68.796875 17.703125 59.6875 8.140625 
Q 50.59375 -1.40625 36.09375 -1.40625 
Q 21.5 -1.40625 12.453125 8.1875 
Q 3.40625 17.796875 3.40625 33.40625 
Q 3.40625 48.59375 12.453125 58.09375 
Q 21.5 67.59375 36.09375 67.59375 
Q 50.703125 67.59375 59.75 57.84375 
Q 68.796875 48.09375 68.796875 33.09375 
z
M 57.40625 33.703125 
Q 57.40625 42.203125 55 48.953125 
Q 52.59375 55.703125 48.296875 59.296875 
Q 42.703125 64 36 64 
Q 27.5 64 21.703125 57.296875 
Q 18.5 53.703125 16.640625 47.046875 
Q 14.796875 40.40625 14.796875 33.203125 
Q 14.796875 15 23.796875 6.703125 
Q 28.703125 2.203125 36.203125 2.203125 
Q 44 2.203125 49.09375 7 
Q 57.40625 15 57.40625 33.703125 
z
" id="STIXGeneral-Regular-79"/>
      <path d="M 25.703125 0 
L 2.09375 0 
L 2.09375 1.5 
Q 6.796875 1.90625 8.296875 3.453125 
Q 9.796875 5 9.796875 9.203125 
L 9.796875 56.09375 
Q 9.796875 59.703125 8.890625 61.09375 
Q 8 62.5 5.59375 62.5 
Q 3.5 62.5 1.90625 62.296875 
L 1.90625 63.90625 
Q 11.40625 66.203125 17.703125 68.296875 
L 18.203125 67.90625 
L 18.203125 8.703125 
Q 18.203125 4.5 19.59375 3.140625 
Q 21 1.796875 25.703125 1.5 
z
" id="STIXGeneral-Regular-108"/>
     </defs>
     <use xlink:href="#STIXGeneral-Regular-79"/>
     <use x="72.199982" xlink:href="#STIXGeneral-Regular-108"/>
     <use x="99.999969" xlink:href="#STIXGeneral-Regular-100"/>
    </g>
    <!-- Decision Boundary -->
    <g transform="translate(277.357961 399.778511)scale(0.16 -0.16)">
     <use xlink:href="#STIXGeneral-Regular-68"/>
     <use x="72.199982" xlink:href="#STIXGeneral-Regular-101"/>
     <use x="116.599976" xlink:href="#STIXGeneral-Regular-99"/>
     <use x="160.999969" xlink:href="#STIXGeneral-Regular-105"/>
     <use x="188.799957" xlink:href="#STIXGeneral-Regular-115"/>
     <use x="227.699951" xlink:href="#STIXGeneral-Regular-105"/>
     <use x="255.499939" xlink:href="#STIXGeneral-Regular-111"/>
     <use x="305.499924" xlink:href="#STIXGeneral-Regular-110"/>
     <use x="355.499908" xlink:href="#STIXGeneral-Regular-32"/>
     <use x="380.499893" xlink:href="#STIXGeneral-Regular-66"/>
     <use x="447.19989" xlink:href="#STIXGeneral-Regular-111"/>
     <use x="497.199875" xlink:href="#STIXGeneral-Regular-117"/>
     <use x="547.19986" xlink:href="#STIXGeneral-Regular-110"/>
     <use x="597.199844" xlink:href="#STIXGeneral-Regular-100"/>
     <use x="647.199829" xlink:href="#STIXGeneral-Regular-97"/>
     <use x="691.599823" xlink:href="#STIXGeneral-Regular-114"/>
     <use x="724.899811" xlink:href="#STIXGeneral-Regular-121"/>
    </g>
   </g>
   <g id="text_39">
    <!-- New -->
    <g style="fill:#ff0000;" transform="translate(366.623091 414.605396)scale(0.16 -0.16)">
     <defs>
      <path d="M 70.703125 66.203125 
L 70.703125 64.296875 
Q 65.59375 63.796875 64.09375 62.5 
Q 62.5 61.09375 61.84375 58.6875 
Q 61.203125 56.296875 61.203125 50.703125 
L 61.203125 -1.09375 
L 59.40625 -1.09375 
L 15.296875 53.796875 
L 15.296875 15 
Q 15.296875 7.40625 17 5.046875 
Q 18.703125 2.703125 24.59375 1.90625 
L 24.59375 0 
L 1.203125 0 
L 1.203125 1.90625 
Q 7.40625 2.59375 9.15625 4.84375 
Q 10.90625 7.09375 10.90625 15 
L 10.90625 59 
Q 8.296875 62.203125 6.5 63.25 
Q 4.703125 64.296875 1.203125 64.296875 
L 1.203125 66.203125 
L 18.203125 66.203125 
L 56.796875 17.90625 
L 56.796875 51.90625 
Q 56.796875 59.5 54.90625 61.703125 
Q 53.703125 63 52.25 63.453125 
Q 50.796875 63.90625 47 64.296875 
L 47 66.203125 
z
" id="STIXGeneral-Regular-78"/>
      <path d="M 69.40625 45 
L 69.40625 43.5 
Q 67.90625 43 67.203125 42.046875 
Q 66.5 41.09375 65.296875 38.09375 
L 51.5 3.5 
Q 49.5 -1.40625 48.703125 -1.40625 
Q 48.203125 -1.40625 47.84375 -0.75 
Q 47.5 -0.09375 46.296875 2.90625 
L 37.203125 26.5 
L 26 2.5 
Q 24.203125 -1.40625 23.5 -1.40625 
Q 22.59375 -1.40625 20.90625 3 
L 7.40625 37.203125 
Q 5.90625 41.09375 4.90625 42.1875 
Q 3.90625 43.296875 2.09375 43.5 
L 2.09375 45 
L 20.09375 45 
L 20.09375 43.5 
Q 17.5 43.203125 16.5 42.5 
Q 15.5 41.796875 15.5 40.203125 
Q 15.5 38.703125 16.09375 37.203125 
L 26 11.09375 
L 35.09375 31 
L 33.09375 36.59375 
Q 31.703125 40.59375 30.34375 41.890625 
Q 29 43.203125 26.203125 43.5 
L 26.203125 45 
L 46.5 45 
L 46.5 43.5 
Q 43 43 41.84375 42.296875 
Q 40.703125 41.59375 40.703125 40 
Q 40.703125 38.40625 42.40625 34 
L 50.796875 11.59375 
L 59.796875 33.796875 
Q 61.5 38 61.5 40.5 
Q 61.5 41.703125 60.546875 42.34375 
Q 59.59375 43 57.09375 43.5 
L 57.09375 45 
z
" id="STIXGeneral-Regular-119"/>
     </defs>
     <use xlink:href="#STIXGeneral-Regular-78"/>
     <use x="72.199982" xlink:href="#STIXGeneral-Regular-101"/>
     <use x="116.599976" xlink:href="#STIXGeneral-Regular-119"/>
    </g>
    <!-- Decision -->
    <g style="fill:#ff0000;" transform="translate(353.286841 431.190896)scale(0.16 -0.16)">
     <use xlink:href="#STIXGeneral-Regular-68"/>
     <use x="72.199982" xlink:href="#STIXGeneral-Regular-101"/>
     <use x="116.599976" xlink:href="#STIXGeneral-Regular-99"/>
     <use x="160.999969" xlink:href="#STIXGeneral-Regular-105"/>
     <use x="188.799957" xlink:href="#STIXGeneral-Regular-115"/>
     <use x="227.699951" xlink:href="#STIXGeneral-Regular-105"/>
     <use x="255.499939" xlink:href="#STIXGeneral-Regular-111"/>
     <use x="305.499924" xlink:href="#STIXGeneral-Regular-110"/>
    </g>
    <!-- Boundary -->
    <g style="fill:#ff0000;" transform="translate(350.175591 447.776396)scale(0.16 -0.16)">
     <use xlink:href="#STIXGeneral-Regular-66"/>
     <use x="66.699997" xlink:href="#STIXGeneral-Regular-111"/>
     <use x="116.699982" xlink:href="#STIXGeneral-Regular-117"/>
     <use x="166.699966" xlink:href="#STIXGeneral-Regular-110"/>
     <use x="216.699951" xlink:href="#STIXGeneral-Regular-100"/>
     <use x="266.699936" xlink:href="#STIXGeneral-Regular-97"/>
     <use x="311.09993" xlink:href="#STIXGeneral-Regular-114"/>
     <use x="344.399918" xlink:href="#STIXGeneral-Regular-121"/>
    </g>
   </g>
   <g id="text_40">
    <!-- Test Data -->
    <g transform="translate(353.1925 345.780625)scale(0.192 -0.192)">
     <use xlink:href="#STIXGeneral-Regular-84"/>
     <use x="61.099991" xlink:href="#STIXGeneral-Regular-101"/>
     <use x="105.499985" xlink:href="#STIXGeneral-Regular-115"/>
     <use x="144.399979" xlink:href="#STIXGeneral-Regular-116"/>
     <use x="172.199966" xlink:href="#STIXGeneral-Regular-32"/>
     <use x="197.199951" xlink:href="#STIXGeneral-Regular-68"/>
     <use x="269.399933" xlink:href="#STIXGeneral-Regular-97"/>
     <use x="313.799927" xlink:href="#STIXGeneral-Regular-116"/>
     <use x="341.599915" xlink:href="#STIXGeneral-Regular-97"/>
    </g>
   </g>
   <g id="legend_2">
    <g id="patch_13">
     <path d="M 567.4875 409.925625 
L 691.52 409.925625 
Q 694.72 409.925625 694.72 406.725625 
L 694.72 362.980625 
Q 694.72 359.780625 691.52 359.780625 
L 567.4875 359.780625 
Q 564.2875 359.780625 564.2875 362.980625 
L 564.2875 406.725625 
Q 564.2875 409.925625 567.4875 409.925625 
z
" style="fill:#ffffff;opacity:0.8;stroke:#cccccc;stroke-linejoin:miter;"/>
    </g>
    <g id="line2d_41">
     <path d="M 570.6875 371.780625 
L 602.6875 371.780625 
" style="fill:none;stroke:#1f77b4;stroke-linecap:square;stroke-width:1.5;"/>
    </g>
    <g id="line2d_42"/>
    <g id="text_41">
     <!-- P(X|Y = 3) -->
     <g transform="translate(615.4875 377.380625)scale(0.16 -0.16)">
      <use xlink:href="#STIXGeneral-Regular-80"/>
      <use x="55.699997" xlink:href="#STIXGeneral-Regular-40"/>
      <use x="88.999985" xlink:href="#STIXGeneral-Regular-88"/>
      <use x="161.199966" xlink:href="#STIXGeneral-Regular-124"/>
      <use x="181.199951" xlink:href="#STIXGeneral-Regular-89"/>
      <use x="253.399933" xlink:href="#STIXGeneral-Regular-32"/>
      <use x="278.399918" xlink:href="#STIXGeneral-Regular-61"/>
      <use x="346.899902" xlink:href="#STIXGeneral-Regular-32"/>
      <use x="371.899887" xlink:href="#STIXGeneral-Regular-51"/>
      <use x="421.899872" xlink:href="#STIXGeneral-Regular-41"/>
     </g>
    </g>
    <g id="line2d_43">
     <path d="M 570.6875 394.453125 
L 602.6875 394.453125 
" style="fill:none;stroke:#ff7f0e;stroke-linecap:square;stroke-width:1.5;"/>
    </g>
    <g id="line2d_44"/>
    <g id="text_42">
     <!-- P(X|Y = 5) -->
     <g transform="translate(615.4875 400.053125)scale(0.16 -0.16)">
      <use xlink:href="#STIXGeneral-Regular-80"/>
      <use x="55.699997" xlink:href="#STIXGeneral-Regular-40"/>
      <use x="88.999985" xlink:href="#STIXGeneral-Regular-88"/>
      <use x="161.199966" xlink:href="#STIXGeneral-Regular-124"/>
      <use x="181.199951" xlink:href="#STIXGeneral-Regular-89"/>
      <use x="253.399933" xlink:href="#STIXGeneral-Regular-32"/>
      <use x="278.399918" xlink:href="#STIXGeneral-Regular-61"/>
      <use x="346.899902" xlink:href="#STIXGeneral-Regular-32"/>
      <use x="371.899887" xlink:href="#STIXGeneral-Regular-53"/>
      <use x="421.899872" xlink:href="#STIXGeneral-Regular-41"/>
     </g>
    </g>
   </g>
  </g>
 </g>
 <defs>
  <clipPath id="p3a359656ff">
   <rect height="241.189375" width="624.94" x="77.78" y="36.420625"/>
  </clipPath>
  <clipPath id="p5ad2f4a5c3">
   <rect height="241.189375" width="624.94" x="77.78" y="351.780625"/>
  </clipPath>
 </defs>
</svg>
